<svg width="225" height="90" viewBox="0 0 225 90" fill="none" xmlns="http://www.w3.org/2000/svg">
<rect x="160" y="14" width="64" height="64" rx="32" stroke="#FF9200" stroke-width="2"/>
<path d="M193.494 34.0435C193.494 33.2181 192.825 32.5489 192 32.5489C191.174 32.5489 190.505 33.2181 190.505 34.0435V55.0956L183.342 47.9323C182.758 47.3486 181.812 47.3486 181.228 47.9323C180.645 48.516 180.645 49.4623 181.228 50.0459L189.886 58.7038C191.053 59.8711 192.946 59.8711 194.113 58.7038L202.771 50.0459C203.355 49.4623 203.355 48.516 202.771 47.9323C202.188 47.3486 201.241 47.3486 200.658 47.9323L193.494 55.0956V34.0435Z" fill="#FF9200"/>
<path d="M29.8713 41.8198C35.6662 43.0616 39.5984 48.0286 39.5984 54.2374C39.5984 61.4811 34.1485 67 26.7669 67H6.41577V19.3991H25.1112C31.8029 19.3991 36.9079 24.3662 36.9079 31.1269C36.9079 36.1629 33.7345 40.3021 29.8713 41.8198ZM24.5593 22.0896H9.31321V40.923H24.5593C29.5953 40.923 33.8725 36.8528 33.8725 31.4718C33.8725 26.0908 29.8713 22.0896 24.5593 22.0896ZM26.284 64.3095C32.1478 64.3095 36.563 59.7564 36.563 53.8235C36.563 47.9596 32.1478 43.4755 26.284 43.4755H9.31321V64.3095H26.284ZM47.001 67V17.3295H49.7605V67H47.001ZM76.3915 67.8278C65.8366 67.8278 57.9031 59.8944 57.9031 49.4084C57.9031 38.9224 65.8366 30.9889 76.3915 30.9889C86.9465 30.9889 94.949 38.9224 94.949 49.4084C94.949 59.8944 86.9465 67.8278 76.3915 67.8278ZM76.3915 65.1374C85.3598 65.1374 92.0515 58.3767 92.0515 49.4084C92.0515 40.4401 85.3598 33.6794 76.3915 33.6794C67.4233 33.6794 60.7315 40.4401 60.7315 49.4084C60.7315 58.3767 67.4233 65.1374 76.3915 65.1374ZM124.742 68.9316C131.019 68.9316 135.366 72.174 135.572 77.348L132.744 77.8999C132.675 74.1056 129.295 71.6221 124.397 71.6221H109.909C104.666 71.6221 101.217 68.6557 101.217 64.3095C101.217 61.4121 102.735 58.5836 105.218 57.2729C102.183 54.5824 100.32 50.5811 100.32 46.097C100.32 37.4737 106.943 30.9889 115.842 30.9889C119.499 30.9889 122.81 32.0927 125.431 34.0243C125.707 30.368 128.467 27.9535 132.399 27.9535H134.952V30.575H132.537C129.571 30.575 127.501 32.5066 127.501 35.473V35.818C129.985 38.5085 131.433 42.0958 131.433 46.097C131.433 54.6514 124.742 61.1361 115.842 61.1361C112.531 61.1361 109.495 60.2393 107.012 58.6526C105.149 59.5494 103.977 61.619 103.977 63.6886C103.977 66.862 106.529 68.9316 110.323 68.9316H124.742ZM103.149 46.097C103.149 53.1337 108.599 58.5146 115.842 58.5146C123.086 58.5146 128.605 53.1337 128.605 46.097C128.605 38.9914 123.086 33.6104 115.842 33.6104C108.53 33.6104 103.149 38.9914 103.149 46.097Z" fill="#FF9200"/>
</svg>
