<svg width="168" height="60" viewBox="0 0 168 60" fill="none" xmlns="http://www.w3.org/2000/svg">
<rect x="1" y="1" width="166" height="58" rx="29" fill="#FF9200"/>
<rect x="1" y="1" width="166" height="58" rx="29" stroke="black" stroke-width="2"/>
<path d="M55.25 23.08C57.788 23.08 59.714 24.934 59.714 27.4C59.714 29.848 57.788 31.702 55.25 31.702H52.712V35.5H49.616V23.08H55.25ZM55.178 28.786C55.952 28.786 56.546 28.192 56.546 27.4C56.546 26.59 55.952 25.996 55.178 25.996H52.712V28.786H55.178ZM65.8829 26.176H66.3149V29.182H65.8829C64.3889 29.182 63.5789 30.01 63.5789 31.306V35.5H60.6629V26.32H63.5789V27.238C64.1909 26.554 64.9649 26.176 65.8829 26.176ZM76.5732 30.568C76.5732 31.384 76.4592 32.11 76.2312 32.746C76.0152 33.382 75.6972 33.922 75.2772 34.366C74.8692 34.798 74.3712 35.128 73.7832 35.356C73.1952 35.572 72.5292 35.68 71.7852 35.68C71.1012 35.68 70.4652 35.572 69.8772 35.356C69.3012 35.128 68.8032 34.798 68.3832 34.366C67.9632 33.922 67.6332 33.382 67.3932 32.746C67.1652 32.11 67.0512 31.384 67.0512 30.568C67.0512 29.476 67.2432 28.558 67.6272 27.814C68.0112 27.058 68.5632 26.482 69.2832 26.086C70.0032 25.69 70.8552 25.492 71.8392 25.492C72.7632 25.492 73.5792 25.69 74.2872 26.086C74.9952 26.482 75.5532 27.058 75.9612 27.814C76.3692 28.558 76.5732 29.476 76.5732 30.568ZM69.7872 30.568C69.7872 31.216 69.8532 31.762 69.9852 32.206C70.1292 32.638 70.3512 32.968 70.6512 33.196C70.9512 33.412 71.3412 33.52 71.8212 33.52C72.3012 33.52 72.6852 33.412 72.9732 33.196C73.2732 32.968 73.4892 32.638 73.6212 32.206C73.7652 31.762 73.8372 31.216 73.8372 30.568C73.8372 29.92 73.7652 29.38 73.6212 28.948C73.4892 28.516 73.2732 28.192 72.9732 27.976C72.6732 27.76 72.2832 27.652 71.8032 27.652C71.0952 27.652 70.5792 27.898 70.2552 28.39C69.9432 28.87 69.7872 29.596 69.7872 30.568ZM75.6192 21.892C75.4512 22.06 75.2292 22.264 74.9532 22.504C74.6772 22.744 74.3772 22.996 74.0532 23.26C73.7412 23.524 73.4292 23.776 73.1172 24.016C72.8172 24.244 72.5532 24.436 72.3252 24.592H70.5432V24.358C70.7352 24.13 70.9572 23.866 71.2092 23.566C71.4732 23.254 71.7312 22.936 71.9832 22.612C72.2352 22.276 72.4452 21.976 72.6132 21.712H75.6192V21.892ZM87.3038 35.5H83.7578L82.1738 32.98L80.6078 35.5H77.1158L80.2478 30.892L77.1698 26.32H80.6978L82.2278 28.786L83.7398 26.32H87.2498L84.1538 30.892L87.3038 35.5ZM89.4711 25.33C88.4631 25.33 87.6891 24.574 87.6891 23.566C87.6891 22.54 88.4631 21.784 89.4711 21.784C90.4971 21.784 91.2531 22.54 91.2531 23.566C91.2531 24.574 90.4971 25.33 89.4711 25.33ZM88.0131 35.5V26.32H90.9291V35.5H88.0131ZM103.772 26.104C105.842 26.104 107.156 27.436 107.156 29.488V35.5H104.24V30.37C104.24 29.506 103.7 28.93 102.854 28.93C101.972 28.93 101.36 29.524 101.36 30.406V35.5H98.4438V30.37C98.4438 29.506 97.9038 28.93 97.0578 28.93C96.1758 28.93 95.5458 29.524 95.5458 30.406V35.5H92.6298V26.32H95.5458V27.094C96.2118 26.446 97.0578 26.104 98.0478 26.104C99.2538 26.104 100.208 26.59 100.784 27.436C101.54 26.554 102.548 26.104 103.772 26.104ZM113.118 35.716C110.274 35.716 108.15 33.646 108.15 30.91C108.15 28.174 110.274 26.104 113.118 26.104C115.944 26.104 118.086 28.174 118.086 30.91C118.086 33.646 115.944 35.716 113.118 35.716ZM113.118 32.89C114.234 32.89 115.08 32.044 115.08 30.91C115.08 29.776 114.234 28.93 113.118 28.93C111.984 28.93 111.138 29.776 111.138 30.91C111.138 32.044 111.984 32.89 113.118 32.89Z" fill="white"/>
</svg>
