<svg width="168" height="60" viewBox="0 0 168 60" fill="none" xmlns="http://www.w3.org/2000/svg">
<rect x="1" y="1" width="166" height="58" rx="29" stroke="black" stroke-width="2"/>
<path d="M62.212 32.584H67.702V35.5H59.116V23.08H67.612V25.996H62.212V27.796H67.036V30.712H62.212V32.584ZM74.6351 26.104C76.7051 26.104 78.0911 27.472 78.0911 29.542V35.5H75.1751V30.514C75.1751 29.56 74.5811 28.93 73.6451 28.93C72.6551 28.93 71.9891 29.578 71.9891 30.55V35.5H69.0731V26.32H71.9891V27.13C72.6911 26.446 73.5911 26.104 74.6351 26.104ZM85.2192 28.984H82.9692V31.882C82.9692 32.512 83.3112 32.89 84.0492 32.89C84.4992 32.89 84.8952 32.746 85.2192 32.584V35.302C84.6792 35.59 84.1212 35.716 83.4192 35.716C81.0612 35.716 80.0532 34.312 80.0532 32.368V28.984H78.7392V26.32H80.0532V24.106H82.9692V26.32H85.2192V28.984ZM91.7179 26.176H92.1499V29.182H91.7179C90.2239 29.182 89.4139 30.01 89.4139 31.306V35.5H86.4979V26.32H89.4139V27.238C90.0259 26.554 90.7999 26.176 91.7179 26.176ZM99.4399 26.32H102.356V35.5H99.4399V34.744C98.7739 35.356 97.8919 35.716 96.8839 35.716C94.3819 35.716 92.4919 33.646 92.4919 30.91C92.4919 28.174 94.3819 26.104 96.8839 26.104C97.8919 26.104 98.7739 26.464 99.4399 27.076V26.32ZM97.4599 32.89C98.5939 32.89 99.4399 32.044 99.4399 30.91C99.4399 29.776 98.5939 28.93 97.4599 28.93C96.3259 28.93 95.4979 29.776 95.4979 30.91C95.4979 32.044 96.3259 32.89 97.4599 32.89ZM109.248 26.176H109.68V29.182H109.248C107.754 29.182 106.944 30.01 106.944 31.306V35.5H104.028V26.32H106.944V27.238C107.556 26.554 108.33 26.176 109.248 26.176Z" fill="black"/>
<path d="M58 37.282H109.878V38.92H58V37.282Z" fill="black"/>
</svg>
