<svg width="861" height="70" viewBox="0 0 861 70" fill="none" xmlns="http://www.w3.org/2000/svg">
<g clip-path="url(#clip0_184_161)">
<rect width="861" height="70" rx="30" fill="#D8D8D8"/>
<path d="M41.9 31.56C44.92 31.56 46.86 33.86 46.44 36.9C46.02 39.94 43.4 42.24 40.38 42.24C38.06 42.24 36.4 40.88 35.96 38.86L35.52 42H35.04L37.06 27.6H37.54L36.52 34.94C37.52 32.92 39.58 31.56 41.9 31.56ZM45.92 36.9C46.32 34.12 44.54 32.04 41.78 32.04C39 32.04 36.62 34.12 36.24 36.9C35.84 39.68 37.62 41.76 40.38 41.76C43.16 41.76 45.54 39.68 45.92 36.9ZM52.7761 42.24C50.1361 42.24 48.6161 40.56 48.9761 38L49.8561 31.8H50.3361L49.4761 37.94C49.1561 40.24 50.4761 41.76 52.8361 41.76C55.1961 41.76 56.9961 40.24 57.2961 37.94L58.1761 31.8H58.6561L57.7761 38C57.4161 40.56 55.4161 42.24 52.7761 42.24ZM63.6664 42.24C62.0064 42.24 60.7264 41.6 60.0064 40.58L60.3664 40.24C61.0064 41.2 62.2064 41.78 63.7264 41.78C65.5864 41.78 67.1664 40.84 67.3664 39.44C67.5864 37.92 66.0664 37.5 64.4464 37.08C62.7664 36.62 61.0064 36.12 61.2664 34.26C61.5064 32.52 63.3064 31.56 65.1664 31.56C66.6264 31.56 67.7464 32.14 68.4064 33.02L68.0664 33.38C67.4864 32.54 66.4464 32.02 65.1264 32.02C63.4264 32.02 61.9664 32.9 61.7664 34.2C61.5464 35.78 63.1064 36.2 64.7264 36.62C66.4064 37.06 68.1464 37.52 67.8664 39.4C67.6264 41.16 65.8064 42.24 63.6664 42.24ZM74.8944 42.24C71.8344 42.24 69.8744 39.94 70.2944 36.9C70.7144 33.86 73.3544 31.56 76.4144 31.56C78.4344 31.56 79.9544 32.58 80.6544 34.14L80.1944 34.38C79.5744 32.96 78.1744 32.04 76.3344 32.04C73.5744 32.04 71.1744 34.12 70.7944 36.9C70.4144 39.68 72.1744 41.76 74.9544 41.76C76.7744 41.76 78.4544 40.84 79.4944 39.42L79.8944 39.66C78.7544 41.22 76.9144 42.24 74.8944 42.24ZM93.2066 31.8H93.6866L92.2466 42H91.7666L92.2066 38.88C91.1866 40.88 89.1266 42.24 86.8266 42.24C83.7866 42.24 81.8666 39.94 82.2866 36.9C82.7066 33.86 85.3066 31.56 88.3466 31.56C90.6666 31.56 92.3066 32.92 92.7666 34.94L93.2066 31.8ZM86.9466 41.76C89.7066 41.76 92.0866 39.7 92.4866 36.94V36.9C92.8666 34.12 91.1066 32.04 88.3266 32.04C85.5666 32.04 83.1866 34.12 82.7866 36.9C82.4066 39.68 84.1866 41.76 86.9466 41.76ZM96.0627 42.08C95.7627 42.08 95.5627 41.84 95.6027 41.54C95.6427 41.22 95.9027 41 96.2227 41C96.5227 41 96.7227 41.22 96.6827 41.54C96.6427 41.84 96.3827 42.08 96.0627 42.08ZM100.203 42.08C99.9033 42.08 99.7033 41.84 99.7433 41.54C99.7833 41.22 100.043 41 100.363 41C100.663 41 100.863 41.22 100.823 41.54C100.783 41.84 100.523 42.08 100.203 42.08ZM104.344 42.08C104.044 42.08 103.844 41.84 103.884 41.54C103.924 41.22 104.184 41 104.504 41C104.804 41 105.004 41.22 104.964 41.54C104.924 41.84 104.664 42.08 104.344 42.08Z" fill="#797C7E"/>
<rect x="746" y="12" width="98" height="46" rx="23" fill="url(#paint0_linear_184_161)"/>
<path d="M794 42C798.418 42 802 38.4183 802 34C802 29.5817 798.418 26 794 26C789.582 26 786 29.5817 786 34C786 38.4183 789.582 42 794 42Z" stroke="black" stroke-width="2" stroke-linecap="round" stroke-linejoin="round"/>
<path d="M804 44L799.65 39.65" stroke="black" stroke-width="2" stroke-linecap="round" stroke-linejoin="round"/>
<path d="M725 26H705L713 35.46V42L717 44V35.46L725 26Z" stroke="black" stroke-opacity="0.6" stroke-width="2" stroke-linecap="round" stroke-linejoin="round"/>
</g>
<defs>
<linearGradient id="paint0_linear_184_161" x1="795" y1="12" x2="746" y2="12" gradientUnits="userSpaceOnUse">
<stop stop-color="#FF7A00"/>
<stop offset="0.3605" stop-color="#FF9200"/>
</linearGradient>
<clipPath id="clip0_184_161">
<rect width="861" height="70" fill="white"/>
</clipPath>
</defs>
</svg>
