<svg width="168" height="60" viewBox="0 0 168 60" fill="none" xmlns="http://www.w3.org/2000/svg">
<path d="M50.898 35.716C47.226 35.716 44.454 32.944 44.454 29.29C44.454 25.636 47.226 22.864 50.898 22.864C53.184 22.864 55.146 23.962 56.28 25.654L55.614 26.068C54.624 24.574 52.914 23.602 50.898 23.602C47.694 23.602 45.246 26.05 45.246 29.29C45.246 32.53 47.694 34.978 50.898 34.978C52.914 34.978 54.624 34.006 55.614 32.512L56.28 32.926C55.146 34.618 53.184 35.716 50.898 35.716ZM66.5228 26.32H67.2428V35.5H66.5228V33.016C65.8028 34.636 64.2368 35.716 62.3108 35.716C59.6108 35.716 57.5948 33.646 57.5948 30.91C57.5948 28.174 59.6108 26.104 62.3108 26.104C64.2368 26.104 65.8028 27.184 66.5228 28.804V26.32ZM62.4368 35.014C64.7588 35.014 66.5228 33.25 66.5228 30.91C66.5228 28.57 64.7588 26.806 62.4368 26.806C60.0968 26.806 58.3508 28.57 58.3508 30.91C58.3508 33.25 60.0968 35.014 62.4368 35.014ZM78.2939 22.54H79.0139V35.5H78.2939V33.016C77.5739 34.636 76.0079 35.716 74.0819 35.716C71.3819 35.716 69.3659 33.646 69.3659 30.91C69.3659 28.174 71.3819 26.104 74.0819 26.104C76.0079 26.104 77.5739 27.184 78.2939 28.804V22.54ZM74.2079 35.014C76.5299 35.014 78.2939 33.25 78.2939 30.91C78.2939 28.57 76.5299 26.806 74.2079 26.806C71.8679 26.806 70.1219 28.57 70.1219 30.91C70.1219 33.25 71.8679 35.014 74.2079 35.014ZM90.0649 26.32H90.7849V35.5H90.0649V33.016C89.3449 34.636 87.7789 35.716 85.8529 35.716C83.1529 35.716 81.1369 33.646 81.1369 30.91C81.1369 28.174 83.1529 26.104 85.8529 26.104C87.7789 26.104 89.3449 27.184 90.0649 28.804V26.32ZM85.9789 35.014C88.3009 35.014 90.0649 33.25 90.0649 30.91C90.0649 28.57 88.3009 26.806 85.9789 26.806C83.6389 26.806 81.8929 28.57 81.8929 30.91C81.8929 33.25 83.6389 35.014 85.9789 35.014ZM96.3639 35.716C94.8519 35.716 93.5919 35.122 92.7999 34.24L93.2319 33.718C93.9159 34.546 95.0319 35.05 96.3459 35.05C97.9119 35.05 99.1179 34.294 99.1179 33.16C99.1179 31.9 97.8039 31.558 96.3819 31.198C94.7979 30.802 93.1239 30.334 93.1239 28.606C93.1239 26.986 94.6359 26.104 96.3819 26.104C97.7319 26.104 98.8299 26.644 99.5499 27.4L99.1359 27.94C98.5239 27.22 97.5339 26.77 96.3999 26.77C94.9959 26.77 93.8799 27.472 93.8799 28.534C93.8799 29.83 95.2299 30.172 96.6519 30.532C98.2179 30.91 99.8559 31.342 99.8559 33.088C99.8559 34.726 98.3259 35.716 96.3639 35.716ZM106.461 26.986H103.419V33.358C103.419 34.582 104.067 35.014 105.129 35.014C105.669 35.014 106.065 34.888 106.461 34.672V35.356C106.029 35.59 105.615 35.716 105.003 35.716C103.563 35.716 102.699 35.014 102.699 33.466V26.986H100.827V26.32H102.699V23.71H103.419V26.32H106.461V26.986ZM112.805 26.176H113.057V26.932H112.805C110.591 26.932 109.169 28.39 109.169 30.676V35.5H108.449V26.32H109.169V28.48C109.817 27.04 111.113 26.176 112.805 26.176ZM118.314 35.716C115.56 35.716 113.49 33.646 113.49 30.91C113.49 28.174 115.56 26.104 118.314 26.104C121.068 26.104 123.156 28.174 123.156 30.91C123.156 33.646 121.068 35.716 118.314 35.716ZM118.314 35.014C120.654 35.014 122.4 33.25 122.4 30.91C122.4 28.57 120.654 26.806 118.314 26.806C115.974 26.806 114.228 28.57 114.228 30.91C114.228 33.25 115.974 35.014 118.314 35.014Z" fill="black"/>
</svg>
