<svg width="168" height="60" viewBox="0 0 168 60" fill="none" xmlns="http://www.w3.org/2000/svg">
<rect x="1" y="1" width="166" height="58" rx="29" stroke="black" stroke-width="2"/>
<path d="M51.592 35.716C47.848 35.716 45.022 32.944 45.022 29.29C45.022 25.636 47.848 22.864 51.592 22.864C53.95 22.864 55.948 23.944 57.1 25.654L54.436 27.31C53.824 26.41 52.798 25.852 51.592 25.852C49.666 25.852 48.19 27.328 48.19 29.29C48.19 31.252 49.666 32.728 51.592 32.728C52.798 32.728 53.824 32.17 54.436 31.27L57.1 32.926C55.948 34.636 53.95 35.716 51.592 35.716ZM64.373 26.32H67.289V35.5H64.373V34.744C63.707 35.356 62.825 35.716 61.817 35.716C59.315 35.716 57.425 33.646 57.425 30.91C57.425 28.174 59.315 26.104 61.817 26.104C62.825 26.104 63.707 26.464 64.373 27.076V26.32ZM62.393 32.89C63.527 32.89 64.373 32.044 64.373 30.91C64.373 29.776 63.527 28.93 62.393 28.93C61.259 28.93 60.431 29.776 60.431 30.91C60.431 32.044 61.259 32.89 62.393 32.89ZM75.4233 22.54H78.3393V35.5H75.4233V34.744C74.7573 35.356 73.8753 35.716 72.8673 35.716C70.3653 35.716 68.4753 33.646 68.4753 30.91C68.4753 28.174 70.3653 26.104 72.8673 26.104C73.8753 26.104 74.7573 26.464 75.4233 27.076V22.54ZM73.4433 32.89C74.5773 32.89 75.4233 32.044 75.4233 30.91C75.4233 29.776 74.5773 28.93 73.4433 28.93C72.3093 28.93 71.4813 29.776 71.4813 30.91C71.4813 32.044 72.3093 32.89 73.4433 32.89ZM86.4736 26.32H89.3896V35.5H86.4736V34.744C85.8076 35.356 84.9256 35.716 83.9176 35.716C81.4156 35.716 79.5256 33.646 79.5256 30.91C79.5256 28.174 81.4156 26.104 83.9176 26.104C84.9256 26.104 85.8076 26.464 86.4736 27.076V26.32ZM84.4936 32.89C85.6276 32.89 86.4736 32.044 86.4736 30.91C86.4736 29.776 85.6276 28.93 84.4936 28.93C83.3596 28.93 82.5316 29.776 82.5316 30.91C82.5316 32.044 83.3596 32.89 84.4936 32.89ZM94.3559 35.716C92.5739 35.716 91.2779 35.05 90.3599 34.348L91.6559 32.512C92.3939 33.07 93.2219 33.466 94.2659 33.466C95.0219 33.466 95.5439 33.25 95.5439 32.854C95.5439 32.422 94.9139 32.26 94.0499 32.08C92.6279 31.774 90.6479 31.324 90.6479 29.128C90.6479 27.094 92.4119 26.104 94.5539 26.104C96.2099 26.104 97.3979 26.68 98.2799 27.292L96.9839 29.128C96.2639 28.678 95.5439 28.354 94.6619 28.354C94.0499 28.354 93.5459 28.516 93.5459 28.894C93.5459 29.326 94.1759 29.47 95.0219 29.65C96.4439 29.92 98.4419 30.388 98.4419 32.584C98.4419 34.636 96.6599 35.716 94.3559 35.716ZM105.274 28.984H103.024V31.882C103.024 32.512 103.366 32.89 104.104 32.89C104.554 32.89 104.95 32.746 105.274 32.584V35.302C104.734 35.59 104.176 35.716 103.474 35.716C101.116 35.716 100.108 34.312 100.108 32.368V28.984H98.7945V26.32H100.108V24.106H103.024V26.32H105.274V28.984ZM111.773 26.176H112.205V29.182H111.773C110.279 29.182 109.469 30.01 109.469 31.306V35.5H106.553V26.32H109.469V27.238C110.081 26.554 110.855 26.176 111.773 26.176ZM117.479 35.716C114.635 35.716 112.511 33.646 112.511 30.91C112.511 28.174 114.635 26.104 117.479 26.104C120.305 26.104 122.447 28.174 122.447 30.91C122.447 33.646 120.305 35.716 117.479 35.716ZM117.479 32.89C118.595 32.89 119.441 32.044 119.441 30.91C119.441 29.776 118.595 28.93 117.479 28.93C116.345 28.93 115.499 29.776 115.499 30.91C115.499 32.044 116.345 32.89 117.479 32.89Z" fill="black"/>
<path d="M44.5 37.282H122.879V38.92H44.5V37.282Z" fill="black"/>
</svg>
