<svg width="234" height="171" viewBox="0 0 234 171" fill="none" xmlns="http://www.w3.org/2000/svg">
<g filter="url(#filter0_b_107_101)">
<rect y="1.7186" width="233.729" height="165.844" rx="20" fill="white" fill-opacity="0.2"/>
<rect x="1" y="2.7186" width="231.729" height="163.844" rx="19" stroke="#FF7A00" stroke-width="2"/>
<path d="M31.668 20.9486H39.357V43.7186H33.054V31.1786L28.401 40.4186H24.837L20.184 31.1786V43.7186H13.881V20.9486H21.669L26.685 30.8486L31.668 20.9486ZM61.5245 35.4356C61.5245 35.8976 61.4915 36.5576 61.3925 36.9866H49.9745C50.5025 38.3066 51.6575 39.0986 53.2085 39.0986C54.7595 39.0986 55.9805 38.3066 56.6075 37.6466L60.5015 41.0786C58.6865 42.9596 56.0465 44.1146 53.0435 44.1146C47.6315 44.1146 43.5725 40.2866 43.5725 35.2046C43.5725 30.2546 47.4665 26.4926 52.6145 26.4926C57.6965 26.4926 61.5245 30.2546 61.5245 35.4356ZM52.5485 31.5086C51.3275 31.5086 50.3705 32.3006 49.9085 33.5876H55.1885C54.7595 32.2676 53.7365 31.5086 52.5485 31.5086ZM65.4832 43.7186V19.9586H71.4232V43.7186H65.4832ZM86.8762 26.4926C90.6052 26.4926 93.0802 28.9346 93.0802 32.6636V43.7186H87.1402V34.6766C87.1402 33.1916 86.2492 32.2346 84.8632 32.2346C83.3452 32.2346 82.3222 33.2246 82.3222 34.7426V43.7186H76.3822V19.9586H82.3222V28.2746C83.5762 27.0866 85.0942 26.4926 86.8762 26.4926ZM105.874 44.1146C100.66 44.1146 96.7334 40.3196 96.7334 35.3036C96.7334 30.2876 100.66 26.4926 105.874 26.4926C111.088 26.4926 115.015 30.2876 115.015 35.3036C115.015 40.3196 111.088 44.1146 105.874 44.1146ZM105.874 38.3726C107.623 38.3726 108.91 37.0526 108.91 35.3036C108.91 33.5546 107.623 32.2346 105.874 32.2346C104.125 32.2346 102.838 33.5546 102.838 35.3036C102.838 37.0526 104.125 38.3726 105.874 38.3726ZM128.8 26.6246H129.625V32.7296H128.8C126.226 32.7296 124.939 34.0826 124.939 36.1946V43.7186H118.999V26.8886H124.939V28.3076C125.995 27.2516 127.282 26.6246 128.8 26.6246ZM136.187 25.4366C134.141 25.4366 132.59 23.9186 132.59 21.8726C132.59 19.8266 134.141 18.3086 136.187 18.3086C138.233 18.3086 139.784 19.8266 139.784 21.8726C139.784 23.9186 138.233 25.4366 136.187 25.4366ZM133.217 43.7186V26.8886H139.157V43.7186H133.217ZM155.435 26.8886H161.375V43.7186H155.435V42.6626C154.28 43.5866 152.861 44.1146 151.211 44.1146C146.657 44.1146 143.258 40.3196 143.258 35.3036C143.258 30.2876 146.657 26.4926 151.211 26.4926C152.861 26.4926 154.28 27.0206 155.435 27.9446V26.8886ZM152.399 38.3726C154.148 38.3726 155.435 37.0526 155.435 35.3036C155.435 33.5546 154.148 32.2346 152.399 32.2346C150.65 32.2346 149.363 33.5546 149.363 35.3036C149.363 37.0526 150.65 38.3726 152.399 38.3726ZM172.498 44.1146C169.132 44.1146 166.756 42.8936 165.04 41.6396L167.581 38.0096C168.934 38.9666 170.419 39.6596 172.267 39.6596C173.488 39.6596 174.28 39.3626 174.28 38.8016C174.28 38.1746 173.29 37.9436 171.838 37.6466C169.264 37.1186 165.568 36.3266 165.568 32.1686C165.568 28.3406 168.835 26.4926 172.894 26.4926C176.029 26.4926 178.207 27.5486 179.857 28.6376L177.316 32.2676C175.963 31.5086 174.676 30.9476 173.125 30.9476C172.201 30.9476 171.409 31.1456 171.409 31.6736C171.409 32.2676 172.399 32.4986 173.785 32.7626C176.359 33.2576 180.121 34.0826 180.121 38.2406C180.121 42.1016 176.788 44.1146 172.498 44.1146ZM209.277 35.4356C209.277 35.8976 209.244 36.5576 209.145 36.9866H197.727C198.255 38.3066 199.41 39.0986 200.961 39.0986C202.512 39.0986 203.733 38.3066 204.36 37.6466L208.254 41.0786C206.439 42.9596 203.799 44.1146 200.796 44.1146C195.384 44.1146 191.325 40.2866 191.325 35.2046C191.325 30.2546 195.219 26.4926 200.367 26.4926C205.449 26.4926 209.277 30.2546 209.277 35.4356ZM200.301 31.5086C199.08 31.5086 198.123 32.3006 197.661 33.5876H202.941C202.512 32.2676 201.489 31.5086 200.301 31.5086ZM24.969 60.8886H30.909V77.7186H24.969V76.6626C23.814 77.5866 22.395 78.1146 20.745 78.1146C16.191 78.1146 12.792 74.3196 12.792 69.3036C12.792 64.2876 16.191 60.4926 20.745 60.4926C22.395 60.4926 23.814 61.0206 24.969 61.9446V60.8886ZM21.933 72.3726C23.682 72.3726 24.969 71.0526 24.969 69.3036C24.969 67.5546 23.682 66.2346 21.933 66.2346C20.184 66.2346 18.897 67.5546 18.897 69.3036C18.897 71.0526 20.184 72.3726 21.933 72.3726ZM38.9625 59.4366C36.9165 59.4366 35.3655 57.9186 35.3655 55.8726C35.3655 53.8266 36.9165 52.3086 38.9625 52.3086C41.0085 52.3086 42.5595 53.8266 42.5595 55.8726C42.5595 57.9186 41.0085 59.4366 38.9625 59.4366ZM35.7945 84.3846C34.8045 84.3846 34.0125 84.2526 33.2865 83.9886V78.6756C33.7815 78.8736 34.2435 78.9726 34.6725 78.9726C35.5965 78.9726 35.9925 78.4776 35.9925 77.7516V60.8886H41.9325V78.4446C41.9325 81.8106 40.1175 84.3846 35.7945 84.3846ZM54.7095 78.1146C49.7925 78.1146 46.5585 75.2766 46.5585 70.9536V60.8886H52.4985V70.1286C52.4985 71.4816 53.3895 72.3726 54.7095 72.3726C56.0295 72.3726 56.9205 71.4816 56.9205 70.1286V60.8886H62.8605V70.9536C62.8605 75.2766 59.6265 78.1146 54.7095 78.1146ZM73.6587 78.1146C70.2927 78.1146 67.9167 76.8936 66.2007 75.6396L68.7417 72.0096C70.0947 72.9666 71.5797 73.6596 73.4277 73.6596C74.6487 73.6596 75.4407 73.3626 75.4407 72.8016C75.4407 72.1746 74.4507 71.9436 72.9987 71.6466C70.4247 71.1186 66.7287 70.3266 66.7287 66.1686C66.7287 62.3406 69.9957 60.4926 74.0547 60.4926C77.1897 60.4926 79.3677 61.5486 81.0177 62.6376L78.4767 66.2676C77.1237 65.5086 75.8367 64.9476 74.2857 64.9476C73.3617 64.9476 72.5697 65.1456 72.5697 65.6736C72.5697 66.2676 73.5597 66.4986 74.9457 66.7626C77.5197 67.2576 81.2817 68.0826 81.2817 72.2406C81.2817 76.1016 77.9487 78.1146 73.6587 78.1146ZM96.0175 66.3006H92.0905V70.6896C92.0905 71.6796 92.6515 72.3726 93.9055 72.3726C94.6975 72.3726 95.4235 72.1086 96.0175 71.8116V77.3556C94.9945 77.8836 93.9385 78.1146 92.6185 78.1146C88.0645 78.1146 86.1505 75.3426 86.1505 71.6796V66.3006H83.9065V60.8886H86.1505V56.9286H92.0905V60.8886H96.0175V66.3006ZM117.044 69.4356C117.044 69.8976 117.011 70.5576 116.912 70.9866H105.494C106.022 72.3066 107.177 73.0986 108.728 73.0986C110.279 73.0986 111.5 72.3066 112.127 71.6466L116.021 75.0786C114.206 76.9596 111.566 78.1146 108.563 78.1146C103.151 78.1146 99.0924 74.2866 99.0924 69.2046C99.0924 64.2546 102.986 60.4926 108.134 60.4926C113.216 60.4926 117.044 64.2546 117.044 69.4356ZM108.068 65.5086C106.847 65.5086 105.89 66.3006 105.428 67.5876H110.708C110.279 66.2676 109.256 65.5086 108.068 65.5086ZM127.174 78.1146C123.808 78.1146 121.432 76.8936 119.716 75.6396L122.257 72.0096C123.61 72.9666 125.095 73.6596 126.943 73.6596C128.164 73.6596 128.956 73.3626 128.956 72.8016C128.956 72.1746 127.966 71.9436 126.514 71.6466C123.94 71.1186 120.244 70.3266 120.244 66.1686C120.244 62.3406 123.511 60.4926 127.57 60.4926C130.705 60.4926 132.883 61.5486 134.533 62.6376L131.992 66.2676C130.639 65.5086 129.352 64.9476 127.801 64.9476C126.877 64.9476 126.085 65.1456 126.085 65.6736C126.085 66.2676 127.075 66.4986 128.461 66.7626C131.035 67.2576 134.797 68.0826 134.797 72.2406C134.797 76.1016 131.464 78.1146 127.174 78.1146Z" fill="black"/>
<path d="M15.624 96.0134C14.4 96.0134 13.224 95.5094 12.492 94.7054L12.9 94.1534C13.5 94.8254 14.508 95.3414 15.624 95.3414C16.872 95.3414 17.844 94.6934 17.844 93.7454C17.844 92.5094 16.236 92.1734 15.48 92.0174C14.208 91.7414 12.732 91.1294 12.732 89.6774C12.732 88.3334 13.932 87.4454 15.564 87.4454C16.692 87.4454 17.64 87.8654 18.204 88.5014L17.82 89.0414C17.412 88.5374 16.548 88.1174 15.564 88.1174C14.376 88.1174 13.488 88.7534 13.488 89.6414C13.488 90.7454 14.82 91.1294 15.684 91.2974C16.524 91.4654 18.612 91.9934 18.612 93.7094C18.612 95.0654 17.304 96.0134 15.624 96.0134ZM27.1667 89.7494H27.8627V95.8694H27.1667V94.4534C26.6627 95.4014 25.7027 96.0134 24.5267 96.0134C22.7507 96.0134 21.4187 94.6334 21.4187 92.8094C21.4187 90.9854 22.7507 89.6054 24.5267 89.6054C25.7027 89.6054 26.6627 90.2174 27.1667 91.1654V89.7494ZM24.6467 95.3414C26.0867 95.3414 27.1667 94.2494 27.1667 92.8094C27.1667 91.3694 26.0867 90.2774 24.6467 90.2774C23.2187 90.2774 22.1387 91.3694 22.1387 92.8094C22.1387 94.2494 23.2187 95.3414 24.6467 95.3414ZM31.9077 88.3094C31.6317 88.3094 31.4037 88.0934 31.4037 87.8054C31.4037 87.5294 31.6317 87.3134 31.9077 87.3134C32.1957 87.3134 32.4237 87.5294 32.4237 87.8054C32.4237 88.0934 32.1957 88.3094 31.9077 88.3094ZM31.5597 95.8694V89.7494H32.2557V95.8694H31.5597ZM39.2973 89.6054C41.0853 89.6054 42.4173 90.9854 42.4173 92.8094C42.4173 94.6334 41.0853 96.0134 39.2973 96.0134C38.1333 96.0134 37.1613 95.4014 36.6573 94.4534V95.8694H35.9613V87.2294H36.6573V91.1654C37.1613 90.2174 38.1333 89.6054 39.2973 89.6054ZM39.1773 95.3414C40.6173 95.3414 41.6973 94.2494 41.6973 92.8094C41.6973 91.3694 40.6173 90.2774 39.1773 90.2774C37.7373 90.2774 36.6573 91.3694 36.6573 92.8094C36.6573 94.2494 37.7373 95.3414 39.1773 95.3414ZM51.0823 89.7494H51.7783V95.8694H51.0823V94.4534C50.5783 95.4014 49.6183 96.0134 48.4423 96.0134C46.6663 96.0134 45.3343 94.6334 45.3343 92.8094C45.3343 90.9854 46.6663 89.6054 48.4423 89.6054C49.6183 89.6054 50.5783 90.2174 51.0823 91.1654V89.7494ZM48.5623 95.3414C50.0023 95.3414 51.0823 94.2494 51.0823 92.8094C51.0823 91.3694 50.0023 90.2774 48.5623 90.2774C47.1343 90.2774 46.0543 91.3694 46.0543 92.8094C46.0543 94.2494 47.1343 95.3414 48.5623 95.3414ZM63.2365 96.0134C61.3885 96.0134 59.9965 94.6334 59.9965 92.8094C59.9965 90.9854 61.3885 89.6054 63.2365 89.6054C64.4485 89.6054 65.4685 90.2054 66.0205 91.1414L65.4085 91.5134C64.9885 90.7694 64.1845 90.2774 63.2365 90.2774C61.7965 90.2774 60.7165 91.3694 60.7165 92.8094C60.7165 94.2494 61.7965 95.3414 63.2365 95.3414C64.1845 95.3414 64.9885 94.8494 65.4085 94.1054L66.0205 94.4774C65.4685 95.4134 64.4485 96.0134 63.2365 96.0134ZM72.0561 96.0134C70.2081 96.0134 68.8161 94.6334 68.8161 92.8094C68.8161 90.9854 70.2081 89.6054 72.0561 89.6054C73.8921 89.6054 75.2841 90.9854 75.2841 92.8094C75.2841 94.6334 73.8921 96.0134 72.0561 96.0134ZM72.0561 95.3414C73.4961 95.3414 74.5641 94.2494 74.5641 92.8094C74.5641 91.3694 73.4961 90.2774 72.0561 90.2774C70.6161 90.2774 69.5361 91.3694 69.5361 92.8094C69.5361 94.2494 70.6161 95.3414 72.0561 95.3414ZM85.8544 89.6054C87.2704 89.6054 88.1944 90.5294 88.1944 91.9334V95.8694H87.4984V92.1254C87.4984 91.0094 86.7784 90.2774 85.6624 90.2774C84.5104 90.2774 83.7424 91.0214 83.7424 92.1494V95.8694H83.0464V92.1254C83.0464 91.0094 82.3144 90.2774 81.2104 90.2774C80.0584 90.2774 79.2784 91.0214 79.2784 92.1494V95.8694H78.5824V89.7494H79.2784V90.7574C79.7104 90.0254 80.4544 89.6054 81.4144 89.6054C82.4464 89.6054 83.2264 90.1094 83.5624 90.9494C83.9704 90.0974 84.7864 89.6054 85.8544 89.6054ZM94.6639 96.0134C92.8159 96.0134 91.4239 94.6334 91.4239 92.8094C91.4239 90.9854 92.8159 89.6054 94.6639 89.6054C96.4999 89.6054 97.8919 90.9854 97.8919 92.8094C97.8919 94.6334 96.4999 96.0134 94.6639 96.0134ZM94.6639 95.3414C96.1039 95.3414 97.1719 94.2494 97.1719 92.8094C97.1719 91.3694 96.1039 90.2774 94.6639 90.2774C93.2239 90.2774 92.1439 91.3694 92.1439 92.8094C92.1439 94.2494 93.2239 95.3414 94.6639 95.3414ZM111.471 89.7494H112.167V95.8694H111.471V94.4534C110.967 95.4014 110.007 96.0134 108.831 96.0134C107.055 96.0134 105.723 94.6334 105.723 92.8094C105.723 90.9854 107.055 89.6054 108.831 89.6054C110.007 89.6054 110.967 90.2174 111.471 91.1654V89.7494ZM108.951 95.3414C110.391 95.3414 111.471 94.2494 111.471 92.8094C111.471 91.3694 110.391 90.2774 108.951 90.2774C107.523 90.2774 106.443 91.3694 106.443 92.8094C106.443 94.2494 107.523 95.3414 108.951 95.3414ZM116.296 88.3094C116.008 88.3094 115.78 88.0934 115.78 87.8054C115.78 87.5294 116.008 87.3134 116.296 87.3134C116.572 87.3134 116.8 87.5294 116.8 87.8054C116.8 88.0934 116.572 88.3094 116.296 88.3094ZM115.156 98.2934C114.856 98.2934 114.628 98.2334 114.424 98.1374V97.5014C114.592 97.5974 114.784 97.6454 115.036 97.6454C115.576 97.6454 115.948 97.3814 115.948 96.6974V89.7494H116.644V96.7814C116.644 97.7774 116.08 98.2934 115.156 98.2934ZM122.976 96.0134C121.344 96.0134 120.264 94.9934 120.264 93.4574V89.7494H120.96V93.3614C120.96 94.5494 121.764 95.3414 122.976 95.3414C124.188 95.3414 124.98 94.5494 124.98 93.3614V89.7494H125.676V93.4574C125.676 94.9934 124.608 96.0134 122.976 96.0134ZM131.252 96.0134C130.22 96.0134 129.38 95.6054 128.84 95.0414L129.236 94.5374C129.692 95.0534 130.4 95.3774 131.24 95.3774C132.2 95.3774 132.92 94.9454 132.92 94.2734C132.92 93.5294 132.116 93.3134 131.228 93.0974C130.196 92.8334 129.044 92.5334 129.044 91.3214C129.044 90.2054 130.088 89.6054 131.288 89.6054C132.212 89.6054 132.956 89.9654 133.448 90.4574L133.052 90.9734C132.644 90.5294 132.02 90.2414 131.3 90.2414C130.448 90.2414 129.764 90.6374 129.764 91.2734C129.764 92.0294 130.58 92.2454 131.492 92.4614C132.512 92.7134 133.64 93.0014 133.64 94.2014C133.64 95.3414 132.596 96.0134 131.252 96.0134ZM140.059 90.3854H138.103V94.2974C138.103 95.0534 138.511 95.3414 139.183 95.3414C139.543 95.3414 139.807 95.2454 140.059 95.1134V95.7734C139.759 95.9294 139.471 96.0134 139.051 96.0134C137.995 96.0134 137.407 95.4734 137.407 94.4054V90.3854H136.219V89.7494H137.407V88.0454H138.103V89.7494H140.059V90.3854ZM148.35 89.7494H149.046V95.8694H148.35V94.4534C147.846 95.4014 146.886 96.0134 145.71 96.0134C143.934 96.0134 142.602 94.6334 142.602 92.8094C142.602 90.9854 143.934 89.6054 145.71 89.6054C146.886 89.6054 147.846 90.2174 148.35 91.1654V89.7494ZM145.83 95.3414C147.27 95.3414 148.35 94.2494 148.35 92.8094C148.35 91.3694 147.27 90.2774 145.83 90.2774C144.402 90.2774 143.322 91.3694 143.322 92.8094C143.322 94.2494 144.402 95.3414 145.83 95.3414ZM155.743 89.6534H155.923V90.3734H155.743C154.339 90.3734 153.439 91.2854 153.439 92.7134V95.8694H152.743V89.7494H153.439V91.0334C153.883 90.1694 154.699 89.6534 155.743 89.6534ZM165.799 96.0134C164.767 96.0134 163.927 95.6054 163.387 95.0414L163.783 94.5374C164.239 95.0534 164.947 95.3774 165.787 95.3774C166.747 95.3774 167.467 94.9454 167.467 94.2734C167.467 93.5294 166.663 93.3134 165.775 93.0974C164.743 92.8334 163.591 92.5334 163.591 91.3214C163.591 90.2054 164.635 89.6054 165.835 89.6054C166.759 89.6054 167.503 89.9654 167.995 90.4574L167.599 90.9734C167.191 90.5294 166.567 90.2414 165.847 90.2414C164.995 90.2414 164.311 90.6374 164.311 91.2734C164.311 92.0294 165.127 92.2454 166.039 92.4614C167.059 92.7134 168.187 93.0014 168.187 94.2014C168.187 95.3414 167.143 96.0134 165.799 96.0134ZM174.084 96.0134C172.452 96.0134 171.372 94.9934 171.372 93.4574V89.7494H172.068V93.3614C172.068 94.5494 172.872 95.3414 174.084 95.3414C175.296 95.3414 176.088 94.5494 176.088 93.3614V89.7494H176.784V93.4574C176.784 94.9934 175.716 96.0134 174.084 96.0134ZM185.78 89.7494H186.476V95.8694H185.78V94.4534C185.276 95.4014 184.316 96.0134 183.14 96.0134C181.364 96.0134 180.032 94.6334 180.032 92.8094C180.032 90.9854 181.364 89.6054 183.14 89.6054C184.316 89.6054 185.276 90.2174 185.78 91.1654V89.7494ZM183.26 95.3414C184.7 95.3414 185.78 94.2494 185.78 92.8094C185.78 91.3694 184.7 90.2774 183.26 90.2774C181.832 90.2774 180.752 91.3694 180.752 92.8094C180.752 94.2494 181.832 95.3414 183.26 95.3414ZM192.117 96.0134C191.085 96.0134 190.245 95.6054 189.705 95.0414L190.101 94.5374C190.557 95.0534 191.265 95.3774 192.105 95.3774C193.065 95.3774 193.785 94.9454 193.785 94.2734C193.785 93.5294 192.981 93.3134 192.093 93.0974C191.061 92.8334 189.909 92.5334 189.909 91.3214C189.909 90.2054 190.953 89.6054 192.153 89.6054C193.077 89.6054 193.821 89.9654 194.313 90.4574L193.917 90.9734C193.509 90.5294 192.885 90.2414 192.165 90.2414C191.313 90.2414 190.629 90.6374 190.629 91.2734C190.629 92.0294 191.445 92.2454 192.357 92.4614C193.377 92.7134 194.505 93.0014 194.505 94.2014C194.505 95.3414 193.461 96.0134 192.117 96.0134ZM18.924 108.809C18.924 108.905 18.912 109.013 18.9 109.109H13.284C13.428 110.429 14.484 111.365 15.888 111.365C16.884 111.365 17.736 110.885 18.18 110.201L18.672 110.609C18.084 111.473 17.064 112.013 15.864 112.013C13.968 112.013 12.552 110.621 12.552 108.797C12.552 106.973 13.92 105.605 15.744 105.605C17.556 105.605 18.924 106.973 18.924 108.809ZM15.732 106.253C14.424 106.253 13.428 107.177 13.284 108.485H18.192C18.048 107.177 17.04 106.253 15.732 106.253ZM24.1334 112.013C23.1014 112.013 22.2614 111.605 21.7214 111.041L22.1174 110.537C22.5734 111.053 23.2814 111.377 24.1214 111.377C25.0814 111.377 25.8014 110.945 25.8014 110.273C25.8014 109.529 24.9974 109.313 24.1094 109.097C23.0774 108.833 21.9254 108.533 21.9254 107.321C21.9254 106.205 22.9694 105.605 24.1694 105.605C25.0934 105.605 25.8374 105.965 26.3294 106.457L25.9334 106.973C25.5254 106.529 24.9014 106.241 24.1814 106.241C23.3294 106.241 22.6454 106.637 22.6454 107.273C22.6454 108.029 23.4614 108.245 24.3734 108.461C25.3934 108.713 26.5214 109.001 26.5214 110.201C26.5214 111.341 25.4774 112.013 24.1334 112.013ZM32.9398 106.385H30.9838V110.297C30.9838 111.053 31.3918 111.341 32.0638 111.341C32.4238 111.341 32.6878 111.245 32.9398 111.113V111.773C32.6398 111.929 32.3518 112.013 31.9318 112.013C30.8758 112.013 30.2878 111.473 30.2878 110.405V106.385H29.0998V105.749H30.2878V104.045H30.9838V105.749H32.9398V106.385ZM39.1605 105.653H39.3405V106.373H39.1605C37.7565 106.373 36.8565 107.285 36.8565 108.713V111.869H36.1605V105.749H36.8565V107.033C37.3005 106.169 38.1165 105.653 39.1605 105.653ZM47.3558 105.749H48.0518V111.869H47.3558V110.453C46.8518 111.401 45.8918 112.013 44.7158 112.013C42.9398 112.013 41.6078 110.633 41.6078 108.809C41.6078 106.985 42.9398 105.605 44.7158 105.605C45.8918 105.605 46.8518 106.217 47.3558 107.165V105.749ZM44.8358 111.341C46.2758 111.341 47.3558 110.249 47.3558 108.809C47.3558 107.369 46.2758 106.277 44.8358 106.277C43.4078 106.277 42.3278 107.369 42.3278 108.809C42.3278 110.249 43.4078 111.341 44.8358 111.341ZM55.1328 106.385H53.1768V110.297C53.1768 111.053 53.5848 111.341 54.2568 111.341C54.6168 111.341 54.8808 111.245 55.1328 111.113V111.773C54.8328 111.929 54.5448 112.013 54.1248 112.013C53.0688 112.013 52.4808 111.473 52.4808 110.405V106.385H51.2928V105.749H52.4808V104.045H53.1768V105.749H55.1328V106.385ZM60.9095 105.317C61.4615 105.317 61.9335 105.437 62.3255 105.677C62.7255 105.917 63.0295 106.257 63.2375 106.697C63.4535 107.129 63.5615 107.637 63.5615 108.221V108.857H59.1575C59.1735 109.585 59.3575 110.141 59.7095 110.525C60.0695 110.901 60.5695 111.089 61.2095 111.089C61.6175 111.089 61.9775 111.053 62.2895 110.981C62.6095 110.901 62.9375 110.789 63.2735 110.645V111.569C62.9455 111.713 62.6215 111.817 62.3015 111.881C61.9815 111.953 61.6015 111.989 61.1615 111.989C60.5535 111.989 60.0135 111.865 59.5415 111.617C59.0775 111.369 58.7135 111.001 58.4495 110.513C58.1935 110.017 58.0655 109.413 58.0655 108.701C58.0655 107.997 58.1815 107.393 58.4135 106.889C58.6535 106.385 58.9855 105.997 59.4095 105.725C59.8415 105.453 60.3415 105.317 60.9095 105.317ZM60.8975 106.181C60.3935 106.181 59.9935 106.345 59.6975 106.673C59.4095 106.993 59.2375 107.441 59.1815 108.017H62.4575C62.4575 107.649 62.4015 107.329 62.2895 107.057C62.1775 106.785 62.0055 106.573 61.7735 106.421C61.5495 106.261 61.2575 106.181 60.8975 106.181ZM62.6015 102.797C62.5295 102.909 62.4255 103.045 62.2895 103.205C62.1535 103.365 62.0015 103.533 61.8335 103.709C61.6735 103.877 61.5095 104.041 61.3415 104.201C61.1815 104.353 61.0295 104.485 60.8855 104.597H60.1895V104.453C60.3095 104.301 60.4375 104.121 60.5735 103.913C60.7175 103.705 60.8575 103.493 60.9935 103.277C61.1295 103.053 61.2415 102.853 61.3295 102.677H62.6015V102.797ZM70.7789 112.133C71.8949 112.133 72.6629 112.721 72.7349 113.669L72.0149 113.837C72.0029 113.225 71.4629 112.817 70.6589 112.817H68.2469C67.2989 112.817 66.6629 112.277 66.6629 111.473C66.6629 110.933 66.9389 110.429 67.3829 110.189C66.8549 109.709 66.5309 109.025 66.5309 108.245C66.5309 106.745 67.7069 105.605 69.2789 105.605C69.8789 105.605 70.4309 105.773 70.8749 106.073C70.9589 105.437 71.4509 105.029 72.1589 105.029H72.6149V105.677H72.1949C71.7029 105.677 71.3669 105.989 71.3669 106.469V106.505C71.7749 106.961 72.0149 107.561 72.0149 108.245C72.0149 109.745 70.8389 110.873 69.2789 110.873C68.7389 110.873 68.2349 110.741 67.8269 110.501C67.5269 110.669 67.3589 110.981 67.3589 111.305C67.3589 111.809 67.7669 112.133 68.3669 112.133H70.7789ZM67.2509 108.245C67.2509 109.361 68.1269 110.213 69.2789 110.213C70.4309 110.213 71.2949 109.361 71.2949 108.245C71.2949 107.117 70.4309 106.265 69.2789 106.265C68.1149 106.265 67.2509 107.117 67.2509 108.245ZM75.8015 104.309C75.5255 104.309 75.2975 104.093 75.2975 103.805C75.2975 103.529 75.5255 103.313 75.8015 103.313C76.0895 103.313 76.3175 103.529 76.3175 103.805C76.3175 104.093 76.0895 104.309 75.8015 104.309ZM75.4535 111.869V105.749H76.1495V111.869H75.4535ZM85.219 105.749H85.915V111.869H85.219V110.453C84.715 111.401 83.755 112.013 82.579 112.013C80.803 112.013 79.471 110.633 79.471 108.809C79.471 106.985 80.803 105.605 82.579 105.605C83.755 105.605 84.715 106.217 85.219 107.165V105.749ZM82.699 111.341C84.139 111.341 85.219 110.249 85.219 108.809C85.219 107.369 84.139 106.277 82.699 106.277C81.271 106.277 80.191 107.369 80.191 108.809C80.191 110.249 81.271 111.341 82.699 111.341ZM91.5561 112.013C90.5241 112.013 89.6841 111.605 89.1441 111.041L89.5401 110.537C89.9961 111.053 90.7041 111.377 91.5441 111.377C92.5041 111.377 93.2241 110.945 93.2241 110.273C93.2241 109.529 92.4201 109.313 91.5321 109.097C90.5001 108.833 89.3481 108.533 89.3481 107.321C89.3481 106.205 90.3921 105.605 91.5921 105.605C92.5161 105.605 93.2601 105.965 93.7521 106.457L93.3561 106.973C92.9481 106.529 92.3241 106.241 91.6041 106.241C90.7521 106.241 90.0681 106.637 90.0681 107.273C90.0681 108.029 90.8841 108.245 91.7961 108.461C92.8161 108.713 93.9441 109.001 93.9441 110.201C93.9441 111.341 92.9001 112.013 91.5561 112.013ZM105.454 105.605C107.242 105.605 108.574 106.985 108.574 108.809C108.574 110.633 107.242 112.013 105.454 112.013C104.29 112.013 103.318 111.401 102.814 110.453V114.149H102.118V105.749H102.814V107.165C103.318 106.217 104.29 105.605 105.454 105.605ZM105.334 111.341C106.774 111.341 107.854 110.249 107.854 108.809C107.854 107.369 106.774 106.277 105.334 106.277C103.894 106.277 102.814 107.369 102.814 108.809C102.814 110.249 103.894 111.341 105.334 111.341ZM117.239 105.749H117.935V111.869H117.239V110.453C116.735 111.401 115.775 112.013 114.599 112.013C112.823 112.013 111.491 110.633 111.491 108.809C111.491 106.985 112.823 105.605 114.599 105.605C115.775 105.605 116.735 106.217 117.239 107.165V105.749ZM114.719 111.341C116.159 111.341 117.239 110.249 117.239 108.809C117.239 107.369 116.159 106.277 114.719 106.277C113.291 106.277 112.211 107.369 112.211 108.809C112.211 110.249 113.291 111.341 114.719 111.341ZM124.632 105.653H124.812V106.373H124.632C123.228 106.373 122.328 107.285 122.328 108.713V111.869H121.632V105.749H122.328V107.033C122.772 106.169 123.588 105.653 124.632 105.653ZM132.828 105.749H133.524V111.869H132.828V110.453C132.324 111.401 131.364 112.013 130.188 112.013C128.412 112.013 127.08 110.633 127.08 108.809C127.08 106.985 128.412 105.605 130.188 105.605C131.364 105.605 132.324 106.217 132.828 107.165V105.749ZM130.308 111.341C131.748 111.341 132.828 110.249 132.828 108.809C132.828 107.369 131.748 106.277 130.308 106.277C128.88 106.277 127.8 107.369 127.8 108.809C127.8 110.249 128.88 111.341 130.308 111.341ZM147.502 105.749H148.198V111.869H147.502V110.453C146.998 111.401 146.038 112.013 144.862 112.013C143.086 112.013 141.754 110.633 141.754 108.809C141.754 106.985 143.086 105.605 144.862 105.605C146.038 105.605 146.998 106.217 147.502 107.165V105.749ZM144.982 111.341C146.422 111.341 147.502 110.249 147.502 108.809C147.502 107.369 146.422 106.277 144.982 106.277C143.554 106.277 142.474 107.369 142.474 108.809C142.474 110.249 143.554 111.341 144.982 111.341ZM151.895 111.869V103.229H152.591V111.869H151.895ZM159.14 112.013C157.292 112.013 155.9 110.633 155.9 108.809C155.9 106.985 157.292 105.605 159.14 105.605C160.352 105.605 161.372 106.205 161.924 107.141L161.312 107.513C160.892 106.769 160.088 106.277 159.14 106.277C157.7 106.277 156.62 107.369 156.62 108.809C156.62 110.249 157.7 111.341 159.14 111.341C160.088 111.341 160.892 110.849 161.312 110.105L161.924 110.477C161.372 111.413 160.352 112.013 159.14 112.013ZM170.48 105.749H171.176V111.869H170.48V110.453C169.976 111.401 169.016 112.013 167.84 112.013C166.064 112.013 164.732 110.633 164.732 108.809C164.732 106.985 166.064 105.605 167.84 105.605C169.016 105.605 169.976 106.217 170.48 107.165V105.749ZM167.96 111.341C169.4 111.341 170.48 110.249 170.48 108.809C170.48 107.369 169.4 106.277 167.96 106.277C166.532 106.277 165.452 107.369 165.452 108.809C165.452 110.249 166.532 111.341 167.96 111.341ZM177.945 105.605C179.481 105.605 180.513 106.613 180.513 108.161V111.869H179.817V108.365C179.817 107.105 178.989 106.277 177.741 106.277C176.445 106.277 175.569 107.117 175.569 108.389V111.869H174.873V105.749H175.569V106.901C176.025 106.073 176.865 105.605 177.945 105.605ZM186.79 111.989C186.222 111.989 185.714 111.873 185.266 111.641C184.826 111.409 184.478 111.049 184.222 110.561C183.974 110.073 183.85 109.449 183.85 108.689C183.85 107.897 183.982 107.253 184.246 106.757C184.51 106.261 184.866 105.897 185.314 105.665C185.77 105.433 186.286 105.317 186.862 105.317C187.19 105.317 187.506 105.353 187.81 105.425C188.114 105.489 188.362 105.569 188.554 105.665L188.23 106.541C188.038 106.469 187.814 106.401 187.558 106.337C187.302 106.273 187.062 106.241 186.838 106.241C186.406 106.241 186.05 106.333 185.77 106.517C185.49 106.701 185.282 106.973 185.146 107.333C185.01 107.693 184.942 108.141 184.942 108.677C184.942 109.189 185.01 109.625 185.146 109.985C185.282 110.345 185.486 110.617 185.758 110.801C186.03 110.985 186.37 111.077 186.778 111.077C187.13 111.077 187.438 111.041 187.702 110.969C187.974 110.897 188.222 110.809 188.446 110.705V111.641C188.23 111.753 187.99 111.837 187.726 111.893C187.47 111.957 187.158 111.989 186.79 111.989ZM187.774 113.537C187.774 113.793 187.706 114.009 187.57 114.185C187.442 114.369 187.246 114.509 186.982 114.605C186.718 114.701 186.39 114.749 185.998 114.749C185.878 114.749 185.762 114.741 185.65 114.725C185.546 114.717 185.462 114.705 185.398 114.689V114.029C185.47 114.045 185.566 114.057 185.686 114.065C185.806 114.081 185.922 114.089 186.034 114.089C186.322 114.089 186.542 114.049 186.694 113.969C186.846 113.897 186.922 113.761 186.922 113.561C186.922 113.353 186.814 113.201 186.598 113.105C186.39 113.009 186.134 112.941 185.83 112.901L186.346 111.869H187.042L186.73 112.505C186.922 112.545 187.098 112.605 187.258 112.685C187.418 112.773 187.542 112.885 187.63 113.021C187.726 113.157 187.774 113.329 187.774 113.537ZM197.067 105.749H197.763V111.869H197.067V110.453C196.563 111.401 195.603 112.013 194.427 112.013C192.651 112.013 191.319 110.633 191.319 108.809C191.319 106.985 192.651 105.605 194.427 105.605C195.603 105.605 196.563 106.217 197.067 107.165V105.749ZM194.547 111.341C195.987 111.341 197.067 110.249 197.067 108.809C197.067 107.369 195.987 106.277 194.547 106.277C193.119 106.277 192.039 107.369 192.039 108.809C192.039 110.249 193.119 111.341 194.547 111.341ZM204.46 105.653H204.64V106.373H204.46C203.056 106.373 202.156 107.285 202.156 108.713V111.869H201.46V105.749H202.156V107.033C202.6 106.169 203.416 105.653 204.46 105.653ZM15.792 128.013C13.944 128.013 12.552 126.633 12.552 124.809C12.552 122.985 13.944 121.605 15.792 121.605C17.628 121.605 19.02 122.985 19.02 124.809C19.02 126.633 17.628 128.013 15.792 128.013ZM15.792 127.341C17.232 127.341 18.3 126.249 18.3 124.809C18.3 123.369 17.232 122.277 15.792 122.277C14.352 122.277 13.272 123.369 13.272 124.809C13.272 126.249 14.352 127.341 15.792 127.341ZM24.2623 128.013C23.2303 128.013 22.3903 127.605 21.8503 127.041L22.2463 126.537C22.7023 127.053 23.4103 127.377 24.2503 127.377C25.2103 127.377 25.9303 126.945 25.9303 126.273C25.9303 125.529 25.1263 125.313 24.2383 125.097C23.2063 124.833 22.0543 124.533 22.0543 123.321C22.0543 122.205 23.0983 121.605 24.2983 121.605C25.2223 121.605 25.9663 121.965 26.4583 122.457L26.0623 122.973C25.6543 122.529 25.0303 122.241 24.3103 122.241C23.4583 122.241 22.7743 122.637 22.7743 123.273C22.7743 124.029 23.5903 124.245 24.5023 124.461C25.5223 124.713 26.6503 125.001 26.6503 126.201C26.6503 127.341 25.6063 128.013 24.2623 128.013ZM42.0966 121.605C43.5126 121.605 44.4366 122.529 44.4366 123.933V127.869H43.7406V124.125C43.7406 123.009 43.0206 122.277 41.9046 122.277C40.7526 122.277 39.9846 123.021 39.9846 124.149V127.869H39.2886V124.125C39.2886 123.009 38.5566 122.277 37.4526 122.277C36.3006 122.277 35.5206 123.021 35.5206 124.149V127.869H34.8246V121.749H35.5206V122.757C35.9526 122.025 36.6966 121.605 37.6566 121.605C38.6886 121.605 39.4686 122.109 39.8046 122.949C40.2126 122.097 41.0286 121.605 42.0966 121.605ZM54.0381 124.809C54.0381 124.905 54.0261 125.013 54.0141 125.109H48.3981C48.5421 126.429 49.5981 127.365 51.0021 127.365C51.9981 127.365 52.8501 126.885 53.2941 126.201L53.7861 126.609C53.1981 127.473 52.1781 128.013 50.9781 128.013C49.0821 128.013 47.6661 126.621 47.6661 124.797C47.6661 122.973 49.0341 121.605 50.8581 121.605C52.6701 121.605 54.0381 122.973 54.0381 124.809ZM50.8461 122.253C49.5381 122.253 48.5421 123.177 48.3981 124.485H53.3061C53.1621 123.177 52.1541 122.253 50.8461 122.253ZM57.3035 127.869V119.229H57.9995V127.869H57.3035ZM64.777 121.605C66.313 121.605 67.345 122.613 67.345 124.161V127.869H66.649V124.365C66.649 123.105 65.821 122.277 64.573 122.277C63.277 122.277 62.401 123.117 62.401 124.389V127.869H61.705V119.229H62.401V122.925C62.857 122.085 63.697 121.605 64.777 121.605ZM73.8139 128.013C71.9659 128.013 70.5739 126.633 70.5739 124.809C70.5739 122.985 71.9659 121.605 73.8139 121.605C75.6499 121.605 77.0419 122.985 77.0419 124.809C77.0419 126.633 75.6499 128.013 73.8139 128.013ZM73.8139 127.341C75.2539 127.341 76.3219 126.249 76.3219 124.809C76.3219 123.369 75.2539 122.277 73.8139 122.277C72.3739 122.277 71.2939 123.369 71.2939 124.809C71.2939 126.249 72.3739 127.341 73.8139 127.341ZM83.3402 121.653H83.5202V122.373H83.3402C81.9362 122.373 81.0362 123.285 81.0362 124.713V127.869H80.3402V121.749H81.0362V123.033C81.4802 122.169 82.2962 121.653 83.3402 121.653ZM92.1474 124.809C92.1474 124.905 92.1354 125.013 92.1234 125.109H86.5074C86.6514 126.429 87.7074 127.365 89.1114 127.365C90.1074 127.365 90.9594 126.885 91.4034 126.201L91.8954 126.609C91.3074 127.473 90.2874 128.013 89.0874 128.013C87.1914 128.013 85.7754 126.621 85.7754 124.797C85.7754 122.973 87.1434 121.605 88.9674 121.605C90.7794 121.605 92.1474 122.973 92.1474 124.809ZM88.9554 122.253C87.6474 122.253 86.6514 123.177 86.5074 124.485H91.4154C91.2714 123.177 90.2634 122.253 88.9554 122.253ZM97.3568 128.013C96.3248 128.013 95.4848 127.605 94.9448 127.041L95.3408 126.537C95.7968 127.053 96.5048 127.377 97.3448 127.377C98.3048 127.377 99.0248 126.945 99.0248 126.273C99.0248 125.529 98.2208 125.313 97.3328 125.097C96.3008 124.833 95.1488 124.533 95.1488 123.321C95.1488 122.205 96.1928 121.605 97.3928 121.605C98.3168 121.605 99.0608 121.965 99.5528 122.457L99.1568 122.973C98.7488 122.529 98.1248 122.241 97.4048 122.241C96.5528 122.241 95.8688 122.637 95.8688 123.273C95.8688 124.029 96.6848 124.245 97.5968 124.461C98.6168 124.713 99.7448 125.001 99.7448 126.201C99.7448 127.341 98.7008 128.013 97.3568 128.013ZM110.919 121.653H111.099V122.373H110.919C109.515 122.373 108.615 123.285 108.615 124.713V127.869H107.919V121.749H108.615V123.033C109.059 122.169 109.875 121.653 110.919 121.653ZM119.726 124.809C119.726 124.905 119.714 125.013 119.702 125.109H114.086C114.23 126.429 115.286 127.365 116.69 127.365C117.686 127.365 118.538 126.885 118.982 126.201L119.474 126.609C118.886 127.473 117.866 128.013 116.666 128.013C114.77 128.013 113.354 126.621 113.354 124.797C113.354 122.973 114.722 121.605 116.546 121.605C118.358 121.605 119.726 122.973 119.726 124.809ZM116.534 122.253C115.226 122.253 114.23 123.177 114.086 124.485H118.994C118.85 123.177 117.842 122.253 116.534 122.253ZM124.936 128.013C123.904 128.013 123.064 127.605 122.524 127.041L122.92 126.537C123.376 127.053 124.084 127.377 124.924 127.377C125.884 127.377 126.604 126.945 126.604 126.273C126.604 125.529 125.8 125.313 124.912 125.097C123.88 124.833 122.728 124.533 122.728 123.321C122.728 122.205 123.772 121.605 124.972 121.605C125.896 121.605 126.64 121.965 127.132 122.457L126.736 122.973C126.328 122.529 125.704 122.241 124.984 122.241C124.132 122.241 123.448 122.637 123.448 123.273C123.448 124.029 124.264 124.245 125.176 124.461C126.196 124.713 127.324 125.001 127.324 126.201C127.324 127.341 126.28 128.013 124.936 128.013ZM133.221 128.013C131.589 128.013 130.509 126.993 130.509 125.457V121.749H131.205V125.361C131.205 126.549 132.009 127.341 133.221 127.341C134.433 127.341 135.225 126.549 135.225 125.361V121.749H135.921V125.457C135.921 126.993 134.853 128.013 133.221 128.013ZM139.553 127.869V119.229H140.249V127.869H139.553ZM147.338 122.385H145.382V126.297C145.382 127.053 145.79 127.341 146.462 127.341C146.822 127.341 147.086 127.245 147.338 127.113V127.773C147.038 127.929 146.75 128.013 146.33 128.013C145.274 128.013 144.686 127.473 144.686 126.405V122.385H143.498V121.749H144.686V120.045H145.382V121.749H147.338V122.385ZM155.63 121.749H156.326V127.869H155.63V126.453C155.126 127.401 154.166 128.013 152.99 128.013C151.214 128.013 149.882 126.633 149.882 124.809C149.882 122.985 151.214 121.605 152.99 121.605C154.166 121.605 155.126 122.217 155.63 123.165V121.749ZM153.11 127.341C154.55 127.341 155.63 126.249 155.63 124.809C155.63 123.369 154.55 122.277 153.11 122.277C151.682 122.277 150.602 123.369 150.602 124.809C150.602 126.249 151.682 127.341 153.11 127.341ZM165.387 119.229H166.083V127.869H165.387V126.453C164.883 127.401 163.923 128.013 162.747 128.013C160.971 128.013 159.639 126.633 159.639 124.809C159.639 122.985 160.971 121.605 162.747 121.605C163.923 121.605 164.883 122.217 165.387 123.165V119.229ZM162.867 127.341C164.307 127.341 165.387 126.249 165.387 124.809C165.387 123.369 164.307 122.277 162.867 122.277C161.439 122.277 160.359 123.369 160.359 124.809C160.359 126.249 161.439 127.341 162.867 127.341ZM172.624 128.013C170.776 128.013 169.384 126.633 169.384 124.809C169.384 122.985 170.776 121.605 172.624 121.605C174.46 121.605 175.852 122.985 175.852 124.809C175.852 126.633 174.46 128.013 172.624 128.013ZM172.624 127.341C174.064 127.341 175.132 126.249 175.132 124.809C175.132 123.369 174.064 122.277 172.624 122.277C171.184 122.277 170.104 123.369 170.104 124.809C170.104 126.249 171.184 127.341 172.624 127.341ZM181.094 128.013C180.062 128.013 179.222 127.605 178.682 127.041L179.078 126.537C179.534 127.053 180.242 127.377 181.082 127.377C182.042 127.377 182.762 126.945 182.762 126.273C182.762 125.529 181.958 125.313 181.07 125.097C180.038 124.833 178.886 124.533 178.886 123.321C178.886 122.205 179.93 121.605 181.13 121.605C182.054 121.605 182.798 121.965 183.29 122.457L182.894 122.973C182.486 122.529 181.862 122.241 181.142 122.241C180.29 122.241 179.606 122.637 179.606 123.273C179.606 124.029 180.422 124.245 181.334 124.461C182.354 124.713 183.482 125.001 183.482 126.201C183.482 127.341 182.438 128.013 181.094 128.013ZM197.633 124.809C197.633 124.905 197.621 125.013 197.609 125.109H191.993C192.137 126.429 193.193 127.365 194.597 127.365C195.593 127.365 196.445 126.885 196.889 126.201L197.381 126.609C196.793 127.473 195.773 128.013 194.573 128.013C192.677 128.013 191.261 126.621 191.261 124.797C191.261 122.973 192.629 121.605 194.453 121.605C196.265 121.605 197.633 122.973 197.633 124.809ZM194.441 122.253C193.133 122.253 192.137 123.177 191.993 124.485H196.901C196.757 123.177 195.749 122.253 194.441 122.253ZM208.17 121.605C209.586 121.605 210.51 122.529 210.51 123.933V127.869H209.814V124.125C209.814 123.009 209.094 122.277 207.978 122.277C206.826 122.277 206.058 123.021 206.058 124.149V127.869H205.362V124.125C205.362 123.009 204.63 122.277 203.526 122.277C202.374 122.277 201.594 123.021 201.594 124.149V127.869H200.898V121.749H201.594V122.757C202.026 122.025 202.77 121.605 203.73 121.605C204.762 121.605 205.542 122.109 205.878 122.949C206.286 122.097 207.102 121.605 208.17 121.605ZM14.892 144.013C13.86 144.013 13.02 143.605 12.48 143.041L12.876 142.537C13.332 143.053 14.04 143.377 14.88 143.377C15.84 143.377 16.56 142.945 16.56 142.273C16.56 141.529 15.756 141.313 14.868 141.097C13.836 140.833 12.684 140.533 12.684 139.321C12.684 138.205 13.728 137.605 14.928 137.605C15.852 137.605 16.596 137.965 17.088 138.457L16.692 138.973C16.284 138.529 15.66 138.241 14.94 138.241C14.088 138.241 13.404 138.637 13.404 139.273C13.404 140.029 14.22 140.245 15.132 140.461C16.152 140.713 17.28 141.001 17.28 142.201C17.28 143.341 16.236 144.013 14.892 144.013ZM23.1771 144.013C21.5451 144.013 20.4651 142.993 20.4651 141.457V137.749H21.1611V141.361C21.1611 142.549 21.9651 143.341 23.1771 143.341C24.3891 143.341 25.1811 142.549 25.1811 141.361V137.749H25.8771V141.457C25.8771 142.993 24.8091 144.013 23.1771 144.013ZM34.8729 137.749H35.5689V143.869H34.8729V142.453C34.3689 143.401 33.4089 144.013 32.2329 144.013C30.4569 144.013 29.1249 142.633 29.1249 140.809C29.1249 138.985 30.4569 137.605 32.2329 137.605C33.4089 137.605 34.3689 138.217 34.8729 139.165V137.749ZM32.3529 143.341C33.7929 143.341 34.8729 142.249 34.8729 140.809C34.8729 139.369 33.7929 138.277 32.3529 138.277C30.9249 138.277 29.8449 139.369 29.8449 140.809C29.8449 142.249 30.9249 143.341 32.3529 143.341ZM41.21 144.013C40.178 144.013 39.338 143.605 38.798 143.041L39.194 142.537C39.65 143.053 40.358 143.377 41.198 143.377C42.158 143.377 42.878 142.945 42.878 142.273C42.878 141.529 42.074 141.313 41.186 141.097C40.154 140.833 39.002 140.533 39.002 139.321C39.002 138.205 40.046 137.605 41.246 137.605C42.17 137.605 42.914 137.965 43.406 138.457L43.01 138.973C42.602 138.529 41.978 138.241 41.258 138.241C40.406 138.241 39.722 138.637 39.722 139.273C39.722 140.029 40.538 140.245 41.45 140.461C42.47 140.713 43.598 141.001 43.598 142.201C43.598 143.341 42.554 144.013 41.21 144.013ZM54.6162 144.013C52.7682 144.013 51.3762 142.633 51.3762 140.809C51.3762 138.985 52.7682 137.605 54.6162 137.605C55.8282 137.605 56.8482 138.205 57.4002 139.141L56.7882 139.513C56.3682 138.769 55.5642 138.277 54.6162 138.277C53.1762 138.277 52.0962 139.369 52.0962 140.809C52.0962 142.249 53.1762 143.341 54.6162 143.341C55.5642 143.341 56.3682 142.849 56.7882 142.105L57.4002 142.477C56.8482 143.413 55.8282 144.013 54.6162 144.013ZM65.9557 137.749H66.6517V143.869H65.9557V142.453C65.4517 143.401 64.4917 144.013 63.3157 144.013C61.5397 144.013 60.2077 142.633 60.2077 140.809C60.2077 138.985 61.5397 137.605 63.3157 137.605C64.4917 137.605 65.4517 138.217 65.9557 139.165V137.749ZM63.4357 143.341C64.8757 143.341 65.9557 142.249 65.9557 140.809C65.9557 139.369 64.8757 138.277 63.4357 138.277C62.0077 138.277 60.9277 139.369 60.9277 140.809C60.9277 142.249 62.0077 143.341 63.4357 143.341ZM77.6208 137.605C79.0368 137.605 79.9608 138.529 79.9608 139.933V143.869H79.2648V140.125C79.2648 139.009 78.5448 138.277 77.4288 138.277C76.2768 138.277 75.5088 139.021 75.5088 140.149V143.869H74.8128V140.125C74.8128 139.009 74.0808 138.277 72.9768 138.277C71.8248 138.277 71.0448 139.021 71.0448 140.149V143.869H70.3488V137.749H71.0448V138.757C71.4768 138.025 72.2208 137.605 73.1808 137.605C74.2128 137.605 74.9928 138.109 75.3288 138.949C75.7368 138.097 76.5528 137.605 77.6208 137.605ZM86.9223 137.605C88.7103 137.605 90.0423 138.985 90.0423 140.809C90.0423 142.633 88.7103 144.013 86.9223 144.013C85.7583 144.013 84.7863 143.401 84.2823 142.453V146.149H83.5863V137.749H84.2823V139.165C84.7863 138.217 85.7583 137.605 86.9223 137.605ZM86.8023 143.341C88.2423 143.341 89.3223 142.249 89.3223 140.809C89.3223 139.369 88.2423 138.277 86.8023 138.277C85.3623 138.277 84.2823 139.369 84.2823 140.809C84.2823 142.249 85.3623 143.341 86.8023 143.341ZM98.7073 137.749H99.4033V143.869H98.7073V142.453C98.2033 143.401 97.2433 144.013 96.0673 144.013C94.2913 144.013 92.9593 142.633 92.9593 140.809C92.9593 138.985 94.2913 137.605 96.0673 137.605C97.2433 137.605 98.2033 138.217 98.7073 139.165V137.749ZM96.1873 143.341C97.6273 143.341 98.7073 142.249 98.7073 140.809C98.7073 139.369 97.6273 138.277 96.1873 138.277C94.7593 138.277 93.6793 139.369 93.6793 140.809C93.6793 142.249 94.7593 143.341 96.1873 143.341ZM106.172 137.605C107.708 137.605 108.74 138.613 108.74 140.161V143.869H108.044V140.365C108.044 139.105 107.216 138.277 105.968 138.277C104.672 138.277 103.796 139.117 103.796 140.389V143.869H103.1V137.749H103.796V138.901C104.252 138.073 105.092 137.605 106.172 137.605ZM115.437 137.605C116.973 137.605 118.005 138.613 118.005 140.161V143.869H117.309V140.365C117.309 139.105 116.481 138.277 115.233 138.277C113.937 138.277 113.061 139.117 113.061 140.389V143.869H112.365V135.229H113.061V138.925C113.517 138.085 114.357 137.605 115.437 137.605ZM126.994 137.749H127.69V143.869H126.994V142.453C126.49 143.401 125.53 144.013 124.354 144.013C122.578 144.013 121.246 142.633 121.246 140.809C121.246 138.985 122.578 137.605 124.354 137.605C125.53 137.605 126.49 138.217 126.994 139.165V137.749ZM124.474 143.341C125.914 143.341 126.994 142.249 126.994 140.809C126.994 139.369 125.914 138.277 124.474 138.277C123.046 138.277 121.966 139.369 121.966 140.809C121.966 142.249 123.046 143.341 124.474 143.341ZM133.331 144.013C132.299 144.013 131.459 143.605 130.919 143.041L131.315 142.537C131.771 143.053 132.479 143.377 133.319 143.377C134.279 143.377 134.999 142.945 134.999 142.273C134.999 141.529 134.195 141.313 133.307 141.097C132.275 140.833 131.123 140.533 131.123 139.321C131.123 138.205 132.167 137.605 133.367 137.605C134.291 137.605 135.035 137.965 135.527 138.457L135.131 138.973C134.723 138.529 134.099 138.241 133.379 138.241C132.527 138.241 131.843 138.637 131.843 139.273C131.843 140.029 132.659 140.245 133.571 140.461C134.591 140.713 135.719 141.001 135.719 142.201C135.719 143.341 134.675 144.013 133.331 144.013ZM139.372 143.929C139.048 143.929 138.808 143.689 138.808 143.365C138.808 143.041 139.048 142.801 139.372 142.801C139.696 142.801 139.948 143.041 139.948 143.365C139.948 143.689 139.696 143.929 139.372 143.929Z" fill="black"/>
</g>
<defs>
<filter id="filter0_b_107_101" x="-12.0302" y="-10.3116" width="257.789" height="189.905" filterUnits="userSpaceOnUse" color-interpolation-filters="sRGB">
<feFlood flood-opacity="0" result="BackgroundImageFix"/>
<feGaussianBlur in="BackgroundImageFix" stdDeviation="6.01508"/>
<feComposite in2="SourceAlpha" operator="in" result="effect1_backgroundBlur_107_101"/>
<feBlend mode="normal" in="SourceGraphic" in2="effect1_backgroundBlur_107_101" result="shape"/>
</filter>
</defs>
</svg>
