<svg width="234" height="171" viewBox="0 0 234 171" fill="none" xmlns="http://www.w3.org/2000/svg">
<g filter="url(#filter0_b_107_102)">
<g clip-path="url(#clip0_107_102)">
<rect y="1.7186" width="233.729" height="165.844" rx="20" fill="white" fill-opacity="0.2"/>
<path d="M22.956 20.9486C29.655 20.9486 34.671 25.8326 34.671 32.3336C34.671 38.8346 29.655 43.7186 22.956 43.7186H13.881V20.9486H22.956ZM22.824 37.7786C25.893 37.7786 28.203 35.4356 28.203 32.3336C28.203 29.2316 25.893 26.8886 22.824 26.8886H20.184V37.7786H22.824ZM50.2733 26.8886H56.2133V43.7186H50.2733V42.6626C49.1183 43.5866 47.6993 44.1146 46.0493 44.1146C41.4953 44.1146 38.0963 40.3196 38.0963 35.3036C38.0963 30.2876 41.4953 26.4926 46.0493 26.4926C47.6993 26.4926 49.1183 27.0206 50.2733 27.9446V26.8886ZM47.2373 38.3726C48.9863 38.3726 50.2733 37.0526 50.2733 35.3036C50.2733 33.5546 48.9863 32.2346 47.2373 32.2346C45.4883 32.2346 44.2013 33.5546 44.2013 35.3036C44.2013 37.0526 45.4883 38.3726 47.2373 38.3726ZM72.4838 19.9586H78.4238V43.7186H72.4838V42.6626C71.3288 43.5866 69.9098 44.1146 68.2598 44.1146C63.7058 44.1146 60.3068 40.3196 60.3068 35.3036C60.3068 30.2876 63.7058 26.4926 68.2598 26.4926C69.9098 26.4926 71.3288 27.0206 72.4838 27.9446V19.9586ZM69.4478 38.3726C71.1968 38.3726 72.4838 37.0526 72.4838 35.3036C72.4838 33.5546 71.1968 32.2346 69.4478 32.2346C67.6988 32.2346 66.4118 33.5546 66.4118 35.3036C66.4118 37.0526 67.6988 38.3726 69.4478 38.3726ZM91.5594 44.1146C86.3454 44.1146 82.4184 40.3196 82.4184 35.3036C82.4184 30.2876 86.3454 26.4926 91.5594 26.4926C96.7734 26.4926 100.7 30.2876 100.7 35.3036C100.7 40.3196 96.7734 44.1146 91.5594 44.1146ZM91.5594 38.3726C93.3084 38.3726 94.5954 37.0526 94.5954 35.3036C94.5954 33.5546 93.3084 32.2346 91.5594 32.2346C89.8104 32.2346 88.5234 33.5546 88.5234 35.3036C88.5234 37.0526 89.8104 38.3726 91.5594 38.3726ZM110.855 44.1146C107.489 44.1146 105.113 42.8936 103.397 41.6396L105.938 38.0096C107.291 38.9666 108.776 39.6596 110.624 39.6596C111.845 39.6596 112.637 39.3626 112.637 38.8016C112.637 38.1746 111.647 37.9436 110.195 37.6466C107.621 37.1186 103.925 36.3266 103.925 32.1686C103.925 28.3406 107.192 26.4926 111.251 26.4926C114.386 26.4926 116.564 27.5486 118.214 28.6376L115.673 32.2676C114.32 31.5086 113.033 30.9476 111.482 30.9476C110.558 30.9476 109.766 31.1456 109.766 31.6736C109.766 32.2676 110.756 32.4986 112.142 32.7626C114.716 33.2576 118.478 34.0826 118.478 38.2406C118.478 42.1016 115.145 44.1146 110.855 44.1146ZM20.184 71.7786H29.787V77.7186H13.881V54.9486H29.622V60.8886H20.184V63.2976H28.566V69.2376H20.184V71.7786ZM40.3558 78.1146C36.9898 78.1146 34.6138 76.8936 32.8978 75.6396L35.4388 72.0096C36.7918 72.9666 38.2768 73.6596 40.1248 73.6596C41.3458 73.6596 42.1378 73.3626 42.1378 72.8016C42.1378 72.1746 41.1478 71.9436 39.6958 71.6466C37.1218 71.1186 33.4258 70.3266 33.4258 66.1686C33.4258 62.3406 36.6928 60.4926 40.7518 60.4926C43.8868 60.4926 46.0648 61.5486 47.7148 62.6376L45.1738 66.2676C43.8208 65.5086 42.5338 64.9476 40.9828 64.9476C40.0588 64.9476 39.2668 65.1456 39.2668 65.6736C39.2668 66.2676 40.2568 66.4986 41.6428 66.7626C44.2168 67.2576 47.9788 68.0826 47.9788 72.2406C47.9788 76.1016 44.6458 78.1146 40.3558 78.1146ZM62.7146 66.3006H58.7876V70.6896C58.7876 71.6796 59.3486 72.3726 60.6026 72.3726C61.3946 72.3726 62.1206 72.1086 62.7146 71.8116V77.3556C61.6916 77.8836 60.6356 78.1146 59.3156 78.1146C54.7616 78.1146 52.8476 75.3426 52.8476 71.6796V66.3006H50.6036V60.8886H52.8476V56.9286H58.7876V60.8886H62.7146V66.3006ZM76.8053 60.6246H77.6303V66.7296H76.8053C74.2313 66.7296 72.9443 68.0826 72.9443 70.1946V77.7186H67.0043V60.8886H72.9443V62.3076C74.0003 61.2516 75.2873 60.6246 76.8053 60.6246ZM92.5417 60.8886H98.4817V77.7186H92.5417V76.6626C91.3867 77.5866 89.9677 78.1146 88.3177 78.1146C83.7637 78.1146 80.3647 74.3196 80.3647 69.3036C80.3647 64.2876 83.7637 60.4926 88.3177 60.4926C89.9677 60.4926 91.3867 61.0206 92.5417 61.9446V60.8886ZM89.5057 72.3726C91.2547 72.3726 92.5417 71.0526 92.5417 69.3036C92.5417 67.5546 91.2547 66.2346 89.5057 66.2346C87.7567 66.2346 86.4697 67.5546 86.4697 69.3036C86.4697 71.0526 87.7567 72.3726 89.5057 72.3726ZM114.554 66.3006H110.627V70.6896C110.627 71.6796 111.188 72.3726 112.442 72.3726C113.234 72.3726 113.96 72.1086 114.554 71.8116V77.3556C113.531 77.8836 112.475 78.1146 111.155 78.1146C106.601 78.1146 104.687 75.3426 104.687 71.6796V66.3006H102.443V60.8886H104.687V56.9286H110.627V60.8886H114.554V66.3006ZM127.193 59.3706C128.865 59.3706 130.295 59.6896 131.483 60.3276C132.693 60.9656 133.628 61.8896 134.288 63.0996C134.948 64.3096 135.278 65.7946 135.278 67.5546V69.9306H123.662C123.706 71.3166 124.113 72.4056 124.883 73.1976C125.675 73.9896 126.764 74.3856 128.15 74.3856C129.316 74.3856 130.372 74.2756 131.318 74.0556C132.264 73.8136 133.243 73.4506 134.255 72.9666V76.7616C133.375 77.2016 132.44 77.5206 131.45 77.7186C130.482 77.9386 129.305 78.0486 127.919 78.0486C126.115 78.0486 124.52 77.7186 123.134 77.0586C121.748 76.3766 120.659 75.3536 119.867 73.9896C119.075 72.6256 118.679 70.9096 118.679 68.8416C118.679 66.7296 119.031 64.9806 119.735 63.5946C120.461 62.1866 121.462 61.1306 122.738 60.4266C124.014 59.7226 125.499 59.3706 127.193 59.3706ZM127.226 62.8686C126.28 62.8686 125.488 63.1766 124.85 63.7926C124.234 64.4086 123.871 65.3656 123.761 66.6636H130.658C130.658 65.9376 130.526 65.2886 130.262 64.7166C130.02 64.1446 129.646 63.6936 129.14 63.3636C128.634 63.0336 127.996 62.8686 127.226 62.8686ZM133.925 52.7706C133.617 53.0786 133.21 53.4526 132.704 53.8926C132.198 54.3326 131.648 54.7946 131.054 55.2786C130.482 55.7626 129.91 56.2246 129.338 56.6646C128.788 57.0826 128.304 57.4346 127.886 57.7206H124.619V57.2916C124.971 56.8736 125.378 56.3896 125.84 55.8396C126.324 55.2676 126.797 54.6846 127.259 54.0906C127.721 53.4746 128.106 52.9246 128.414 52.4406H133.925V52.7706ZM150.749 77.1906C154.28 77.1906 156.821 79.2036 157.613 82.6686L151.508 84.3846C151.343 83.4936 150.617 82.9326 149.594 82.9326H144.875C141.377 82.9326 139.067 80.8866 139.067 77.8836C139.067 75.9696 139.991 74.1216 141.509 73.1976C140.156 71.8776 139.331 70.0626 139.331 67.9836C139.331 63.6936 142.829 60.4926 147.482 60.4926C148.637 60.4926 149.693 60.6906 150.65 61.0536C151.244 59.1396 153.059 57.9516 155.501 57.9516H156.986V63.4296H155.798C155.204 63.4296 154.709 63.6606 154.511 64.0896C155.237 65.2116 155.633 66.5316 155.633 67.9836C155.633 72.2736 152.102 75.4746 147.482 75.4746C146.888 75.4746 146.294 75.4086 145.733 75.3096C145.271 75.5736 145.007 75.9696 145.007 76.3656C145.007 76.8606 145.436 77.1906 146.063 77.1906H150.749ZM147.482 66.1026C146.294 66.1026 145.436 66.8946 145.436 67.9836C145.436 69.0726 146.294 69.8646 147.482 69.8646C148.637 69.8646 149.528 69.0726 149.528 67.9836C149.528 66.8946 148.637 66.1026 147.482 66.1026ZM163.302 59.4366C161.256 59.4366 159.705 57.9186 159.705 55.8726C159.705 53.8266 161.256 52.3086 163.302 52.3086C165.348 52.3086 166.899 53.8266 166.899 55.8726C166.899 57.9186 165.348 59.4366 163.302 59.4366ZM160.332 77.7186V60.8886H166.272V77.7186H160.332ZM179.415 78.1146C174.201 78.1146 170.274 74.3196 170.274 69.3036C170.274 64.2876 174.201 60.4926 179.415 60.4926C182.814 60.4926 185.685 62.1096 187.236 64.6506L182.088 67.7856C181.593 66.8616 180.603 66.2346 179.415 66.2346C177.666 66.2346 176.379 67.5546 176.379 69.3036C176.379 71.0526 177.666 72.3726 179.415 72.3726C180.603 72.3726 181.593 71.7456 182.088 70.8216L187.236 73.9566C185.685 76.4976 182.814 78.1146 179.415 78.1146ZM198.468 78.1146C193.254 78.1146 189.327 74.3196 189.327 69.3036C189.327 64.2876 193.254 60.4926 198.468 60.4926C203.682 60.4926 207.609 64.2876 207.609 69.3036C207.609 74.3196 203.682 78.1146 198.468 78.1146ZM198.468 72.3726C200.217 72.3726 201.504 71.0526 201.504 69.3036C201.504 67.5546 200.217 66.2346 198.468 66.2346C196.719 66.2346 195.432 67.5546 195.432 69.3036C195.432 71.0526 196.719 72.3726 198.468 72.3726ZM217.763 78.1146C214.397 78.1146 212.021 76.8936 210.305 75.6396L212.846 72.0096C214.199 72.9666 215.684 73.6596 217.532 73.6596C218.753 73.6596 219.545 73.3626 219.545 72.8016C219.545 72.1746 218.555 71.9436 217.103 71.6466C214.529 71.1186 210.833 70.3266 210.833 66.1686C210.833 62.3406 214.1 60.4926 218.159 60.4926C221.294 60.4926 223.472 61.5486 225.122 62.6376L222.581 66.2676C221.228 65.5086 219.941 64.9476 218.39 64.9476C217.466 64.9476 216.674 65.1456 216.674 65.6736C216.674 66.2676 217.664 66.4986 219.05 66.7626C221.624 67.2576 225.386 68.0826 225.386 72.2406C225.386 76.1016 222.053 78.1146 217.763 78.1146Z" fill="black"/>
<path d="M13.8 95.1734H18.456V95.8694H13.068V87.5894H18.396V88.2854H13.8V91.3574H18V92.0534H13.8V95.1734ZM27.2616 95.8694H26.3976L24.3096 93.2414L22.2216 95.8694H21.3696L23.8296 92.7974L21.4056 89.7494H22.2576L24.3216 92.3414L26.3736 89.7494H27.2256L24.8016 92.7974L27.2616 95.8694ZM33.8176 89.6054C35.6056 89.6054 36.9376 90.9854 36.9376 92.8094C36.9376 94.6334 35.6056 96.0134 33.8176 96.0134C32.6536 96.0134 31.6816 95.4014 31.1776 94.4534V98.1494H30.4816V89.7494H31.1776V91.1654C31.6816 90.2174 32.6536 89.6054 33.8176 89.6054ZM33.6976 95.3414C35.1376 95.3414 36.2176 94.2494 36.2176 92.8094C36.2176 91.3694 35.1376 90.2774 33.6976 90.2774C32.2576 90.2774 31.1776 91.3694 31.1776 92.8094C31.1776 94.2494 32.2576 95.3414 33.6976 95.3414ZM40.2386 95.8694V87.2294H40.9346V95.8694H40.2386ZM47.4842 96.0134C45.6362 96.0134 44.2442 94.6334 44.2442 92.8094C44.2442 90.9854 45.6362 89.6054 47.4842 89.6054C49.3202 89.6054 50.7122 90.9854 50.7122 92.8094C50.7122 94.6334 49.3202 96.0134 47.4842 96.0134ZM47.4842 95.3414C48.9242 95.3414 49.9922 94.2494 49.9922 92.8094C49.9922 91.3694 48.9242 90.2774 47.4842 90.2774C46.0442 90.2774 44.9642 91.3694 44.9642 92.8094C44.9642 94.2494 46.0442 95.3414 47.4842 95.3414ZM57.0105 89.6534H57.1905V90.3734H57.0105C55.6065 90.3734 54.7065 91.2854 54.7065 92.7134V95.8694H54.0105V89.7494H54.7065V91.0334C55.1505 90.1694 55.9665 89.6534 57.0105 89.6534ZM65.8177 92.8094C65.8177 92.9054 65.8057 93.0134 65.7937 93.1094H60.1777C60.3217 94.4294 61.3777 95.3654 62.7817 95.3654C63.7777 95.3654 64.6297 94.8854 65.0737 94.2014L65.5657 94.6094C64.9777 95.4734 63.9577 96.0134 62.7577 96.0134C60.8617 96.0134 59.4457 94.6214 59.4457 92.7974C59.4457 90.9734 60.8137 89.6054 62.6377 89.6054C64.4497 89.6054 65.8177 90.9734 65.8177 92.8094ZM62.6257 90.2534C61.3177 90.2534 60.3217 91.1774 60.1777 92.4854H65.0857C64.9417 91.1774 63.9337 90.2534 62.6257 90.2534ZM79.3643 89.7494H80.0603V95.8694H79.3643V94.4534C78.8603 95.4014 77.9003 96.0134 76.7243 96.0134C74.9483 96.0134 73.6163 94.6334 73.6163 92.8094C73.6163 90.9854 74.9483 89.6054 76.7243 89.6054C77.9003 89.6054 78.8603 90.2174 79.3643 91.1654V89.7494ZM76.8443 95.3414C78.2843 95.3414 79.3643 94.2494 79.3643 92.8094C79.3643 91.3694 78.2843 90.2774 76.8443 90.2774C75.4163 90.2774 74.3363 91.3694 74.3363 92.8094C74.3363 94.2494 75.4163 95.3414 76.8443 95.3414ZM89.0226 88.3094C88.7466 88.3094 88.5186 88.0934 88.5186 87.8054C88.5186 87.5294 88.7466 87.3134 89.0226 87.3134C89.3106 87.3134 89.5386 87.5294 89.5386 87.8054C89.5386 88.0934 89.3106 88.3094 89.0226 88.3094ZM88.6746 95.8694V89.7494H89.3706V95.8694H88.6746ZM100.348 89.6054C101.764 89.6054 102.688 90.5294 102.688 91.9334V95.8694H101.992V92.1254C101.992 91.0094 101.272 90.2774 100.156 90.2774C99.0041 90.2774 98.2361 91.0214 98.2361 92.1494V95.8694H97.5401V92.1254C97.5401 91.0094 96.8081 90.2774 95.7041 90.2774C94.5521 90.2774 93.7721 91.0214 93.7721 92.1494V95.8694H93.0761V89.7494H93.7721V90.7574C94.2041 90.0254 94.9481 89.6054 95.9081 89.6054C96.9401 89.6054 97.7201 90.1094 98.0561 90.9494C98.4641 90.0974 99.2801 89.6054 100.348 89.6054ZM109.65 89.6054C111.438 89.6054 112.77 90.9854 112.77 92.8094C112.77 94.6334 111.438 96.0134 109.65 96.0134C108.486 96.0134 107.514 95.4014 107.01 94.4534V98.1494H106.314V89.7494H107.01V91.1654C107.514 90.2174 108.486 89.6054 109.65 89.6054ZM109.53 95.3414C110.97 95.3414 112.05 94.2494 112.05 92.8094C112.05 91.3694 110.97 90.2774 109.53 90.2774C108.09 90.2774 107.01 91.3694 107.01 92.8094C107.01 94.2494 108.09 95.3414 109.53 95.3414ZM118.915 96.0134C117.067 96.0134 115.675 94.6334 115.675 92.8094C115.675 90.9854 117.067 89.6054 118.915 89.6054C120.751 89.6054 122.143 90.9854 122.143 92.8094C122.143 94.6334 120.751 96.0134 118.915 96.0134ZM118.915 95.3414C120.355 95.3414 121.423 94.2494 121.423 92.8094C121.423 91.3694 120.355 90.2774 118.915 90.2774C117.475 90.2774 116.395 91.3694 116.395 92.8094C116.395 94.2494 117.475 95.3414 118.915 95.3414ZM128.441 89.6534H128.621V90.3734H128.441C127.037 90.3734 126.137 91.2854 126.137 92.7134V95.8694H125.441V89.7494H126.137V91.0334C126.581 90.1694 127.397 89.6534 128.441 89.6534ZM135.078 90.3854H133.122V94.2974C133.122 95.0534 133.53 95.3414 134.202 95.3414C134.562 95.3414 134.826 95.2454 135.078 95.1134V95.7734C134.778 95.9294 134.49 96.0134 134.07 96.0134C133.014 96.0134 132.426 95.4734 132.426 94.4054V90.3854H131.238V89.7494H132.426V88.0454H133.122V89.7494H135.078V90.3854ZM140.807 89.3294C141.591 89.3294 142.171 89.5014 142.547 89.8454C142.923 90.1894 143.111 90.7374 143.111 91.4894V95.8694H142.343L142.139 94.9574H142.091C141.907 95.1894 141.715 95.3854 141.515 95.5454C141.323 95.6974 141.099 95.8094 140.843 95.8814C140.595 95.9534 140.291 95.9894 139.931 95.9894C139.547 95.9894 139.199 95.9214 138.887 95.7854C138.583 95.6494 138.343 95.4414 138.167 95.1614C137.991 94.8734 137.903 94.5134 137.903 94.0814C137.903 93.4414 138.155 92.9494 138.659 92.6054C139.163 92.2534 139.939 92.0614 140.987 92.0294L142.079 91.9934V91.6094C142.079 91.0734 141.963 90.7014 141.731 90.4934C141.499 90.2854 141.171 90.1814 140.747 90.1814C140.411 90.1814 140.091 90.2334 139.787 90.3374C139.483 90.4334 139.199 90.5454 138.935 90.6734L138.611 89.8814C138.891 89.7294 139.223 89.6014 139.607 89.4974C139.991 89.3854 140.391 89.3294 140.807 89.3294ZM141.119 92.7614C140.319 92.7934 139.763 92.9214 139.451 93.1454C139.147 93.3694 138.995 93.6854 138.995 94.0934C138.995 94.4534 139.103 94.7174 139.319 94.8854C139.543 95.0534 139.827 95.1374 140.171 95.1374C140.715 95.1374 141.167 94.9894 141.527 94.6934C141.887 94.3894 142.067 93.9254 142.067 93.3014V92.7254L141.119 92.7614ZM141.251 86.6774C141.347 86.8534 141.483 87.0534 141.659 87.2774C141.843 87.4934 142.031 87.7094 142.223 87.9254C142.423 88.1334 142.599 88.3134 142.751 88.4654V88.5974H142.007C141.799 88.4694 141.583 88.3134 141.359 88.1294C141.135 87.9374 140.915 87.7334 140.699 87.5174C140.483 87.7334 140.267 87.9334 140.051 88.1174C139.835 88.3014 139.623 88.4614 139.415 88.5974H138.695V88.4654C138.847 88.3054 139.015 88.1214 139.199 87.9134C139.391 87.7054 139.575 87.4934 139.751 87.2774C139.927 87.0534 140.067 86.8534 140.171 86.6774H141.251ZM149.897 89.6054C151.433 89.6054 152.465 90.6134 152.465 92.1614V95.8694H151.769V92.3654C151.769 91.1054 150.941 90.2774 149.693 90.2774C148.397 90.2774 147.521 91.1174 147.521 92.3894V95.8694H146.825V89.7494H147.521V90.9014C147.977 90.0734 148.817 89.6054 149.897 89.6054ZM158.934 96.0134C157.086 96.0134 155.694 94.6334 155.694 92.8094C155.694 90.9854 157.086 89.6054 158.934 89.6054C160.146 89.6054 161.166 90.2054 161.718 91.1414L161.106 91.5134C160.686 90.7694 159.882 90.2774 158.934 90.2774C157.494 90.2774 156.414 91.3694 156.414 92.8094C156.414 94.2494 157.494 95.3414 158.934 95.3414C159.882 95.3414 160.686 94.8494 161.106 94.1054L161.718 94.4774C161.166 95.4134 160.146 96.0134 158.934 96.0134ZM165.293 88.3094C165.017 88.3094 164.789 88.0934 164.789 87.8054C164.789 87.5294 165.017 87.3134 165.293 87.3134C165.581 87.3134 165.809 87.5294 165.809 87.8054C165.809 88.0934 165.581 88.3094 165.293 88.3094ZM164.945 95.8694V89.7494H165.641V95.8694H164.945ZM174.71 89.7494H175.406V95.8694H174.71V94.4534C174.206 95.4014 173.246 96.0134 172.07 96.0134C170.294 96.0134 168.962 94.6334 168.962 92.8094C168.962 90.9854 170.294 89.6054 172.07 89.6054C173.246 89.6054 174.206 90.2174 174.71 91.1654V89.7494ZM172.19 95.3414C173.63 95.3414 174.71 94.2494 174.71 92.8094C174.71 91.3694 173.63 90.2774 172.19 90.2774C170.762 90.2774 169.682 91.3694 169.682 92.8094C169.682 94.2494 170.762 95.3414 172.19 95.3414ZM189.385 87.2294H190.081V95.8694H189.385V94.4534C188.881 95.4014 187.921 96.0134 186.745 96.0134C184.969 96.0134 183.637 94.6334 183.637 92.8094C183.637 90.9854 184.969 89.6054 186.745 89.6054C187.921 89.6054 188.881 90.2174 189.385 91.1654V87.2294ZM186.865 95.3414C188.305 95.3414 189.385 94.2494 189.385 92.8094C189.385 91.3694 188.305 90.2774 186.865 90.2774C185.437 90.2774 184.357 91.3694 184.357 92.8094C184.357 94.2494 185.437 95.3414 186.865 95.3414ZM199.142 89.7494H199.838V95.8694H199.142V94.4534C198.638 95.4014 197.678 96.0134 196.502 96.0134C194.726 96.0134 193.394 94.6334 193.394 92.8094C193.394 90.9854 194.726 89.6054 196.502 89.6054C197.678 89.6054 198.638 90.2174 199.142 91.1654V89.7494ZM196.622 95.3414C198.062 95.3414 199.142 94.2494 199.142 92.8094C199.142 91.3694 198.062 90.2774 196.622 90.2774C195.194 90.2774 194.114 91.3694 194.114 92.8094C194.114 94.2494 195.194 95.3414 196.622 95.3414ZM18.312 105.749H19.008V111.869H18.312V110.453C17.808 111.401 16.848 112.013 15.672 112.013C13.896 112.013 12.564 110.633 12.564 108.809C12.564 106.985 13.896 105.605 15.672 105.605C16.848 105.605 17.808 106.217 18.312 107.165V105.749ZM15.792 111.341C17.232 111.341 18.312 110.249 18.312 108.809C18.312 107.369 17.232 106.277 15.792 106.277C14.364 106.277 13.284 107.369 13.284 108.809C13.284 110.249 14.364 111.341 15.792 111.341ZM25.777 105.605C27.313 105.605 28.345 106.613 28.345 108.161V111.869H27.649V108.365C27.649 107.105 26.821 106.277 25.573 106.277C24.277 106.277 23.401 107.117 23.401 108.389V111.869H22.705V105.749H23.401V106.901C23.857 106.073 24.697 105.605 25.777 105.605ZM34.4779 105.329C35.2619 105.329 35.8419 105.501 36.2179 105.845C36.5939 106.189 36.7819 106.737 36.7819 107.489V111.869H36.0139L35.8099 110.957H35.7619C35.5779 111.189 35.3859 111.385 35.1859 111.545C34.9939 111.697 34.7699 111.809 34.5139 111.881C34.2659 111.953 33.9619 111.989 33.6019 111.989C33.2179 111.989 32.8699 111.921 32.5579 111.785C32.2539 111.649 32.0139 111.441 31.8379 111.161C31.6619 110.873 31.5739 110.513 31.5739 110.081C31.5739 109.441 31.8259 108.949 32.3299 108.605C32.8339 108.253 33.6099 108.061 34.6579 108.029L35.7499 107.993V107.609C35.7499 107.073 35.6339 106.701 35.4019 106.493C35.1699 106.285 34.8419 106.181 34.4179 106.181C34.0819 106.181 33.7619 106.233 33.4579 106.337C33.1539 106.433 32.8699 106.545 32.6059 106.673L32.2819 105.881C32.5619 105.729 32.8939 105.601 33.2779 105.497C33.6619 105.385 34.0619 105.329 34.4779 105.329ZM34.7899 108.761C33.9899 108.793 33.4339 108.921 33.1219 109.145C32.8179 109.369 32.6659 109.685 32.6659 110.093C32.6659 110.453 32.7739 110.717 32.9899 110.885C33.2139 111.053 33.4979 111.137 33.8419 111.137C34.3859 111.137 34.8379 110.989 35.1979 110.693C35.5579 110.389 35.7379 109.925 35.7379 109.301V108.725L34.7899 108.761ZM36.1699 102.797C36.0979 102.909 35.9939 103.045 35.8579 103.205C35.7219 103.365 35.5699 103.533 35.4019 103.709C35.2419 103.877 35.0779 104.041 34.9099 104.201C34.7499 104.353 34.5979 104.485 34.4539 104.597H33.7579V104.453C33.8779 104.301 34.0059 104.121 34.1419 103.913C34.2859 103.705 34.4259 103.493 34.5619 103.277C34.6979 103.053 34.8099 102.853 34.8979 102.677H36.1699V102.797ZM40.4964 111.869V103.229H41.1924V111.869H40.4964ZM45.246 104.309C44.97 104.309 44.742 104.093 44.742 103.805C44.742 103.529 44.97 103.313 45.246 103.313C45.534 103.313 45.762 103.529 45.762 103.805C45.762 104.093 45.534 104.309 45.246 104.309ZM44.898 111.869V105.749H45.594V111.869H44.898ZM51.2436 112.013C50.2116 112.013 49.3716 111.605 48.8316 111.041L49.2276 110.537C49.6836 111.053 50.3916 111.377 51.2316 111.377C52.1916 111.377 52.9116 110.945 52.9116 110.273C52.9116 109.529 52.1076 109.313 51.2196 109.097C50.1876 108.833 49.0356 108.533 49.0356 107.321C49.0356 106.205 50.0796 105.605 51.2796 105.605C52.2036 105.605 52.9476 105.965 53.4396 106.457L53.0436 106.973C52.6356 106.529 52.0116 106.241 51.2916 106.241C50.4396 106.241 49.7556 106.637 49.7556 107.273C49.7556 108.029 50.5716 108.245 51.4836 108.461C52.5036 108.713 53.6316 109.001 53.6316 110.201C53.6316 111.341 52.5876 112.013 51.2436 112.013ZM62.8646 108.809C62.8646 108.905 62.8526 109.013 62.8406 109.109H57.2246C57.3686 110.429 58.4246 111.365 59.8286 111.365C60.8246 111.365 61.6766 110.885 62.1206 110.201L62.6126 110.609C62.0246 111.473 61.0046 112.013 59.8046 112.013C57.9086 112.013 56.4926 110.621 56.4926 108.797C56.4926 106.973 57.8606 105.605 59.6846 105.605C61.4966 105.605 62.8646 106.973 62.8646 108.809ZM59.6726 106.253C58.3646 106.253 57.3686 107.177 57.2246 108.485H62.1326C61.9886 107.177 60.9806 106.253 59.6726 106.253ZM76.4112 103.229H77.1072V111.869H76.4112V110.453C75.9072 111.401 74.9472 112.013 73.7712 112.013C71.9952 112.013 70.6632 110.633 70.6632 108.809C70.6632 106.985 71.9952 105.605 73.7712 105.605C74.9472 105.605 75.9072 106.217 76.4112 107.165V103.229ZM73.8912 111.341C75.3312 111.341 76.4112 110.249 76.4112 108.809C76.4112 107.369 75.3312 106.277 73.8912 106.277C72.4632 106.277 71.3832 107.369 71.3832 108.809C71.3832 110.249 72.4632 111.341 73.8912 111.341ZM86.7802 108.809C86.7802 108.905 86.7682 109.013 86.7562 109.109H81.1402C81.2842 110.429 82.3402 111.365 83.7442 111.365C84.7402 111.365 85.5922 110.885 86.0362 110.201L86.5282 110.609C85.9402 111.473 84.9202 112.013 83.7202 112.013C81.8242 112.013 80.4082 110.621 80.4082 108.797C80.4082 106.973 81.7762 105.605 83.6002 105.605C85.4122 105.605 86.7802 106.973 86.7802 108.809ZM83.5882 106.253C82.2802 106.253 81.2842 107.177 81.1402 108.485H86.0482C85.9042 107.177 84.8962 106.253 83.5882 106.253ZM100.327 103.229H101.023V111.869H100.327V110.453C99.8228 111.401 98.8628 112.013 97.6868 112.013C95.9108 112.013 94.5788 110.633 94.5788 108.809C94.5788 106.985 95.9108 105.605 97.6868 105.605C98.8628 105.605 99.8228 106.217 100.327 107.165V103.229ZM97.8068 111.341C99.2468 111.341 100.327 110.249 100.327 108.809C100.327 107.369 99.2468 106.277 97.8068 106.277C96.3788 106.277 95.2988 107.369 95.2988 108.809C95.2988 110.249 96.3788 111.341 97.8068 111.341ZM110.084 105.749H110.78V111.869H110.084V110.453C109.58 111.401 108.62 112.013 107.444 112.013C105.668 112.013 104.336 110.633 104.336 108.809C104.336 106.985 105.668 105.605 107.444 105.605C108.62 105.605 109.58 106.217 110.084 107.165V105.749ZM107.564 111.341C109.004 111.341 110.084 110.249 110.084 108.809C110.084 107.369 109.004 106.277 107.564 106.277C106.136 106.277 105.056 107.369 105.056 108.809C105.056 110.249 106.136 111.341 107.564 111.341ZM119.841 103.229H120.537V111.869H119.841V110.453C119.337 111.401 118.377 112.013 117.201 112.013C115.425 112.013 114.093 110.633 114.093 108.809C114.093 106.985 115.425 105.605 117.201 105.605C118.377 105.605 119.337 106.217 119.841 107.165V103.229ZM117.321 111.341C118.761 111.341 119.841 110.249 119.841 108.809C119.841 107.369 118.761 106.277 117.321 106.277C115.893 106.277 114.813 107.369 114.813 108.809C114.813 110.249 115.893 111.341 117.321 111.341ZM127.078 112.013C125.23 112.013 123.838 110.633 123.838 108.809C123.838 106.985 125.23 105.605 127.078 105.605C128.914 105.605 130.306 106.985 130.306 108.809C130.306 110.633 128.914 112.013 127.078 112.013ZM127.078 111.341C128.518 111.341 129.586 110.249 129.586 108.809C129.586 107.369 128.518 106.277 127.078 106.277C125.638 106.277 124.558 107.369 124.558 108.809C124.558 110.249 125.638 111.341 127.078 111.341ZM135.548 112.013C134.516 112.013 133.676 111.605 133.136 111.041L133.532 110.537C133.988 111.053 134.696 111.377 135.536 111.377C136.496 111.377 137.216 110.945 137.216 110.273C137.216 109.529 136.412 109.313 135.524 109.097C134.492 108.833 133.34 108.533 133.34 107.321C133.34 106.205 134.384 105.605 135.584 105.605C136.508 105.605 137.252 105.965 137.744 106.457L137.348 106.973C136.94 106.529 136.316 106.241 135.596 106.241C134.744 106.241 134.06 106.637 134.06 107.273C134.06 108.029 134.876 108.245 135.788 108.461C136.808 108.713 137.936 109.001 137.936 110.201C137.936 111.341 136.892 112.013 135.548 112.013ZM149.447 105.605C151.235 105.605 152.567 106.985 152.567 108.809C152.567 110.633 151.235 112.013 149.447 112.013C148.283 112.013 147.311 111.401 146.807 110.453V114.149H146.111V105.749H146.807V107.165C147.311 106.217 148.283 105.605 149.447 105.605ZM149.327 111.341C150.767 111.341 151.847 110.249 151.847 108.809C151.847 107.369 150.767 106.277 149.327 106.277C147.887 106.277 146.807 107.369 146.807 108.809C146.807 110.249 147.887 111.341 149.327 111.341ZM161.232 105.749H161.928V111.869H161.232V110.453C160.728 111.401 159.768 112.013 158.592 112.013C156.816 112.013 155.484 110.633 155.484 108.809C155.484 106.985 156.816 105.605 158.592 105.605C159.768 105.605 160.728 106.217 161.232 107.165V105.749ZM158.712 111.341C160.152 111.341 161.232 110.249 161.232 108.809C161.232 107.369 160.152 106.277 158.712 106.277C157.284 106.277 156.204 107.369 156.204 108.809C156.204 110.249 157.284 111.341 158.712 111.341ZM168.625 105.653H168.805V106.373H168.625C167.221 106.373 166.321 107.285 166.321 108.713V111.869H165.625V105.749H166.321V107.033C166.765 106.169 167.581 105.653 168.625 105.653ZM176.82 105.749H177.516V111.869H176.82V110.453C176.316 111.401 175.356 112.013 174.18 112.013C172.404 112.013 171.072 110.633 171.072 108.809C171.072 106.985 172.404 105.605 174.18 105.605C175.356 105.605 176.316 106.217 176.82 107.165V105.749ZM174.3 111.341C175.74 111.341 176.82 110.249 176.82 108.809C176.82 107.369 175.74 106.277 174.3 106.277C172.872 106.277 171.792 107.369 171.792 108.809C171.792 110.249 172.872 111.341 174.3 111.341ZM15.948 121.653H16.128V122.373H15.948C14.544 122.373 13.644 123.285 13.644 124.713V127.869H12.948V121.749H13.644V123.033C14.088 122.169 14.904 121.653 15.948 121.653ZM24.7553 124.809C24.7553 124.905 24.7433 125.013 24.7313 125.109H19.1153C19.2593 126.429 20.3153 127.365 21.7193 127.365C22.7153 127.365 23.5673 126.885 24.0113 126.201L24.5033 126.609C23.9153 127.473 22.8953 128.013 21.6953 128.013C19.7993 128.013 18.3833 126.621 18.3833 124.797C18.3833 122.973 19.7513 121.605 21.5753 121.605C23.3873 121.605 24.7553 122.973 24.7553 124.809ZM21.5633 122.253C20.2553 122.253 19.2593 123.177 19.1153 124.485H24.0233C23.8793 123.177 22.8713 122.253 21.5633 122.253ZM30.0828 119.733C29.4108 119.733 29.0028 120.021 29.0028 120.765V121.749H30.9228V122.385H29.0028V127.869H28.3068V122.385H27.1068V121.749H28.3068V120.717C28.3068 119.637 28.8948 119.085 29.9388 119.085C30.3588 119.085 30.6468 119.169 30.9588 119.325V119.949C30.6948 119.805 30.4428 119.733 30.0828 119.733ZM34.4108 120.309C34.1348 120.309 33.9068 120.093 33.9068 119.805C33.9068 119.529 34.1348 119.313 34.4108 119.313C34.6988 119.313 34.9268 119.529 34.9268 119.805C34.9268 120.093 34.6988 120.309 34.4108 120.309ZM34.0628 127.869V121.749H34.7588V127.869H34.0628ZM41.5364 121.605C43.0724 121.605 44.1044 122.613 44.1044 124.161V127.869H43.4084V124.365C43.4084 123.105 42.5804 122.277 41.3324 122.277C40.0364 122.277 39.1604 123.117 39.1604 124.389V127.869H38.4644V121.749H39.1604V122.901C39.6164 122.073 40.4564 121.605 41.5364 121.605ZM53.0933 121.749H53.7893V127.869H53.0933V126.453C52.5893 127.401 51.6293 128.013 50.4533 128.013C48.6773 128.013 47.3453 126.633 47.3453 124.809C47.3453 122.985 48.6773 121.605 50.4533 121.605C51.6293 121.605 52.5893 122.217 53.0933 123.165V121.749ZM50.5733 127.341C52.0133 127.341 53.0933 126.249 53.0933 124.809C53.0933 123.369 52.0133 122.277 50.5733 122.277C49.1453 122.277 48.0653 123.369 48.0653 124.809C48.0653 126.249 49.1453 127.341 50.5733 127.341ZM64.7583 121.605C66.1743 121.605 67.0983 122.529 67.0983 123.933V127.869H66.4023V124.125C66.4023 123.009 65.6823 122.277 64.5663 122.277C63.4143 122.277 62.6463 123.021 62.6463 124.149V127.869H61.9503V124.125C61.9503 123.009 61.2183 122.277 60.1143 122.277C58.9623 122.277 58.1823 123.021 58.1823 124.149V127.869H57.4863V121.749H58.1823V122.757C58.6143 122.025 59.3583 121.605 60.3183 121.605C61.3503 121.605 62.1303 122.109 62.4663 122.949C62.8743 122.097 63.6903 121.605 64.7583 121.605ZM76.6998 124.809C76.6998 124.905 76.6878 125.013 76.6758 125.109H71.0598C71.2038 126.429 72.2598 127.365 73.6638 127.365C74.6598 127.365 75.5118 126.885 75.9558 126.201L76.4478 126.609C75.8598 127.473 74.8398 128.013 73.6398 128.013C71.7438 128.013 70.3278 126.621 70.3278 124.797C70.3278 122.973 71.6958 121.605 73.5198 121.605C75.3318 121.605 76.6998 122.973 76.6998 124.809ZM73.5078 122.253C72.1998 122.253 71.2038 123.177 71.0598 124.485H75.9678C75.8238 123.177 74.8158 122.253 73.5078 122.253ZM83.0372 121.605C84.5732 121.605 85.6052 122.613 85.6052 124.161V127.869H84.9092V124.365C84.9092 123.105 84.0812 122.277 82.8332 122.277C81.5372 122.277 80.6612 123.117 80.6612 124.389V127.869H79.9652V121.749H80.6612V122.901C81.1172 122.073 81.9572 121.605 83.0372 121.605ZM92.2273 122.385H90.2713V126.297C90.2713 127.053 90.6793 127.341 91.3513 127.341C91.7113 127.341 91.9753 127.245 92.2273 127.113V127.773C91.9273 127.929 91.6393 128.013 91.2193 128.013C90.1633 128.013 89.5753 127.473 89.5753 126.405V122.385H88.3873V121.749H89.5753V120.045H90.2713V121.749H92.2273V122.385ZM97.999 128.013C96.151 128.013 94.759 126.633 94.759 124.809C94.759 122.985 96.151 121.605 97.999 121.605C99.835 121.605 101.227 122.985 101.227 124.809C101.227 126.633 99.835 128.013 97.999 128.013ZM97.999 127.341C99.439 127.341 100.507 126.249 100.507 124.809C100.507 123.369 99.439 122.277 97.999 122.277C96.559 122.277 95.479 123.369 95.479 124.809C95.479 126.249 96.559 127.341 97.999 127.341ZM106.469 128.013C105.437 128.013 104.597 127.605 104.057 127.041L104.453 126.537C104.909 127.053 105.617 127.377 106.457 127.377C107.417 127.377 108.137 126.945 108.137 126.273C108.137 125.529 107.333 125.313 106.445 125.097C105.413 124.833 104.261 124.533 104.261 123.321C104.261 122.205 105.305 121.605 106.505 121.605C107.429 121.605 108.173 121.965 108.665 122.457L108.269 122.973C107.861 122.529 107.237 122.241 106.517 122.241C105.665 122.241 104.981 122.637 104.981 123.273C104.981 124.029 105.797 124.245 106.709 124.461C107.729 124.713 108.857 125.001 108.857 126.201C108.857 127.341 107.813 128.013 106.469 128.013ZM119.876 128.013C118.028 128.013 116.636 126.633 116.636 124.809C116.636 122.985 118.028 121.605 119.876 121.605C121.088 121.605 122.108 122.205 122.66 123.141L122.048 123.513C121.628 122.769 120.824 122.277 119.876 122.277C118.436 122.277 117.356 123.369 117.356 124.809C117.356 126.249 118.436 127.341 119.876 127.341C120.824 127.341 121.628 126.849 122.048 126.105L122.66 126.477C122.108 127.413 121.088 128.013 119.876 128.013ZM128.695 128.013C126.847 128.013 125.455 126.633 125.455 124.809C125.455 122.985 126.847 121.605 128.695 121.605C130.531 121.605 131.923 122.985 131.923 124.809C131.923 126.633 130.531 128.013 128.695 128.013ZM128.695 127.341C130.135 127.341 131.203 126.249 131.203 124.809C131.203 123.369 130.135 122.277 128.695 122.277C127.255 122.277 126.175 123.369 126.175 124.809C126.175 126.249 127.255 127.341 128.695 127.341ZM138.293 121.605C139.829 121.605 140.861 122.613 140.861 124.161V127.869H140.165V124.365C140.165 123.105 139.337 122.277 138.089 122.277C136.793 122.277 135.917 123.117 135.917 124.389V127.869H135.221V121.749H135.917V122.901C136.373 122.073 137.213 121.605 138.293 121.605ZM147.484 122.385H145.528V126.297C145.528 127.053 145.936 127.341 146.608 127.341C146.968 127.341 147.232 127.245 147.484 127.113V127.773C147.184 127.929 146.896 128.013 146.476 128.013C145.42 128.013 144.832 127.473 144.832 126.405V122.385H143.644V121.749H144.832V120.045H145.528V121.749H147.484V122.385ZM151.832 127.869H150.776V121.437H151.832V127.869ZM153.08 118.797C153.008 118.909 152.904 119.045 152.768 119.205C152.632 119.365 152.48 119.533 152.312 119.709C152.152 119.877 151.988 120.041 151.82 120.201C151.66 120.353 151.508 120.485 151.364 120.597H150.668V120.453C150.788 120.301 150.916 120.121 151.052 119.913C151.196 119.705 151.336 119.493 151.472 119.277C151.608 119.053 151.72 118.853 151.808 118.677H153.08V118.797ZM158.67 121.605C160.206 121.605 161.238 122.613 161.238 124.161V127.869H160.542V124.365C160.542 123.105 159.714 122.277 158.466 122.277C157.17 122.277 156.294 123.117 156.294 124.389V127.869H155.598V121.749H156.294V122.901C156.75 122.073 157.59 121.605 158.67 121.605ZM167.503 128.013C165.871 128.013 164.791 126.993 164.791 125.457V121.749H165.487V125.361C165.487 126.549 166.291 127.341 167.503 127.341C168.715 127.341 169.507 126.549 169.507 125.361V121.749H170.203V125.457C170.203 126.993 169.135 128.013 167.503 128.013ZM176.679 128.013C174.831 128.013 173.439 126.633 173.439 124.809C173.439 122.985 174.831 121.605 176.679 121.605C178.515 121.605 179.907 122.985 179.907 124.809C179.907 126.633 178.515 128.013 176.679 128.013ZM176.679 127.341C178.119 127.341 179.187 126.249 179.187 124.809C179.187 123.369 178.119 122.277 176.679 122.277C175.239 122.277 174.159 123.369 174.159 124.809C174.159 126.249 175.239 127.341 176.679 127.341ZM185.149 128.013C184.117 128.013 183.277 127.605 182.737 127.041L183.133 126.537C183.589 127.053 184.297 127.377 185.137 127.377C186.097 127.377 186.817 126.945 186.817 126.273C186.817 125.529 186.013 125.313 185.125 125.097C184.093 124.833 182.941 124.533 182.941 123.321C182.941 122.205 183.985 121.605 185.185 121.605C186.109 121.605 186.853 121.965 187.345 122.457L186.949 122.973C186.541 122.529 185.917 122.241 185.197 122.241C184.345 122.241 183.661 122.637 183.661 123.273C183.661 124.029 184.477 124.245 185.389 124.461C186.409 124.713 187.537 125.001 187.537 126.201C187.537 127.341 186.493 128.013 185.149 128.013ZM18.312 135.229H19.008V143.869H18.312V142.453C17.808 143.401 16.848 144.013 15.672 144.013C13.896 144.013 12.564 142.633 12.564 140.809C12.564 138.985 13.896 137.605 15.672 137.605C16.848 137.605 17.808 138.217 18.312 139.165V135.229ZM15.792 143.341C17.232 143.341 18.312 142.249 18.312 140.809C18.312 139.369 17.232 138.277 15.792 138.277C14.364 138.277 13.284 139.369 13.284 140.809C13.284 142.249 14.364 143.341 15.792 143.341ZM28.069 137.749H28.765V143.869H28.069V142.453C27.565 143.401 26.605 144.013 25.429 144.013C23.653 144.013 22.321 142.633 22.321 140.809C22.321 138.985 23.653 137.605 25.429 137.605C26.605 137.605 27.565 138.217 28.069 139.165V137.749ZM25.549 143.341C26.989 143.341 28.069 142.249 28.069 140.809C28.069 139.369 26.989 138.277 25.549 138.277C24.121 138.277 23.041 139.369 23.041 140.809C23.041 142.249 24.121 143.341 25.549 143.341ZM34.4061 144.013C33.3741 144.013 32.5341 143.605 31.9941 143.041L32.3901 142.537C32.8461 143.053 33.5541 143.377 34.3941 143.377C35.3541 143.377 36.0741 142.945 36.0741 142.273C36.0741 141.529 35.2701 141.313 34.3821 141.097C33.3501 140.833 32.1981 140.533 32.1981 139.321C32.1981 138.205 33.2421 137.605 34.4421 137.605C35.3661 137.605 36.1101 137.965 36.6021 138.457L36.2061 138.973C35.7981 138.529 35.1741 138.241 34.4541 138.241C33.6021 138.241 32.9181 138.637 32.9181 139.273C32.9181 140.029 33.7341 140.245 34.6461 140.461C35.6661 140.713 36.7941 141.001 36.7941 142.201C36.7941 143.341 35.7501 144.013 34.4061 144.013ZM47.8123 144.013C45.9643 144.013 44.5723 142.633 44.5723 140.809C44.5723 138.985 45.9643 137.605 47.8123 137.605C49.0243 137.605 50.0443 138.205 50.5963 139.141L49.9843 139.513C49.5643 138.769 48.7603 138.277 47.8123 138.277C46.3723 138.277 45.2923 139.369 45.2923 140.809C45.2923 142.249 46.3723 143.341 47.8123 143.341C48.7603 143.341 49.5643 142.849 49.9843 142.105L50.5963 142.477C50.0443 143.413 49.0243 144.013 47.8123 144.013ZM59.1518 137.749H59.8478V143.869H59.1518V142.453C58.6478 143.401 57.6878 144.013 56.5118 144.013C54.7358 144.013 53.4038 142.633 53.4038 140.809C53.4038 138.985 54.7358 137.605 56.5118 137.605C57.6878 137.605 58.6478 138.217 59.1518 139.165V137.749ZM56.6318 143.341C58.0718 143.341 59.1518 142.249 59.1518 140.809C59.1518 139.369 58.0718 138.277 56.6318 138.277C55.2038 138.277 54.1238 139.369 54.1238 140.809C54.1238 142.249 55.2038 143.341 56.6318 143.341ZM70.8169 137.605C72.2329 137.605 73.1569 138.529 73.1569 139.933V143.869H72.4609V140.125C72.4609 139.009 71.7409 138.277 70.6249 138.277C69.4729 138.277 68.7049 139.021 68.7049 140.149V143.869H68.0089V140.125C68.0089 139.009 67.2769 138.277 66.1729 138.277C65.0209 138.277 64.2409 139.021 64.2409 140.149V143.869H63.5449V137.749H64.2409V138.757C64.6729 138.025 65.4169 137.605 66.3769 137.605C67.4089 137.605 68.1889 138.109 68.5249 138.949C68.9329 138.097 69.7489 137.605 70.8169 137.605ZM80.1184 137.605C81.9064 137.605 83.2384 138.985 83.2384 140.809C83.2384 142.633 81.9064 144.013 80.1184 144.013C78.9544 144.013 77.9824 143.401 77.4784 142.453V146.149H76.7824V137.749H77.4784V139.165C77.9824 138.217 78.9544 137.605 80.1184 137.605ZM79.9984 143.341C81.4384 143.341 82.5184 142.249 82.5184 140.809C82.5184 139.369 81.4384 138.277 79.9984 138.277C78.5584 138.277 77.4784 139.369 77.4784 140.809C77.4784 142.249 78.5584 143.341 79.9984 143.341ZM91.9034 137.749H92.5994V143.869H91.9034V142.453C91.3994 143.401 90.4394 144.013 89.2634 144.013C87.4874 144.013 86.1554 142.633 86.1554 140.809C86.1554 138.985 87.4874 137.605 89.2634 137.605C90.4394 137.605 91.3994 138.217 91.9034 139.165V137.749ZM89.3834 143.341C90.8234 143.341 91.9034 142.249 91.9034 140.809C91.9034 139.369 90.8234 138.277 89.3834 138.277C87.9554 138.277 86.8754 139.369 86.8754 140.809C86.8754 142.249 87.9554 143.341 89.3834 143.341ZM99.3684 137.605C100.904 137.605 101.936 138.613 101.936 140.161V143.869H101.24V140.365C101.24 139.105 100.412 138.277 99.1644 138.277C97.8684 138.277 96.9924 139.117 96.9924 140.389V143.869H96.2964V137.749H96.9924V138.901C97.4484 138.073 98.2884 137.605 99.3684 137.605ZM108.633 137.605C110.169 137.605 111.201 138.613 111.201 140.161V143.869H110.505V140.365C110.505 139.105 109.677 138.277 108.429 138.277C107.133 138.277 106.257 139.117 106.257 140.389V143.869H105.561V135.229H106.257V138.925C106.713 138.085 107.553 137.605 108.633 137.605ZM120.19 137.749H120.886V143.869H120.19V142.453C119.686 143.401 118.726 144.013 117.55 144.013C115.774 144.013 114.442 142.633 114.442 140.809C114.442 138.985 115.774 137.605 117.55 137.605C118.726 137.605 119.686 138.217 120.19 139.165V137.749ZM117.67 143.341C119.11 143.341 120.19 142.249 120.19 140.809C120.19 139.369 119.11 138.277 117.67 138.277C116.242 138.277 115.162 139.369 115.162 140.809C115.162 142.249 116.242 143.341 117.67 143.341ZM126.527 144.013C125.495 144.013 124.655 143.605 124.115 143.041L124.511 142.537C124.967 143.053 125.675 143.377 126.515 143.377C127.475 143.377 128.195 142.945 128.195 142.273C128.195 141.529 127.391 141.313 126.503 141.097C125.471 140.833 124.319 140.533 124.319 139.321C124.319 138.205 125.363 137.605 126.563 137.605C127.487 137.605 128.231 137.965 128.723 138.457L128.327 138.973C127.919 138.529 127.295 138.241 126.575 138.241C125.723 138.241 125.039 138.637 125.039 139.273C125.039 140.029 125.855 140.245 126.767 140.461C127.787 140.713 128.915 141.001 128.915 142.201C128.915 143.341 127.871 144.013 126.527 144.013ZM132.568 143.929C132.244 143.929 132.004 143.689 132.004 143.365C132.004 143.041 132.244 142.801 132.568 142.801C132.892 142.801 133.144 143.041 133.144 143.365C133.144 143.689 132.892 143.929 132.568 143.929Z" fill="black"/>
</g>
<rect x="1" y="2.7186" width="231.729" height="163.844" rx="19" stroke="#FF7A00" stroke-width="2"/>
</g>
<defs>
<filter id="filter0_b_107_102" x="-12.0302" y="-10.3116" width="257.789" height="189.905" filterUnits="userSpaceOnUse" color-interpolation-filters="sRGB">
<feFlood flood-opacity="0" result="BackgroundImageFix"/>
<feGaussianBlur in="BackgroundImageFix" stdDeviation="6.01508"/>
<feComposite in2="SourceAlpha" operator="in" result="effect1_backgroundBlur_107_102"/>
<feBlend mode="normal" in="SourceGraphic" in2="effect1_backgroundBlur_107_102" result="shape"/>
</filter>
<clipPath id="clip0_107_102">
<rect y="1.7186" width="233.729" height="165.844" rx="20" fill="white"/>
</clipPath>
</defs>
</svg>
