<svg width="234" height="171" viewBox="0 0 234 171" fill="none" xmlns="http://www.w3.org/2000/svg">
<g filter="url(#filter0_b_107_100)">
<rect y="1.7186" width="233.729" height="165.844" rx="20" fill="white" fill-opacity="0.2"/>
<rect x="1" y="2.7186" width="231.729" height="163.844" rx="19" stroke="#FF7A00" stroke-width="2"/>
<path d="M24.936 44.1146C18.039 44.1146 12.825 39.0326 12.825 32.3336C12.825 25.6346 18.039 20.5526 24.936 20.5526C29.259 20.5526 32.922 22.5326 35.067 25.6676L29.622 29.0336C28.599 27.5486 26.916 26.6246 24.936 26.6246C21.735 26.6246 19.293 29.0666 19.293 32.3336C19.293 35.6006 21.735 38.0426 24.936 38.0426C26.916 38.0426 28.599 37.1186 29.622 35.6336L35.067 38.9996C32.922 42.1346 29.259 44.1146 24.936 44.1146ZM49.7254 26.8886H55.6654V43.7186H49.7254V42.6626C48.5704 43.5866 47.1514 44.1146 45.5014 44.1146C40.9474 44.1146 37.5484 40.3196 37.5484 35.3036C37.5484 30.2876 40.9474 26.4926 45.5014 26.4926C47.1514 26.4926 48.5704 27.0206 49.7254 27.9446V26.8886ZM46.6894 38.3726C48.4384 38.3726 49.7254 37.0526 49.7254 35.3036C49.7254 33.5546 48.4384 32.2346 46.6894 32.2346C44.9404 32.2346 43.6534 33.5546 43.6534 35.3036C43.6534 37.0526 44.9404 38.3726 46.6894 38.3726ZM81.11 26.4926C84.872 26.4926 87.281 28.9346 87.281 32.6636V43.7186H81.341V34.4786C81.341 33.1256 80.516 32.2346 79.229 32.2346C77.876 32.2346 76.919 33.1586 76.919 34.5446V43.7186H70.979V34.4786C70.979 33.1256 70.154 32.2346 68.867 32.2346C67.514 32.2346 66.557 33.1586 66.557 34.5446V43.7186H60.617V26.8886H66.557V28.1426C67.745 27.0536 69.197 26.4926 70.913 26.4926C73.025 26.4926 74.708 27.3176 75.764 28.7696C77.15 27.2516 78.965 26.4926 81.11 26.4926ZM102.079 26.4926C106.633 26.4926 110.032 30.2876 110.032 35.3036C110.032 40.3196 106.633 44.1146 102.079 44.1146C100.429 44.1146 99.0104 43.5866 97.8554 42.6626V49.9886H91.9154V26.8886H97.8554V27.9446C99.0104 27.0206 100.429 26.4926 102.079 26.4926ZM100.891 38.3726C102.64 38.3726 103.927 37.0526 103.927 35.3036C103.927 33.5546 102.64 32.2346 100.891 32.2346C99.1424 32.2346 97.8554 33.5546 97.8554 35.3036C97.8554 37.0526 99.1424 38.3726 100.891 38.3726ZM125.445 26.8886H131.385V43.7186H125.445V42.6626C124.29 43.5866 122.871 44.1146 121.221 44.1146C116.667 44.1146 113.268 40.3196 113.268 35.3036C113.268 30.2876 116.667 26.4926 121.221 26.4926C122.871 26.4926 124.29 27.0206 125.445 27.9446V26.8886ZM122.409 38.3726C124.158 38.3726 125.445 37.0526 125.445 35.3036C125.445 33.5546 124.158 32.2346 122.409 32.2346C120.66 32.2346 119.373 33.5546 119.373 35.3036C119.373 37.0526 120.66 38.3726 122.409 38.3726ZM146.831 26.4926C150.56 26.4926 153.035 28.9346 153.035 32.6636V43.7186H147.095V34.6766C147.095 33.1916 146.204 32.2346 144.785 32.2346C143.3 32.2346 142.277 33.2246 142.277 34.7426V43.7186H136.337V26.8886H142.277V28.1426C143.531 27.0536 145.049 26.4926 146.831 26.4926ZM168.139 26.4926C171.868 26.4926 174.343 28.9346 174.343 32.6636V43.7186H168.403V34.6766C168.403 33.1916 167.512 32.2346 166.126 32.2346C164.608 32.2346 163.585 33.2246 163.585 34.7426V43.7186H157.645V19.9586H163.585V28.2746C164.839 27.0866 166.357 26.4926 168.139 26.4926ZM190.272 26.8886H196.212V43.7186H190.272V42.6626C189.117 43.5866 187.698 44.1146 186.048 44.1146C181.494 44.1146 178.095 40.3196 178.095 35.3036C178.095 30.2876 181.494 26.4926 186.048 26.4926C187.698 26.4926 189.117 27.0206 190.272 27.9446V26.8886ZM187.236 38.3726C188.985 38.3726 190.272 37.0526 190.272 35.3036C190.272 33.5546 188.985 32.2346 187.236 32.2346C185.487 32.2346 184.2 33.5546 184.2 35.3036C184.2 37.0526 185.487 38.3726 187.236 38.3726ZM207.334 44.1146C203.968 44.1146 201.592 42.8936 199.876 41.6396L202.417 38.0096C203.77 38.9666 205.255 39.6596 207.103 39.6596C208.324 39.6596 209.116 39.3626 209.116 38.8016C209.116 38.1746 208.126 37.9436 206.674 37.6466C204.1 37.1186 200.404 36.3266 200.404 32.1686C200.404 28.3406 203.671 26.4926 207.73 26.4926C210.865 26.4926 213.043 27.5486 214.693 28.6376L212.152 32.2676C210.799 31.5086 209.512 30.9476 207.961 30.9476C207.037 30.9476 206.245 31.1456 206.245 31.6736C206.245 32.2676 207.235 32.4986 208.621 32.7626C211.195 33.2576 214.957 34.0826 214.957 38.2406C214.957 42.1016 211.624 44.1146 207.334 44.1146ZM20.184 71.7786H29.787V77.7186H13.881V54.9486H29.622V60.8886H20.184V63.2976H28.566V69.2376H20.184V71.7786ZM43.325 58.9746C42.005 58.9746 41.411 59.6676 41.411 60.6576V60.8886H44.909V66.3006H41.411V77.7186H35.471V66.3006H33.227V60.8886H35.471V60.2616C35.471 56.4336 37.385 53.5626 41.972 53.5626C43.292 53.5626 44.315 53.7936 45.338 54.3216V59.5356C44.744 59.1726 44.051 58.9746 43.325 58.9746ZM65.4626 69.4356C65.4626 69.8976 65.4296 70.5576 65.3306 70.9866H53.9126C54.4406 72.3066 55.5956 73.0986 57.1466 73.0986C58.6976 73.0986 59.9186 72.3066 60.5456 71.6466L64.4396 75.0786C62.6246 76.9596 59.9846 78.1146 56.9816 78.1146C51.5696 78.1146 47.5106 74.2866 47.5106 69.2046C47.5106 64.2546 51.4046 60.4926 56.5526 60.4926C61.6346 60.4926 65.4626 64.2546 65.4626 69.4356ZM56.4866 65.5086C55.2656 65.5086 54.3086 66.3006 53.8466 67.5876H59.1266C58.6976 66.2676 57.6746 65.5086 56.4866 65.5086ZM80.1556 66.3006H76.2286V70.6896C76.2286 71.6796 76.7896 72.3726 78.0436 72.3726C78.8356 72.3726 79.5616 72.1086 80.1556 71.8116V77.3556C79.1326 77.8836 78.0766 78.1146 76.7566 78.1146C72.2026 78.1146 70.2886 75.3426 70.2886 71.6796V66.3006H68.0446V60.8886H70.2886V56.9286H76.2286V60.8886H80.1556V66.3006ZM87.4153 59.4366C85.3693 59.4366 83.8183 57.9186 83.8183 55.8726C83.8183 53.8266 85.3693 52.3086 87.4153 52.3086C89.4613 52.3086 91.0123 53.8266 91.0123 55.8726C91.0123 57.9186 89.4613 59.4366 87.4153 59.4366ZM84.4453 77.7186V60.8886H90.3853V77.7186H84.4453ZM106.003 60.8886H112.636L106.102 77.7186H100.03L93.4963 60.8886H100.261L103.132 69.8316L106.003 60.8886ZM126.135 60.8886H132.075V77.7186H126.135V76.6626C124.98 77.5866 123.561 78.1146 121.911 78.1146C117.357 78.1146 113.958 74.3196 113.958 69.3036C113.958 64.2876 117.357 60.4926 121.911 60.4926C123.561 60.4926 124.98 61.0206 126.135 61.9446V60.8886ZM123.099 72.3726C124.848 72.3726 126.135 71.0526 126.135 69.3036C126.135 67.5546 124.848 66.2346 123.099 66.2346C121.35 66.2346 120.063 67.5546 120.063 69.3036C120.063 71.0526 121.35 72.3726 123.099 72.3726ZM143.197 78.1146C139.831 78.1146 137.455 76.8936 135.739 75.6396L138.28 72.0096C139.633 72.9666 141.118 73.6596 142.966 73.6596C144.187 73.6596 144.979 73.3626 144.979 72.8016C144.979 72.1746 143.989 71.9436 142.537 71.6466C139.963 71.1186 136.267 70.3266 136.267 66.1686C136.267 62.3406 139.534 60.4926 143.593 60.4926C146.728 60.4926 148.906 61.5486 150.556 62.6376L148.015 66.2676C146.662 65.5086 145.375 64.9476 143.824 64.9476C142.9 64.9476 142.108 65.1456 142.108 65.6736C142.108 66.2676 143.098 66.4986 144.484 66.7626C147.058 67.2576 150.82 68.0826 150.82 72.2406C150.82 76.1016 147.487 78.1146 143.197 78.1146Z" fill="black"/>
<path d="M16.224 87.5894C18.6 87.5894 20.388 89.3654 20.388 91.7294C20.388 94.0934 18.6 95.8694 16.224 95.8694H13.068V87.5894H16.224ZM16.212 95.1734C18.168 95.1734 19.632 93.6974 19.632 91.7294C19.632 89.7614 18.168 88.2854 16.212 88.2854H13.8V95.1734H16.212ZM29.7592 92.8094C29.7592 92.9054 29.7472 93.0134 29.7352 93.1094H24.1192C24.2632 94.4294 25.3192 95.3654 26.7232 95.3654C27.7192 95.3654 28.5712 94.8854 29.0152 94.2014L29.5072 94.6094C28.9192 95.4734 27.8992 96.0134 26.6992 96.0134C24.8032 96.0134 23.3872 94.6214 23.3872 92.7974C23.3872 90.9734 24.7552 89.6054 26.5792 89.6054C28.3912 89.6054 29.7592 90.9734 29.7592 92.8094ZM26.5672 90.2534C25.2592 90.2534 24.2632 91.1774 24.1192 92.4854H29.0272C28.8832 91.1774 27.8752 90.2534 26.5672 90.2534ZM34.9686 96.0134C33.9366 96.0134 33.0966 95.6054 32.5566 95.0414L32.9526 94.5374C33.4086 95.0534 34.1166 95.3774 34.9566 95.3774C35.9166 95.3774 36.6366 94.9454 36.6366 94.2734C36.6366 93.5294 35.8326 93.3134 34.9446 93.0974C33.9126 92.8334 32.7606 92.5334 32.7606 91.3214C32.7606 90.2054 33.8046 89.6054 35.0046 89.6054C35.9286 89.6054 36.6726 89.9654 37.1646 90.4574L36.7686 90.9734C36.3606 90.5294 35.7366 90.2414 35.0166 90.2414C34.1646 90.2414 33.4806 90.6374 33.4806 91.2734C33.4806 92.0294 34.2966 92.2454 35.2086 92.4614C36.2286 92.7134 37.3566 93.0014 37.3566 94.2014C37.3566 95.3414 36.3126 96.0134 34.9686 96.0134ZM43.4576 96.0134C41.6096 96.0134 40.2176 94.6334 40.2176 92.8094C40.2176 90.9854 41.6096 89.6054 43.4576 89.6054C44.6696 89.6054 45.6896 90.2054 46.2416 91.1414L45.6296 91.5134C45.2096 90.7694 44.4056 90.2774 43.4576 90.2774C42.0176 90.2774 40.9376 91.3694 40.9376 92.8094C40.9376 94.2494 42.0176 95.3414 43.4576 95.3414C44.4056 95.3414 45.2096 94.8494 45.6296 94.1054L46.2416 94.4774C45.6896 95.4134 44.6696 96.0134 43.4576 96.0134ZM52.1083 96.0134C50.4763 96.0134 49.3963 94.9934 49.3963 93.4574V89.7494H50.0923V93.3614C50.0923 94.5494 50.8963 95.3414 52.1083 95.3414C53.3203 95.3414 54.1123 94.5494 54.1123 93.3614V89.7494H54.8083V93.4574C54.8083 94.9934 53.7403 96.0134 52.1083 96.0134ZM61.7762 89.6054C63.5642 89.6054 64.8962 90.9854 64.8962 92.8094C64.8962 94.6334 63.5642 96.0134 61.7762 96.0134C60.6122 96.0134 59.6402 95.4014 59.1362 94.4534V95.8694H58.4402V87.2294H59.1362V91.1654C59.6402 90.2174 60.6122 89.6054 61.7762 89.6054ZM61.6562 95.3414C63.0962 95.3414 64.1762 94.2494 64.1762 92.8094C64.1762 91.3694 63.0962 90.2774 61.6562 90.2774C60.2162 90.2774 59.1362 91.3694 59.1362 92.8094C59.1362 94.2494 60.2162 95.3414 61.6562 95.3414ZM71.1972 89.6534H71.3772V90.3734H71.1972C69.7932 90.3734 68.8932 91.2854 68.8932 92.7134V95.8694H68.1972V89.7494H68.8932V91.0334C69.3372 90.1694 70.1532 89.6534 71.1972 89.6534ZM79.3925 89.7494H80.0885V95.8694H79.3925V94.4534C78.8885 95.4014 77.9285 96.0134 76.7525 96.0134C74.9765 96.0134 73.6445 94.6334 73.6445 92.8094C73.6445 90.9854 74.9765 89.6054 76.7525 89.6054C77.9285 89.6054 78.8885 90.2174 79.3925 91.1654V89.7494ZM76.8725 95.3414C78.3125 95.3414 79.3925 94.2494 79.3925 92.8094C79.3925 91.3694 78.3125 90.2774 76.8725 90.2774C75.4445 90.2774 74.3645 91.3694 74.3645 92.8094C74.3645 94.2494 75.4445 95.3414 76.8725 95.3414ZM91.5467 96.0134C89.6987 96.0134 88.3067 94.6334 88.3067 92.8094C88.3067 90.9854 89.6987 89.6054 91.5467 89.6054C92.7587 89.6054 93.7787 90.2054 94.3307 91.1414L93.7187 91.5134C93.2987 90.7694 92.4947 90.2774 91.5467 90.2774C90.1067 90.2774 89.0267 91.3694 89.0267 92.8094C89.0267 94.2494 90.1067 95.3414 91.5467 95.3414C92.4947 95.3414 93.2987 94.8494 93.7187 94.1054L94.3307 94.4774C93.7787 95.4134 92.7587 96.0134 91.5467 96.0134ZM100.366 96.0134C98.5182 96.0134 97.1262 94.6334 97.1262 92.8094C97.1262 90.9854 98.5182 89.6054 100.366 89.6054C102.202 89.6054 103.594 90.9854 103.594 92.8094C103.594 94.6334 102.202 96.0134 100.366 96.0134ZM100.366 95.3414C101.806 95.3414 102.874 94.2494 102.874 92.8094C102.874 91.3694 101.806 90.2774 100.366 90.2774C98.9262 90.2774 97.8462 91.3694 97.8462 92.8094C97.8462 94.2494 98.9262 95.3414 100.366 95.3414ZM114.165 89.6054C115.581 89.6054 116.505 90.5294 116.505 91.9334V95.8694H115.809V92.1254C115.809 91.0094 115.089 90.2774 113.973 90.2774C112.821 90.2774 112.053 91.0214 112.053 92.1494V95.8694H111.357V92.1254C111.357 91.0094 110.625 90.2774 109.521 90.2774C108.369 90.2774 107.589 91.0214 107.589 92.1494V95.8694H106.893V89.7494H107.589V90.7574C108.021 90.0254 108.765 89.6054 109.725 89.6054C110.757 89.6054 111.537 90.1094 111.873 90.9494C112.281 90.0974 113.097 89.6054 114.165 89.6054ZM122.974 96.0134C121.126 96.0134 119.734 94.6334 119.734 92.8094C119.734 90.9854 121.126 89.6054 122.974 89.6054C124.81 89.6054 126.202 90.9854 126.202 92.8094C126.202 94.6334 124.81 96.0134 122.974 96.0134ZM122.974 95.3414C124.414 95.3414 125.482 94.2494 125.482 92.8094C125.482 91.3694 124.414 90.2774 122.974 90.2774C121.534 90.2774 120.454 91.3694 120.454 92.8094C120.454 94.2494 121.534 95.3414 122.974 95.3414ZM141.69 89.6054C143.106 89.6054 144.03 90.5294 144.03 91.9334V95.8694H143.334V92.1254C143.334 91.0094 142.614 90.2774 141.498 90.2774C140.346 90.2774 139.578 91.0214 139.578 92.1494V95.8694H138.882V92.1254C138.882 91.0094 138.15 90.2774 137.046 90.2774C135.894 90.2774 135.114 91.0214 135.114 92.1494V95.8694H134.418V89.7494H135.114V90.7574C135.546 90.0254 136.29 89.6054 137.25 89.6054C138.282 89.6054 139.062 90.1094 139.398 90.9494C139.806 90.0974 140.622 89.6054 141.69 89.6054ZM153.019 89.7494H153.715V95.8694H153.019V94.4534C152.515 95.4014 151.555 96.0134 150.379 96.0134C148.603 96.0134 147.271 94.6334 147.271 92.8094C147.271 90.9854 148.603 89.6054 150.379 89.6054C151.555 89.6054 152.515 90.2174 153.019 91.1654V89.7494ZM150.499 95.3414C151.939 95.3414 153.019 94.2494 153.019 92.8094C153.019 91.3694 151.939 90.2774 150.499 90.2774C149.071 90.2774 147.991 91.3694 147.991 92.8094C147.991 94.2494 149.071 95.3414 150.499 95.3414ZM162.824 95.8694H161.96L159.872 93.2414L157.784 95.8694H156.932L159.392 92.7974L156.968 89.7494H157.82L159.884 92.3414L161.936 89.7494H162.788L160.364 92.7974L162.824 95.8694ZM166.392 88.3094C166.116 88.3094 165.888 88.0934 165.888 87.8054C165.888 87.5294 166.116 87.3134 166.392 87.3134C166.68 87.3134 166.908 87.5294 166.908 87.8054C166.908 88.0934 166.68 88.3094 166.392 88.3094ZM166.044 95.8694V89.7494H166.74V95.8694H166.044ZM177.718 89.6054C179.134 89.6054 180.058 90.5294 180.058 91.9334V95.8694H179.362V92.1254C179.362 91.0094 178.642 90.2774 177.526 90.2774C176.374 90.2774 175.606 91.0214 175.606 92.1494V95.8694H174.91V92.1254C174.91 91.0094 174.178 90.2774 173.074 90.2774C171.922 90.2774 171.142 91.0214 171.142 92.1494V95.8694H170.446V89.7494H171.142V90.7574C171.574 90.0254 172.318 89.6054 173.278 89.6054C174.31 89.6054 175.09 90.1094 175.426 90.9494C175.834 90.0974 176.65 89.6054 177.718 89.6054ZM184.031 88.3094C183.755 88.3094 183.527 88.0934 183.527 87.8054C183.527 87.5294 183.755 87.3134 184.031 87.3134C184.319 87.3134 184.547 87.5294 184.547 87.8054C184.547 88.0934 184.319 88.3094 184.031 88.3094ZM183.683 95.8694V89.7494H184.379V95.8694H183.683ZM188.697 95.1974H192.573V95.8694H187.713V95.3654L191.505 90.4214H187.761V89.7494H192.489V90.2534L188.697 95.1974ZM200.967 89.7494H201.663V95.8694H200.967V94.4534C200.463 95.4014 199.503 96.0134 198.327 96.0134C196.551 96.0134 195.219 94.6334 195.219 92.8094C195.219 90.9854 196.551 89.6054 198.327 89.6054C199.503 89.6054 200.463 90.2174 200.967 91.1654V89.7494ZM198.447 95.3414C199.887 95.3414 200.967 94.2494 200.967 92.8094C200.967 91.3694 199.887 90.2774 198.447 90.2774C197.019 90.2774 195.939 91.3694 195.939 92.8094C195.939 94.2494 197.019 95.3414 198.447 95.3414ZM208.361 89.6534H208.541V90.3734H208.361C206.957 90.3734 206.057 91.2854 206.057 92.7134V95.8694H205.361V89.7494H206.057V91.0334C206.501 90.1694 207.317 89.6534 208.361 89.6534ZM15.792 112.013C13.944 112.013 12.552 110.633 12.552 108.809C12.552 106.985 13.944 105.605 15.792 105.605C17.628 105.605 19.02 106.985 19.02 108.809C19.02 110.633 17.628 112.013 15.792 112.013ZM15.792 111.341C17.232 111.341 18.3 110.249 18.3 108.809C18.3 107.369 17.232 106.277 15.792 106.277C14.352 106.277 13.272 107.369 13.272 108.809C13.272 110.249 14.352 111.341 15.792 111.341ZM30.2355 105.653H30.4155V106.373H30.2355C28.8315 106.373 27.9315 107.285 27.9315 108.713V111.869H27.2355V105.749H27.9315V107.033C28.3755 106.169 29.1915 105.653 30.2355 105.653ZM39.0427 108.809C39.0427 108.905 39.0308 109.013 39.0188 109.109H33.4027C33.5467 110.429 34.6027 111.365 36.0067 111.365C37.0027 111.365 37.8547 110.885 38.2988 110.201L38.7908 110.609C38.2027 111.473 37.1827 112.013 35.9827 112.013C34.0867 112.013 32.6707 110.621 32.6707 108.797C32.6707 106.973 34.0387 105.605 35.8627 105.605C37.6747 105.605 39.0427 106.973 39.0427 108.809ZM35.8507 106.253C34.5427 106.253 33.5467 107.177 33.4027 108.485H38.3108C38.1667 107.177 37.1587 106.253 35.8507 106.253ZM45.2586 106.385H43.3026V110.297C43.3026 111.053 43.7106 111.341 44.3826 111.341C44.7426 111.341 45.0066 111.245 45.2586 111.113V111.773C44.9586 111.929 44.6706 112.013 44.2506 112.013C43.1946 112.013 42.6066 111.473 42.6066 110.405V106.385H41.4186V105.749H42.6066V104.045H43.3026V105.749H45.2586V106.385ZM51.0303 112.013C49.1823 112.013 47.7903 110.633 47.7903 108.809C47.7903 106.985 49.1823 105.605 51.0303 105.605C52.8663 105.605 54.2583 106.985 54.2583 108.809C54.2583 110.633 52.8663 112.013 51.0303 112.013ZM51.0303 111.341C52.4703 111.341 53.5383 110.249 53.5383 108.809C53.5383 107.369 52.4703 106.277 51.0303 106.277C49.5903 106.277 48.5103 107.369 48.5103 108.809C48.5103 110.249 49.5903 111.341 51.0303 111.341ZM60.5566 105.653H60.7366V106.373H60.5566C59.1526 106.373 58.2526 107.285 58.2526 108.713V111.869H57.5566V105.749H58.2526V107.033C58.6966 106.169 59.5126 105.653 60.5566 105.653ZM66.8231 105.605C68.3591 105.605 69.3911 106.613 69.3911 108.161V111.869H68.6951V108.365C68.6951 107.105 67.8671 106.277 66.6191 106.277C65.3231 106.277 64.4471 107.117 64.4471 108.389V111.869H63.7511V105.749H64.4471V106.901C64.9031 106.073 65.7431 105.605 66.8231 105.605ZM75.86 112.013C74.012 112.013 72.62 110.633 72.62 108.809C72.62 106.985 74.012 105.605 75.86 105.605C77.696 105.605 79.088 106.985 79.088 108.809C79.088 110.633 77.696 112.013 75.86 112.013ZM75.86 111.341C77.3 111.341 78.368 110.249 78.368 108.809C78.368 107.369 77.3 106.277 75.86 106.277C74.42 106.277 73.34 107.369 73.34 108.809C73.34 110.249 74.42 111.341 75.86 111.341ZM92.6675 103.229H93.3635V111.869H92.6675V110.453C92.1635 111.401 91.2035 112.013 90.0275 112.013C88.2515 112.013 86.9195 110.633 86.9195 108.809C86.9195 106.985 88.2515 105.605 90.0275 105.605C91.2035 105.605 92.1635 106.217 92.6675 107.165V103.229ZM90.1475 111.341C91.5875 111.341 92.6675 110.249 92.6675 108.809C92.6675 107.369 91.5875 106.277 90.1475 106.277C88.7195 106.277 87.6395 107.369 87.6395 108.809C87.6395 110.249 88.7195 111.341 90.1475 111.341ZM99.9045 112.013C98.0565 112.013 96.6645 110.633 96.6645 108.809C96.6645 106.985 98.0565 105.605 99.9045 105.605C101.741 105.605 103.133 106.985 103.133 108.809C103.133 110.633 101.741 112.013 99.9045 112.013ZM99.9045 111.341C101.345 111.341 102.413 110.249 102.413 108.809C102.413 107.369 101.345 106.277 99.9045 106.277C98.4645 106.277 97.3845 107.369 97.3845 108.809C97.3845 110.249 98.4645 111.341 99.9045 111.341ZM108.375 112.013C107.343 112.013 106.503 111.605 105.963 111.041L106.359 110.537C106.815 111.053 107.523 111.377 108.363 111.377C109.323 111.377 110.043 110.945 110.043 110.273C110.043 109.529 109.239 109.313 108.351 109.097C107.319 108.833 106.167 108.533 106.167 107.321C106.167 106.205 107.211 105.605 108.411 105.605C109.335 105.605 110.079 105.965 110.571 106.457L110.175 106.973C109.767 106.529 109.143 106.241 108.423 106.241C107.571 106.241 106.887 106.637 106.887 107.273C106.887 108.029 107.703 108.245 108.615 108.461C109.635 108.713 110.763 109.001 110.763 110.201C110.763 111.341 109.719 112.013 108.375 112.013ZM120.881 112.013C119.849 112.013 119.009 111.605 118.469 111.041L118.865 110.537C119.321 111.053 120.029 111.377 120.869 111.377C121.829 111.377 122.549 110.945 122.549 110.273C122.549 109.529 121.745 109.313 120.857 109.097C119.825 108.833 118.673 108.533 118.673 107.321C118.673 106.205 119.717 105.605 120.917 105.605C121.841 105.605 122.585 105.965 123.077 106.457L122.681 106.973C122.273 106.529 121.649 106.241 120.929 106.241C120.077 106.241 119.393 106.637 119.393 107.273C119.393 108.029 120.209 108.245 121.121 108.461C122.141 108.713 123.269 109.001 123.269 110.201C123.269 111.341 122.225 112.013 120.881 112.013ZM132.502 108.809C132.502 108.905 132.49 109.013 132.478 109.109H126.862C127.006 110.429 128.062 111.365 129.466 111.365C130.462 111.365 131.314 110.885 131.758 110.201L132.25 110.609C131.662 111.473 130.642 112.013 129.442 112.013C127.546 112.013 126.13 110.621 126.13 108.797C126.13 106.973 127.498 105.605 129.322 105.605C131.134 105.605 132.502 106.973 132.502 108.809ZM129.31 106.253C128.002 106.253 127.006 107.177 126.862 108.485H131.77C131.626 107.177 130.618 106.253 129.31 106.253ZM138.408 112.013C136.776 112.013 135.696 110.993 135.696 109.457V105.749H136.392V109.361C136.392 110.549 137.196 111.341 138.408 111.341C139.62 111.341 140.412 110.549 140.412 109.361V105.749H141.108V109.457C141.108 110.993 140.04 112.013 138.408 112.013ZM146.683 112.013C145.651 112.013 144.811 111.605 144.271 111.041L144.667 110.537C145.123 111.053 145.831 111.377 146.671 111.377C147.631 111.377 148.351 110.945 148.351 110.273C148.351 109.529 147.547 109.313 146.659 109.097C145.627 108.833 144.475 108.533 144.475 107.321C144.475 106.205 145.519 105.605 146.719 105.605C147.643 105.605 148.387 105.965 148.879 106.457L148.483 106.973C148.075 106.529 147.451 106.241 146.731 106.241C145.879 106.241 145.195 106.637 145.195 107.273C145.195 108.029 146.011 108.245 146.923 108.461C147.943 108.713 149.071 109.001 149.071 110.201C149.071 111.341 148.027 112.013 146.683 112.013ZM13.296 120.309C13.02 120.309 12.792 120.093 12.792 119.805C12.792 119.529 13.02 119.313 13.296 119.313C13.584 119.313 13.812 119.529 13.812 119.805C13.812 120.093 13.584 120.309 13.296 120.309ZM12.948 127.869V121.749H13.644V127.869H12.948ZM20.4216 121.605C21.9576 121.605 22.9896 122.613 22.9896 124.161V127.869H22.2936V124.365C22.2936 123.105 21.4656 122.277 20.2176 122.277C18.9216 122.277 18.0456 123.117 18.0456 124.389V127.869H17.3496V121.749H18.0456V122.901C18.5016 122.073 19.3416 121.605 20.4216 121.605ZM31.1574 121.749H31.9374L29.1534 127.869H28.3974L25.6134 121.749H26.4174L28.7934 127.065L31.1574 121.749ZM40.5545 124.809C40.5545 124.905 40.5425 125.013 40.5305 125.109H34.9145C35.0585 126.429 36.1145 127.365 37.5185 127.365C38.5145 127.365 39.3665 126.885 39.8105 126.201L40.3025 126.609C39.7145 127.473 38.6945 128.013 37.4945 128.013C35.5985 128.013 34.1825 126.621 34.1825 124.797C34.1825 122.973 35.5505 121.605 37.3745 121.605C39.1865 121.605 40.5545 122.973 40.5545 124.809ZM37.3625 122.253C36.0545 122.253 35.0585 123.177 34.9145 124.485H39.8225C39.6785 123.177 38.6705 122.253 37.3625 122.253ZM45.7639 128.013C44.7319 128.013 43.8919 127.605 43.3519 127.041L43.7479 126.537C44.2039 127.053 44.9119 127.377 45.7519 127.377C46.7119 127.377 47.4319 126.945 47.4319 126.273C47.4319 125.529 46.6279 125.313 45.7399 125.097C44.7079 124.833 43.5559 124.533 43.5559 123.321C43.5559 122.205 44.5999 121.605 45.7999 121.605C46.7239 121.605 47.4679 121.965 47.9599 122.457L47.5639 122.973C47.1559 122.529 46.5319 122.241 45.8119 122.241C44.9599 122.241 44.2759 122.637 44.2759 123.273C44.2759 124.029 45.0919 124.245 46.0039 124.461C47.0239 124.713 48.1519 125.001 48.1519 126.201C48.1519 127.341 47.1079 128.013 45.7639 128.013ZM54.5703 122.385H52.6143V126.297C52.6143 127.053 53.0223 127.341 53.6943 127.341C54.0543 127.341 54.3183 127.245 54.5703 127.113V127.773C54.2703 127.929 53.9823 128.013 53.5623 128.013C52.5063 128.013 51.9183 127.473 51.9183 126.405V122.385H50.7303V121.749H51.9183V120.045H52.6143V121.749H54.5703V122.385ZM58.139 120.309C57.863 120.309 57.635 120.093 57.635 119.805C57.635 119.529 57.863 119.313 58.139 119.313C58.427 119.313 58.655 119.529 58.655 119.805C58.655 120.093 58.427 120.309 58.139 120.309ZM57.791 127.869V121.749H58.487V127.869H57.791ZM69.4645 121.605C70.8805 121.605 71.8045 122.529 71.8045 123.933V127.869H71.1085V124.125C71.1085 123.009 70.3885 122.277 69.2725 122.277C68.1205 122.277 67.3525 123.021 67.3525 124.149V127.869H66.6565V124.125C66.6565 123.009 65.9245 122.277 64.8205 122.277C63.6685 122.277 62.8885 123.021 62.8885 124.149V127.869H62.1925V121.749H62.8885V122.757C63.3205 122.025 64.0645 121.605 65.0245 121.605C66.0565 121.605 66.8365 122.109 67.1725 122.949C67.5805 122.097 68.3965 121.605 69.4645 121.605ZM81.406 124.809C81.406 124.905 81.394 125.013 81.382 125.109H75.766C75.91 126.429 76.966 127.365 78.37 127.365C79.366 127.365 80.218 126.885 80.662 126.201L81.154 126.609C80.566 127.473 79.546 128.013 78.346 128.013C76.45 128.013 75.034 126.621 75.034 124.797C75.034 122.973 76.402 121.605 78.226 121.605C80.038 121.605 81.406 122.973 81.406 124.809ZM78.214 122.253C76.906 122.253 75.91 123.177 75.766 124.485H80.674C80.53 123.177 79.522 122.253 78.214 122.253ZM87.7434 121.605C89.2794 121.605 90.3114 122.613 90.3114 124.161V127.869H89.6154V124.365C89.6154 123.105 88.7874 122.277 87.5394 122.277C86.2434 122.277 85.3674 123.117 85.3674 124.389V127.869H84.6714V121.749H85.3674V122.901C85.8234 122.073 86.6634 121.605 87.7434 121.605ZM96.9336 122.385H94.9776V126.297C94.9776 127.053 95.3856 127.341 96.0576 127.341C96.4176 127.341 96.6816 127.245 96.9336 127.113V127.773C96.6336 127.929 96.3456 128.013 95.9256 128.013C94.8696 128.013 94.2816 127.473 94.2816 126.405V122.385H93.0936V121.749H94.2816V120.045H94.9776V121.749H96.9336V122.385ZM102.705 128.013C100.857 128.013 99.4653 126.633 99.4653 124.809C99.4653 122.985 100.857 121.605 102.705 121.605C104.541 121.605 105.933 122.985 105.933 124.809C105.933 126.633 104.541 128.013 102.705 128.013ZM102.705 127.341C104.145 127.341 105.213 126.249 105.213 124.809C105.213 123.369 104.145 122.277 102.705 122.277C101.265 122.277 100.185 123.369 100.185 124.809C100.185 126.249 101.265 127.341 102.705 127.341ZM111.176 128.013C110.144 128.013 109.304 127.605 108.764 127.041L109.16 126.537C109.616 127.053 110.324 127.377 111.164 127.377C112.124 127.377 112.844 126.945 112.844 126.273C112.844 125.529 112.04 125.313 111.152 125.097C110.12 124.833 108.968 124.533 108.968 123.321C108.968 122.205 110.012 121.605 111.212 121.605C112.136 121.605 112.88 121.965 113.372 122.457L112.976 122.973C112.568 122.529 111.944 122.241 111.224 122.241C110.372 122.241 109.688 122.637 109.688 123.273C109.688 124.029 110.504 124.245 111.416 124.461C112.436 124.713 113.564 125.001 113.564 126.201C113.564 127.341 112.52 128.013 111.176 128.013ZM127.714 124.809C127.714 124.905 127.702 125.013 127.69 125.109H122.074C122.218 126.429 123.274 127.365 124.678 127.365C125.674 127.365 126.526 126.885 126.97 126.201L127.462 126.609C126.874 127.473 125.854 128.013 124.654 128.013C122.758 128.013 121.342 126.621 121.342 124.797C121.342 122.973 122.71 121.605 124.534 121.605C126.346 121.605 127.714 122.973 127.714 124.809ZM124.522 122.253C123.214 122.253 122.218 123.177 122.074 124.485H126.982C126.838 123.177 125.83 122.253 124.522 122.253ZM138.251 121.605C139.667 121.605 140.591 122.529 140.591 123.933V127.869H139.895V124.125C139.895 123.009 139.175 122.277 138.059 122.277C136.907 122.277 136.139 123.021 136.139 124.149V127.869H135.443V124.125C135.443 123.009 134.711 122.277 133.607 122.277C132.455 122.277 131.675 123.021 131.675 124.149V127.869H130.979V121.749H131.675V122.757C132.107 122.025 132.851 121.605 133.811 121.605C134.843 121.605 135.623 122.109 135.959 122.949C136.367 122.097 137.183 121.605 138.251 121.605ZM16.284 137.605C18.072 137.605 19.404 138.985 19.404 140.809C19.404 142.633 18.072 144.013 16.284 144.013C15.12 144.013 14.148 143.401 13.644 142.453V146.149H12.948V137.749H13.644V139.165C14.148 138.217 15.12 137.605 16.284 137.605ZM16.164 143.341C17.604 143.341 18.684 142.249 18.684 140.809C18.684 139.369 17.604 138.277 16.164 138.277C14.724 138.277 13.644 139.369 13.644 140.809C13.644 142.249 14.724 143.341 16.164 143.341ZM25.345 144.013C23.713 144.013 22.633 142.993 22.633 141.457V137.749H23.329V141.361C23.329 142.549 24.133 143.341 25.345 143.341C26.557 143.341 27.349 142.549 27.349 141.361V137.749H28.045V141.457C28.045 142.993 26.977 144.013 25.345 144.013ZM35.0129 137.605C36.8009 137.605 38.1329 138.985 38.1329 140.809C38.1329 142.633 36.8009 144.013 35.0129 144.013C33.8489 144.013 32.8769 143.401 32.3729 142.453V143.869H31.6769V135.229H32.3729V139.165C32.8769 138.217 33.8489 137.605 35.0129 137.605ZM34.8929 143.341C36.3329 143.341 37.4129 142.249 37.4129 140.809C37.4129 139.369 36.3329 138.277 34.8929 138.277C33.4529 138.277 32.3729 139.369 32.3729 140.809C32.3729 142.249 33.4529 143.341 34.8929 143.341ZM41.4339 143.869V135.229H42.1299V143.869H41.4339ZM46.1835 136.309C45.9075 136.309 45.6795 136.093 45.6795 135.805C45.6795 135.529 45.9075 135.313 46.1835 135.313C46.4715 135.313 46.6995 135.529 46.6995 135.805C46.6995 136.093 46.4715 136.309 46.1835 136.309ZM45.8355 143.869V137.749H46.5315V143.869H45.8355ZM53.0811 144.013C51.2331 144.013 49.8411 142.633 49.8411 140.809C49.8411 138.985 51.2331 137.605 53.0811 137.605C54.2931 137.605 55.3131 138.205 55.8651 139.141L55.2531 139.513C54.8331 138.769 54.0291 138.277 53.0811 138.277C51.6411 138.277 50.5611 139.369 50.5611 140.809C50.5611 142.249 51.6411 143.341 53.0811 143.341C54.0291 143.341 54.8331 142.849 55.2531 142.105L55.8651 142.477C55.3131 143.413 54.2931 144.013 53.0811 144.013ZM59.4397 136.309C59.1637 136.309 58.9357 136.093 58.9357 135.805C58.9357 135.529 59.1637 135.313 59.4397 135.313C59.7277 135.313 59.9557 135.529 59.9557 135.805C59.9557 136.093 59.7277 136.309 59.4397 136.309ZM59.0917 143.869V137.749H59.7877V143.869H59.0917ZM68.8573 135.229H69.5533V143.869H68.8573V142.453C68.3533 143.401 67.3933 144.013 66.2173 144.013C64.4413 144.013 63.1093 142.633 63.1093 140.809C63.1093 138.985 64.4413 137.605 66.2173 137.605C67.3933 137.605 68.3533 138.217 68.8573 139.165V135.229ZM66.3373 143.341C67.7773 143.341 68.8573 142.249 68.8573 140.809C68.8573 139.369 67.7773 138.277 66.3373 138.277C64.9093 138.277 63.8293 139.369 63.8293 140.809C63.8293 142.249 64.9093 143.341 66.3373 143.341ZM78.6143 137.749H79.3103V143.869H78.6143V142.453C78.1103 143.401 77.1503 144.013 75.9743 144.013C74.1983 144.013 72.8663 142.633 72.8663 140.809C72.8663 138.985 74.1983 137.605 75.9743 137.605C77.1503 137.605 78.1103 138.217 78.6143 139.165V137.749ZM76.0943 143.341C77.5343 143.341 78.6143 142.249 78.6143 140.809C78.6143 139.369 77.5343 138.277 76.0943 138.277C74.6663 138.277 73.5863 139.369 73.5863 140.809C73.5863 142.249 74.6663 143.341 76.0943 143.341ZM88.3714 135.229H89.0674V143.869H88.3714V142.453C87.8674 143.401 86.9074 144.013 85.7314 144.013C83.9554 144.013 82.6234 142.633 82.6234 140.809C82.6234 138.985 83.9554 137.605 85.7314 137.605C86.9074 137.605 87.8674 138.217 88.3714 139.165V135.229ZM85.8514 143.341C87.2914 143.341 88.3714 142.249 88.3714 140.809C88.3714 139.369 87.2914 138.277 85.8514 138.277C84.4234 138.277 83.3434 139.369 83.3434 140.809C83.3434 142.249 84.4234 143.341 85.8514 143.341ZM98.7404 140.809C98.7404 140.905 98.7284 141.013 98.7164 141.109H93.1004C93.2444 142.429 94.3004 143.365 95.7044 143.365C96.7004 143.365 97.5524 142.885 97.9964 142.201L98.4884 142.609C97.9004 143.473 96.8804 144.013 95.6804 144.013C93.7844 144.013 92.3684 142.621 92.3684 140.797C92.3684 138.973 93.7364 137.605 95.5604 137.605C97.3724 137.605 98.7404 138.973 98.7404 140.809ZM95.5484 138.253C94.2404 138.253 93.2444 139.177 93.1004 140.485H98.0084C97.8644 139.177 96.8564 138.253 95.5484 138.253ZM102.155 143.929C101.831 143.929 101.591 143.689 101.591 143.365C101.591 143.041 101.831 142.801 102.155 142.801C102.479 142.801 102.731 143.041 102.731 143.365C102.731 143.689 102.479 143.929 102.155 143.929Z" fill="black"/>
</g>
<defs>
<filter id="filter0_b_107_100" x="-12.0302" y="-10.3116" width="257.789" height="189.905" filterUnits="userSpaceOnUse" color-interpolation-filters="sRGB">
<feFlood flood-opacity="0" result="BackgroundImageFix"/>
<feGaussianBlur in="BackgroundImageFix" stdDeviation="6.01508"/>
<feComposite in2="SourceAlpha" operator="in" result="effect1_backgroundBlur_107_100"/>
<feBlend mode="normal" in="SourceGraphic" in2="effect1_backgroundBlur_107_100" result="shape"/>
</filter>
</defs>
</svg>
