<svg width="613" height="128" viewBox="0 0 613 128" fill="none" xmlns="http://www.w3.org/2000/svg">
<path d="M32.5997 82.1208C15.2188 82.1208 2.07906 69.3137 2.07906 52.4317C2.07906 35.5497 15.2188 22.7427 32.5997 22.7427C43.494 22.7427 52.7251 27.7324 58.1307 35.6329L44.4088 44.1155C41.8308 40.3732 37.5895 38.0446 32.5997 38.0446C24.533 38.0446 18.3789 44.1986 18.3789 52.4317C18.3789 60.6648 24.533 66.8189 32.5997 66.8189C37.5895 66.8189 41.8308 64.4903 44.4088 60.748L58.1307 69.2306C52.7251 77.131 43.494 82.1208 32.5997 82.1208ZM90.913 38.7099H105.882V81.1228H90.913V78.4616C88.0023 80.7902 84.4263 82.1208 80.2682 82.1208C68.7917 82.1208 60.226 72.5571 60.226 59.9164C60.226 47.2757 68.7917 37.712 80.2682 37.712C84.4263 37.712 88.0023 39.0426 90.913 41.3711V38.7099ZM83.262 67.6505C87.6696 67.6505 90.913 64.324 90.913 59.9164C90.913 55.5088 87.6696 52.1822 83.262 52.1822C78.8544 52.1822 75.611 55.5088 75.611 59.9164C75.611 64.324 78.8544 67.6505 83.262 67.6505ZM165.846 37.712C175.327 37.712 181.398 43.866 181.398 53.2634V81.1228H166.429V57.8373C166.429 54.4276 164.349 52.1822 161.106 52.1822C157.696 52.1822 155.285 54.5108 155.285 58.0036V81.1228H140.315V57.8373C140.315 54.4276 138.236 52.1822 134.993 52.1822C131.583 52.1822 129.172 54.5108 129.172 58.0036V81.1228H114.202V38.7099H129.172V41.8701C132.166 39.1257 135.825 37.712 140.149 37.712C145.472 37.712 149.713 39.791 152.374 43.4502C155.867 39.6247 160.441 37.712 165.846 37.712ZM214.533 37.712C226.009 37.712 234.575 47.2757 234.575 59.9164C234.575 72.5571 226.009 82.1208 214.533 82.1208C210.375 82.1208 206.799 80.7902 203.888 78.4616V96.9237H188.919V38.7099H203.888V41.3711C206.799 39.0426 210.375 37.712 214.533 37.712ZM211.539 67.6505C215.947 67.6505 219.19 64.324 219.19 59.9164C219.19 55.5088 215.947 52.1822 211.539 52.1822C207.131 52.1822 203.888 55.5088 203.888 59.9164C203.888 64.324 207.131 67.6505 211.539 67.6505ZM269.258 38.7099H284.227V81.1228H269.258V78.4616C266.347 80.7902 262.771 82.1208 258.613 82.1208C247.137 82.1208 238.571 72.5571 238.571 59.9164C238.571 47.2757 247.137 37.712 258.613 37.712C262.771 37.712 266.347 39.0426 269.258 41.3711V38.7099ZM261.607 67.6505C266.014 67.6505 269.258 64.324 269.258 59.9164C269.258 55.5088 266.014 52.1822 261.607 52.1822C257.199 52.1822 253.956 55.5088 253.956 59.9164C253.956 64.324 257.199 67.6505 261.607 67.6505ZM300.032 35.0508C294.876 35.0508 290.967 31.2253 290.967 26.0692C290.967 20.9131 294.876 17.0876 300.032 17.0876C305.188 17.0876 309.097 20.9131 309.097 26.0692C309.097 31.2253 305.188 35.0508 300.032 35.0508ZM292.547 81.1228V38.7099H307.516V81.1228H292.547ZM342.966 79.7922C351.865 79.7922 358.268 84.8652 360.264 93.5972L344.879 97.9217C344.463 95.6763 342.634 94.2625 340.056 94.2625H328.164C319.348 94.2625 313.527 89.1064 313.527 81.5386C313.527 76.7152 315.855 72.0581 319.681 69.7296C316.271 66.4031 314.192 61.8291 314.192 56.5899C314.192 45.7787 323.007 37.712 334.733 37.712C337.644 37.712 340.305 38.2109 342.717 39.1257C344.214 34.3023 348.788 31.3084 354.942 31.3084H358.684V45.1134H355.69C354.193 45.1134 352.946 45.6956 352.447 46.7767C354.277 49.6042 355.275 52.9307 355.275 56.5899C355.275 67.401 346.376 75.4678 334.733 75.4678C333.236 75.4678 331.74 75.3015 330.326 75.052C329.161 75.7173 328.496 76.7152 328.496 77.7132C328.496 78.9606 329.577 79.7922 331.157 79.7922H342.966ZM334.733 51.8496C331.74 51.8496 329.577 53.8455 329.577 56.5899C329.577 59.3342 331.74 61.3301 334.733 61.3301C337.644 61.3301 339.889 59.3342 339.889 56.5899C339.889 53.8455 337.644 51.8496 334.733 51.8496ZM389.405 37.712C398.802 37.712 405.04 43.866 405.04 53.2634V81.1228H390.07V58.3363C390.07 54.594 387.825 52.1822 384.249 52.1822C380.507 52.1822 377.929 54.6771 377.929 58.5026V81.1228H362.959V38.7099H377.929V41.8701C381.089 39.1257 384.914 37.712 389.405 37.712ZM444.741 23.7406H462.122L440.333 81.1228H424.116L402.328 23.7406H420.041L432.433 59.5006L444.741 23.7406ZM487.966 38.7099H502.935V81.1228H487.966V78.4616C485.055 80.7902 481.479 82.1208 477.321 82.1208C465.844 82.1208 457.279 72.5571 457.279 59.9164C457.279 47.2757 465.844 37.712 477.321 37.712C481.479 37.712 485.055 39.0426 487.966 41.3711V38.7099ZM480.315 67.6505C484.722 67.6505 487.966 64.324 487.966 59.9164C487.966 55.5088 484.722 52.1822 480.315 52.1822C475.907 52.1822 472.664 55.5088 472.664 59.9164C472.664 64.324 475.907 67.6505 480.315 67.6505ZM530.965 82.1208C518.573 82.1208 510.423 74.9688 510.423 64.0745V38.7099H525.393V61.9954C525.393 65.4051 527.638 67.6505 530.965 67.6505C534.291 67.6505 536.536 65.4051 536.536 61.9954V38.7099H551.506V64.0745C551.506 74.9688 543.356 82.1208 530.965 82.1208ZM559.009 81.1228V21.2458H573.978V81.1228H559.009ZM610.343 52.3486H600.446V63.4092C600.446 65.9041 601.86 67.6505 605.02 67.6505C607.016 67.6505 608.846 66.9852 610.343 66.2367V80.208C607.765 81.5386 605.103 82.1208 601.777 82.1208C590.3 82.1208 585.477 75.1351 585.477 65.9041V52.3486H579.822V38.7099H585.477V28.7304H600.446V38.7099H610.343V52.3486Z" fill="#FF7A00"/>
<path d="M97.3319 114.636C94.0663 114.636 91.5861 112.197 91.5861 108.952V100.126H92.8675V108.952C92.8675 111.473 94.769 113.396 97.3319 113.396C99.8741 113.396 101.776 111.473 101.776 108.952V100.126H103.057V108.952C103.057 112.197 100.577 114.636 97.3319 114.636ZM118.378 103.599C120.817 103.599 122.408 105.19 122.408 107.608V114.388H121.209V107.939C121.209 106.017 119.969 104.756 118.047 104.756C116.063 104.756 114.74 106.038 114.74 107.98V114.388H113.541V107.939C113.541 106.017 112.281 104.756 110.379 104.756C108.395 104.756 107.052 106.038 107.052 107.98V114.388H105.853V103.847H107.052V105.583C107.796 104.322 109.077 103.599 110.731 103.599C112.508 103.599 113.851 104.467 114.43 105.914C115.133 104.446 116.538 103.599 118.378 103.599ZM134.481 103.847H135.68V114.388H134.481V111.949C133.613 113.582 131.96 114.636 129.934 114.636C126.875 114.636 124.581 112.259 124.581 109.117C124.581 105.976 126.875 103.599 129.934 103.599C131.96 103.599 133.613 104.653 134.481 106.286V103.847ZM130.141 113.478C132.621 113.478 134.481 111.597 134.481 109.117C134.481 106.637 132.621 104.756 130.141 104.756C127.681 104.756 125.821 106.637 125.821 109.117C125.821 111.597 127.681 113.478 130.141 113.478ZM147.974 100.374C146.817 100.374 146.114 100.871 146.114 102.152V103.847H149.421V104.942H146.114V114.388H144.916V104.942H142.849V103.847H144.916V102.069C144.916 100.209 145.928 99.2584 147.726 99.2584C148.45 99.2584 148.946 99.4031 149.483 99.6718V100.747C149.029 100.499 148.595 100.374 147.974 100.374ZM160.804 109.117C160.804 109.283 160.783 109.469 160.763 109.634H151.09C151.338 111.907 153.157 113.52 155.575 113.52C157.29 113.52 158.758 112.693 159.522 111.515L160.37 112.217C159.357 113.706 157.6 114.636 155.533 114.636C152.268 114.636 149.829 112.238 149.829 109.097C149.829 105.955 152.185 103.599 155.327 103.599C158.448 103.599 160.804 105.955 160.804 109.117ZM155.306 104.715C153.053 104.715 151.338 106.306 151.09 108.559H159.543C159.295 106.306 157.559 104.715 155.306 104.715ZM168.185 103.681H168.495V104.922H168.185C165.767 104.922 164.217 106.492 164.217 108.952V114.388H163.018V103.847H164.217V106.058C164.981 104.57 166.387 103.681 168.185 103.681ZM175.444 103.681H175.754V104.922H175.444C173.026 104.922 171.476 106.492 171.476 108.952V114.388H170.277V103.847H171.476V106.058C172.24 104.57 173.646 103.681 175.444 103.681ZM186.149 103.847H187.348V114.388H186.149V111.949C185.281 113.582 183.627 114.636 181.602 114.636C178.543 114.636 176.249 112.259 176.249 109.117C176.249 105.976 178.543 103.599 181.602 103.599C183.627 103.599 185.281 104.653 186.149 106.286V103.847ZM181.808 113.478C184.289 113.478 186.149 111.597 186.149 109.117C186.149 106.637 184.289 104.756 181.808 104.756C179.349 104.756 177.489 106.637 177.489 109.117C177.489 111.597 179.349 113.478 181.808 113.478ZM202.83 103.599C205.269 103.599 206.86 105.19 206.86 107.608V114.388H205.662V107.939C205.662 106.017 204.421 104.756 202.499 104.756C200.515 104.756 199.192 106.038 199.192 107.98V114.388H197.994V107.939C197.994 106.017 196.733 104.756 194.831 104.756C192.847 104.756 191.504 106.038 191.504 107.98V114.388H190.305V103.847H191.504V105.583C192.248 104.322 193.529 103.599 195.183 103.599C196.96 103.599 198.304 104.467 198.882 105.914C199.585 104.446 200.991 103.599 202.83 103.599ZM219.987 109.117C219.987 109.283 219.967 109.469 219.946 109.634H210.273C210.521 111.907 212.34 113.52 214.758 113.52C216.474 113.52 217.941 112.693 218.706 111.515L219.553 112.217C218.541 113.706 216.784 114.636 214.717 114.636C211.451 114.636 209.012 112.238 209.012 109.097C209.012 105.955 211.369 103.599 214.51 103.599C217.631 103.599 219.987 105.955 219.987 109.117ZM214.49 104.715C212.237 104.715 210.521 106.306 210.273 108.559H218.727C218.479 106.306 216.742 104.715 214.49 104.715ZM227.492 103.599C230.138 103.599 231.915 105.335 231.915 108.001V114.388H230.717V108.352C230.717 106.182 229.291 104.756 227.141 104.756C224.909 104.756 223.4 106.203 223.4 108.394V114.388H222.201V103.847H223.4V105.831C224.185 104.405 225.632 103.599 227.492 103.599ZM239.911 104.942H236.542V111.68C236.542 112.982 237.245 113.478 238.402 113.478C239.022 113.478 239.477 113.313 239.911 113.086V114.222C239.394 114.491 238.898 114.636 238.175 114.636C236.356 114.636 235.343 113.706 235.343 111.866V104.942H233.297V103.847H235.343V100.912H236.542V103.847H239.911V104.942ZM250.782 103.847H251.981V114.388H250.782V111.949C249.914 113.582 248.26 114.636 246.235 114.636C243.176 114.636 240.882 112.259 240.882 109.117C240.882 105.976 243.176 103.599 246.235 103.599C248.26 103.599 249.914 104.653 250.782 106.286V103.847ZM246.442 113.478C248.922 113.478 250.782 111.597 250.782 109.117C250.782 106.637 248.922 104.756 246.442 104.756C243.982 104.756 242.122 106.637 242.122 109.117C242.122 111.597 243.982 113.478 246.442 113.478ZM269.236 103.847H270.435V118.315H269.236V111.949C268.368 113.582 266.714 114.636 264.689 114.636C261.63 114.636 259.336 112.259 259.336 109.117C259.336 105.976 261.63 103.599 264.689 103.599C266.714 103.599 268.368 104.653 269.236 106.286V103.847ZM264.895 113.478C267.376 113.478 269.236 111.597 269.236 109.117C269.236 106.637 267.376 104.756 264.895 104.756C262.436 104.756 260.576 106.637 260.576 109.117C260.576 111.597 262.436 113.478 264.895 113.478ZM277.939 114.636C275.128 114.636 273.268 112.879 273.268 110.233V103.847H274.467V110.068C274.467 112.114 275.851 113.478 277.939 113.478C280.026 113.478 281.391 112.114 281.391 110.068V103.847H282.589V110.233C282.589 112.879 280.75 114.636 277.939 114.636ZM295.727 109.117C295.727 109.283 295.707 109.469 295.686 109.634H286.013C286.261 111.907 288.08 113.52 290.498 113.52C292.214 113.52 293.681 112.693 294.446 111.515L295.293 112.217C294.281 113.706 292.524 114.636 290.457 114.636C287.191 114.636 284.752 112.238 284.752 109.097C284.752 105.955 287.109 103.599 290.25 103.599C293.371 103.599 295.727 105.955 295.727 109.117ZM290.23 104.715C287.977 104.715 286.261 106.306 286.013 108.559H294.467C294.219 106.306 292.482 104.715 290.23 104.715ZM308.746 103.599C311.826 103.599 314.12 105.976 314.12 109.117C314.12 112.259 311.826 114.636 308.746 114.636C306.741 114.636 305.067 113.582 304.199 111.949V118.315H303V103.847H304.199V106.286C305.067 104.653 306.741 103.599 308.746 103.599ZM308.539 113.478C311.02 113.478 312.88 111.597 312.88 109.117C312.88 106.637 311.02 104.756 308.539 104.756C306.059 104.756 304.199 106.637 304.199 109.117C304.199 111.597 306.059 113.478 308.539 113.478ZM321.562 103.681H321.872V104.922H321.562C319.144 104.922 317.594 106.492 317.594 108.952V114.388H316.395V103.847H317.594V106.058C318.359 104.57 319.764 103.681 321.562 103.681ZM327.927 114.636C324.744 114.636 322.346 112.259 322.346 109.117C322.346 105.976 324.744 103.599 327.927 103.599C331.089 103.599 333.487 105.976 333.487 109.117C333.487 112.259 331.089 114.636 327.927 114.636ZM327.927 113.478C330.407 113.478 332.246 111.597 332.246 109.117C332.246 106.637 330.407 104.756 327.927 104.756C325.447 104.756 323.586 106.637 323.586 109.117C323.586 111.597 325.447 113.478 327.927 113.478ZM348.282 103.599C350.721 103.599 352.313 105.19 352.313 107.608V114.388H351.114V107.939C351.114 106.017 349.874 104.756 347.952 104.756C345.967 104.756 344.645 106.038 344.645 107.98V114.388H343.446V107.939C343.446 106.017 342.185 104.756 340.284 104.756C338.299 104.756 336.956 106.038 336.956 107.98V114.388H335.757V103.847H336.956V105.583C337.7 104.322 338.981 103.599 340.635 103.599C342.412 103.599 343.756 104.467 344.335 105.914C345.037 104.446 346.443 103.599 348.282 103.599ZM365.44 109.117C365.44 109.283 365.419 109.469 365.398 109.634H355.725C355.973 111.907 357.792 113.52 360.21 113.52C361.926 113.52 363.393 112.693 364.158 111.515L365.006 112.217C363.993 113.706 362.236 114.636 360.169 114.636C356.904 114.636 354.465 112.238 354.465 109.097C354.465 105.955 356.821 103.599 359.962 103.599C363.083 103.599 365.44 105.955 365.44 109.117ZM359.942 104.715C357.689 104.715 355.973 106.306 355.725 108.559H364.179C363.931 106.306 362.195 104.715 359.942 104.715ZM372.735 104.942H369.366V111.68C369.366 112.982 370.069 113.478 371.226 113.478C371.846 113.478 372.301 113.313 372.735 113.086V114.222C372.218 114.491 371.722 114.636 370.999 114.636C369.18 114.636 368.167 113.706 368.167 111.866V104.942H366.121V103.847H368.167V100.912H369.366V103.847H372.735V104.942ZM384.66 109.117C384.66 109.283 384.64 109.469 384.619 109.634H374.946C375.194 111.907 377.013 113.52 379.431 113.52C381.147 113.52 382.614 112.693 383.379 111.515L384.226 112.217C383.214 113.706 381.457 114.636 379.39 114.636C376.124 114.636 373.685 112.238 373.685 109.097C373.685 105.955 376.042 103.599 379.183 103.599C382.304 103.599 384.66 105.955 384.66 109.117ZM379.163 104.715C376.91 104.715 375.194 106.306 374.946 108.559H383.4C383.152 106.306 381.415 104.715 379.163 104.715ZM397.762 104.942H394.393V111.68C394.393 112.982 395.095 113.478 396.253 113.478C396.873 113.478 397.328 113.313 397.762 113.086V114.222C397.245 114.491 396.749 114.636 396.026 114.636C394.207 114.636 393.194 113.706 393.194 111.866V104.942H391.148V103.847H393.194V100.912H394.393V103.847H397.762V104.942ZM409.687 109.117C409.687 109.283 409.666 109.469 409.646 109.634H399.973C400.221 111.907 402.04 113.52 404.458 113.52C406.173 113.52 407.641 112.693 408.405 111.515L409.253 112.217C408.24 113.706 406.483 114.636 404.416 114.636C401.151 114.636 398.712 112.238 398.712 109.097C398.712 105.955 401.068 103.599 404.21 103.599C407.331 103.599 409.687 105.955 409.687 109.117ZM404.189 104.715C401.936 104.715 400.221 106.306 399.973 108.559H408.426C408.178 106.306 406.442 104.715 404.189 104.715ZM426.199 99.5064H427.397V114.388H426.199V111.949C425.33 113.582 423.677 114.636 421.651 114.636C418.593 114.636 416.298 112.259 416.298 109.117C416.298 105.976 418.593 103.599 421.651 103.599C423.677 103.599 425.33 104.653 426.199 106.286V99.5064ZM421.858 113.478C424.338 113.478 426.199 111.597 426.199 109.117C426.199 106.637 424.338 104.756 421.858 104.756C419.399 104.756 417.538 106.637 417.538 109.117C417.538 111.597 419.399 113.478 421.858 113.478ZM440.647 109.117C440.647 109.283 440.627 109.469 440.606 109.634H430.933C431.181 111.907 433 113.52 435.418 113.52C437.134 113.52 438.601 112.693 439.366 111.515L440.213 112.217C439.201 113.706 437.444 114.636 435.377 114.636C432.111 114.636 429.673 112.238 429.673 109.097C429.673 105.955 432.029 103.599 435.17 103.599C438.291 103.599 440.647 105.955 440.647 109.117ZM435.15 104.715C432.897 104.715 431.181 106.306 430.933 108.559H439.387C439.139 106.306 437.403 104.715 435.15 104.715ZM443.461 101.367C442.985 101.367 442.593 100.995 442.593 100.499C442.593 100.023 442.985 99.6511 443.461 99.6511C443.957 99.6511 444.35 100.023 444.35 100.499C444.35 100.995 443.957 101.367 443.461 101.367ZM442.861 114.388V103.847H444.06V114.388H442.861ZM456.354 114.388H454.866L451.269 109.861L447.673 114.388H446.206L450.443 109.097L446.268 103.847H447.735L451.29 108.311L454.824 103.847H456.292L452.117 109.097L456.354 114.388ZM466.82 103.847H468.019V114.388H466.82V111.949C465.952 113.582 464.298 114.636 462.273 114.636C459.214 114.636 456.92 112.259 456.92 109.117C456.92 105.976 459.214 103.599 462.273 103.599C464.298 103.599 465.952 104.653 466.82 106.286V103.847ZM462.48 113.478C464.96 113.478 466.82 111.597 466.82 109.117C466.82 106.637 464.96 104.756 462.48 104.756C460.02 104.756 458.16 106.637 458.16 109.117C458.16 111.597 460.02 113.478 462.48 113.478ZM476.143 103.681H476.453V104.922H476.143C473.725 104.922 472.175 106.492 472.175 108.952V114.388H470.976V103.847H472.175V106.058C472.94 104.57 474.345 103.681 476.143 103.681ZM488.461 103.681H488.771V104.922H488.461C486.043 104.922 484.493 106.492 484.493 108.952V114.388H483.294V103.847H484.493V106.058C485.257 104.57 486.663 103.681 488.461 103.681ZM491.152 101.367C490.677 101.367 490.284 100.995 490.284 100.499C490.284 100.023 490.677 99.6511 491.152 99.6511C491.648 99.6511 492.041 100.023 492.041 100.499C492.041 100.995 491.648 101.367 491.152 101.367ZM490.553 114.388V103.847H491.752V114.388H490.553ZM499.622 114.636C496.439 114.636 494.042 112.259 494.042 109.117C494.042 105.976 496.439 103.599 499.622 103.599C501.71 103.599 503.466 104.632 504.417 106.244L503.363 106.885C502.64 105.604 501.255 104.756 499.622 104.756C497.142 104.756 495.282 106.637 495.282 109.117C495.282 111.597 497.142 113.478 499.622 113.478C501.255 113.478 502.64 112.631 503.363 111.349L504.417 111.99C503.466 113.602 501.71 114.636 499.622 114.636ZM511.402 114.636C508.219 114.636 505.822 112.259 505.822 109.117C505.822 105.976 508.219 103.599 511.402 103.599C514.565 103.599 516.962 105.976 516.962 109.117C516.962 112.259 514.565 114.636 511.402 114.636ZM511.402 113.478C513.883 113.478 515.722 111.597 515.722 109.117C515.722 106.637 513.883 104.756 511.402 104.756C508.922 104.756 507.062 106.637 507.062 109.117C507.062 111.597 508.922 113.478 511.402 113.478ZM519.49 114.491C518.932 114.491 518.519 114.078 518.519 113.52C518.519 112.962 518.932 112.548 519.49 112.548C520.048 112.548 520.483 112.962 520.483 113.52C520.483 114.078 520.048 114.491 519.49 114.491Z" fill="black"/>
</svg>
