<svg width="376" height="21" viewBox="0 0 376 21" fill="none" xmlns="http://www.w3.org/2000/svg">
<path d="M134.056 16.192C131.592 16.192 129.736 14.352 129.736 11.92C129.736 9.488 131.592 7.648 134.056 7.648C136.504 7.648 138.36 9.488 138.36 11.92C138.36 14.352 136.504 16.192 134.056 16.192ZM134.056 15.296C135.976 15.296 137.4 13.84 137.4 11.92C137.4 10 135.976 8.544 134.056 8.544C132.136 8.544 130.696 10 130.696 11.92C130.696 13.84 132.136 15.296 134.056 15.296ZM145.478 16.192C143.302 16.192 141.862 14.832 141.862 12.784V7.84H142.79V12.656C142.79 14.24 143.862 15.296 145.478 15.296C147.094 15.296 148.15 14.24 148.15 12.656V7.84H149.078V12.784C149.078 14.832 147.654 16.192 145.478 16.192ZM166.844 11.92C166.844 12.048 166.828 12.192 166.812 12.32H159.324C159.516 14.08 160.924 15.328 162.796 15.328C164.124 15.328 165.26 14.688 165.852 13.776L166.509 14.32C165.724 15.472 164.364 16.192 162.764 16.192C160.236 16.192 158.348 14.336 158.348 11.904C158.348 9.472 160.172 7.648 162.604 7.648C165.02 7.648 166.844 9.472 166.844 11.92ZM162.588 8.512C160.844 8.512 159.516 9.744 159.324 11.488H165.868C165.676 9.744 164.332 8.512 162.588 8.512ZM174.494 7.648C176.542 7.648 177.918 8.992 177.918 11.056V16H176.99V11.328C176.99 9.648 175.886 8.544 174.222 8.544C172.494 8.544 171.326 9.664 171.326 11.36V16H170.398V7.84H171.326V9.376C171.934 8.272 173.054 7.648 174.494 7.648ZM185.948 8.688H183.34V13.904C183.34 14.912 183.884 15.296 184.78 15.296C185.26 15.296 185.612 15.168 185.948 14.992V15.872C185.548 16.08 185.164 16.192 184.604 16.192C183.196 16.192 182.412 15.472 182.412 14.048V8.688H180.828V7.84H182.412V5.568H183.34V7.84H185.948V8.688ZM193.442 7.712H193.682V8.672H193.442C191.57 8.672 190.37 9.888 190.37 11.792V16H189.442V7.84H190.37V9.552C190.962 8.4 192.05 7.712 193.442 7.712ZM204.385 11.92C204.385 12.048 204.369 12.192 204.353 12.32H196.865C197.057 14.08 198.465 15.328 200.337 15.328C201.665 15.328 202.801 14.688 203.393 13.776L204.049 14.32C203.265 15.472 201.905 16.192 200.305 16.192C197.777 16.192 195.889 14.336 195.889 11.904C195.889 9.472 197.713 7.648 200.145 7.648C202.561 7.648 204.385 9.472 204.385 11.92ZM200.129 8.512C198.385 8.512 197.057 9.744 196.865 11.488H203.409C203.217 9.744 201.873 8.512 200.129 8.512ZM217.487 16.192C215.023 16.192 213.167 14.352 213.167 11.92C213.167 9.488 215.023 7.648 217.487 7.648C219.103 7.648 220.463 8.448 221.199 9.696L220.383 10.192C219.823 9.2 218.751 8.544 217.487 8.544C215.567 8.544 214.127 10 214.127 11.92C214.127 13.84 215.567 15.296 217.487 15.296C218.751 15.296 219.823 14.64 220.383 13.648L221.199 14.144C220.463 15.392 219.103 16.192 217.487 16.192ZM228.447 16.192C225.983 16.192 224.127 14.352 224.127 11.92C224.127 9.488 225.983 7.648 228.447 7.648C230.895 7.648 232.751 9.488 232.751 11.92C232.751 14.352 230.895 16.192 228.447 16.192ZM228.447 15.296C230.367 15.296 231.791 13.84 231.791 11.92C231.791 10 230.367 8.544 228.447 8.544C226.527 8.544 225.087 10 225.087 11.92C225.087 13.84 226.527 15.296 228.447 15.296ZM246.044 7.648C247.932 7.648 249.164 8.88 249.164 10.752V16H248.236V11.008C248.236 9.52 247.276 8.544 245.788 8.544C244.252 8.544 243.228 9.536 243.228 11.04V16H242.3V11.008C242.3 9.52 241.324 8.544 239.852 8.544C238.316 8.544 237.276 9.536 237.276 11.04V16H236.348V7.84H237.276V9.184C237.852 8.208 238.844 7.648 240.124 7.648C241.5 7.648 242.54 8.32 242.988 9.44C243.532 8.304 244.62 7.648 246.044 7.648Z" fill="#FF9200"/>
<line x1="97" y1="10.5" x2="-4.37114e-08" y2="10.5" stroke="#FF9200"/>
<line x1="376" y1="10.5" x2="279" y2="10.5" stroke="#FF9200"/>
</svg>
