<svg width="1099" height="230" viewBox="0 0 1099 230" fill="none" xmlns="http://www.w3.org/2000/svg">
<path d="M58.4455 146.789C27.2845 146.789 3.72739 123.828 3.72739 93.562C3.72739 63.2955 27.2845 40.3348 58.4455 40.3348C77.9771 40.3348 94.5267 49.2805 104.218 63.4446L79.6171 78.6524C74.9952 71.9431 67.3913 67.7684 58.4455 67.7684C43.9832 67.7684 32.9502 78.8015 32.9502 93.562C32.9502 108.322 43.9832 119.356 58.4455 119.356C67.3913 119.356 74.9952 115.181 79.6171 108.472L104.218 123.679C94.5267 137.843 77.9771 146.789 58.4455 146.789ZM162.991 68.9612H189.828V145H162.991V140.229C157.772 144.404 151.361 146.789 143.907 146.789C123.331 146.789 107.974 129.643 107.974 106.981C107.974 84.318 123.331 67.172 143.907 67.172C151.361 67.172 157.772 69.5575 162.991 73.7322V68.9612ZM149.274 120.846C157.176 120.846 162.991 114.883 162.991 106.981C162.991 99.0785 157.176 93.1147 149.274 93.1147C141.372 93.1147 135.557 99.0785 135.557 106.981C135.557 114.883 141.372 120.846 149.274 120.846ZM297.333 67.172C314.33 67.172 325.214 78.2051 325.214 95.0529V145H298.377V103.253C298.377 97.1403 294.649 93.1147 288.835 93.1147C282.722 93.1147 278.398 97.2894 278.398 103.551V145H251.561V103.253C251.561 97.1403 247.833 93.1147 242.019 93.1147C235.906 93.1147 231.582 97.2894 231.582 103.551V145H204.745V68.9612H231.582V74.6268C236.949 69.7066 243.509 67.172 251.262 67.172C260.805 67.172 268.408 70.8994 273.18 77.4596C279.442 70.6012 287.642 67.172 297.333 67.172ZM384.619 67.172C405.194 67.172 420.551 84.318 420.551 106.981C420.551 129.643 405.194 146.789 384.619 146.789C377.164 146.789 370.753 144.404 365.535 140.229V173.328H338.698V68.9612H365.535V73.7322C370.753 69.5575 377.164 67.172 384.619 67.172ZM379.252 120.846C387.154 120.846 392.969 114.883 392.969 106.981C392.969 99.0785 387.154 93.1147 379.252 93.1147C371.35 93.1147 365.535 99.0785 365.535 106.981C365.535 114.883 371.35 120.846 379.252 120.846ZM482.731 68.9612H509.568V145H482.731V140.229C477.513 144.404 471.102 146.789 463.647 146.789C443.072 146.789 427.715 129.643 427.715 106.981C427.715 84.318 443.072 67.172 463.647 67.172C471.102 67.172 477.513 69.5575 482.731 73.7322V68.9612ZM469.014 120.846C476.917 120.846 482.731 114.883 482.731 106.981C482.731 99.0785 476.917 93.1147 469.014 93.1147C461.112 93.1147 455.298 99.0785 455.298 106.981C455.298 114.883 461.112 120.846 469.014 120.846ZM537.904 62.401C528.66 62.401 521.652 55.5425 521.652 46.2986C521.652 37.0547 528.66 30.1963 537.904 30.1963C547.148 30.1963 554.155 37.0547 554.155 46.2986C554.155 55.5425 547.148 62.401 537.904 62.401ZM524.485 145V68.9612H551.322V145H524.485ZM614.878 142.614C630.831 142.614 642.311 151.709 645.89 167.364L618.307 175.117C617.562 171.092 614.281 168.557 609.66 168.557H588.339C572.535 168.557 562.098 159.313 562.098 145.745C562.098 137.098 566.273 128.749 573.131 124.574C567.018 118.61 563.291 110.41 563.291 101.017C563.291 81.6343 579.095 67.172 600.117 67.172C605.336 67.172 610.107 68.0666 614.431 69.7066C617.114 61.0591 625.315 55.6916 636.348 55.6916H643.057V80.4415H637.69C635.006 80.4415 632.769 81.4852 631.875 83.4235C635.155 88.4927 636.944 94.4565 636.944 101.017C636.944 120.399 620.991 134.861 600.117 134.861C597.434 134.861 594.75 134.563 592.215 134.116C590.128 135.309 588.935 137.098 588.935 138.887C588.935 141.124 590.873 142.614 593.706 142.614H614.878ZM600.117 92.5183C594.75 92.5183 590.873 96.0966 590.873 101.017C590.873 105.937 594.75 109.515 600.117 109.515C605.336 109.515 609.361 105.937 609.361 101.017C609.361 96.0966 605.336 92.5183 600.117 92.5183ZM698.134 67.172C714.982 67.172 726.164 78.2051 726.164 95.0529V145H699.327V104.148C699.327 97.4385 695.301 93.1147 688.89 93.1147C682.181 93.1147 677.559 97.5875 677.559 104.446V145H650.721V68.9612H677.559V74.6268C683.224 69.7066 690.083 67.172 698.134 67.172ZM797.341 42.1239H828.502L789.439 145H760.365L721.302 42.1239H753.059L775.275 106.235L797.341 42.1239ZM874.836 68.9612H901.673V145H874.836V140.229C869.617 144.404 863.206 146.789 855.751 146.789C835.176 146.789 819.819 129.643 819.819 106.981C819.819 84.318 835.176 67.172 855.751 67.172C863.206 67.172 869.617 69.5575 874.836 73.7322V68.9612ZM861.119 120.846C869.021 120.846 874.836 114.883 874.836 106.981C874.836 99.0785 869.021 93.1147 861.119 93.1147C853.217 93.1147 847.402 99.0785 847.402 106.981C847.402 114.883 853.217 120.846 861.119 120.846ZM951.925 146.789C929.71 146.789 915.098 133.967 915.098 114.435V68.9612H941.936V110.708C941.936 116.821 945.961 120.846 951.925 120.846C957.889 120.846 961.915 116.821 961.915 110.708V68.9612H988.752V114.435C988.752 133.967 974.14 146.789 951.925 146.789ZM1002.2 145V37.6511H1029.04V145H1002.2ZM1094.24 93.4129H1076.49V113.243C1076.49 117.715 1079.03 120.846 1084.69 120.846C1088.27 120.846 1091.55 119.654 1094.24 118.312V143.36C1089.61 145.745 1084.84 146.789 1078.88 146.789C1058.3 146.789 1049.66 134.265 1049.66 117.715V93.4129H1039.52V68.9612H1049.66V51.0697H1076.49V68.9612H1094.24V93.4129Z" fill="#FF7A00"/>
<path d="M174.498 206.445C168.644 206.445 164.197 202.072 164.197 196.255V180.432H166.495V196.255C166.495 200.775 169.904 204.221 174.498 204.221C179.056 204.221 182.465 200.775 182.465 196.255V180.432H184.763V196.255C184.763 202.072 180.316 206.445 174.498 206.445ZM212.23 186.657C216.603 186.657 219.456 189.511 219.456 193.846V206H217.307V194.439C217.307 190.993 215.083 188.732 211.637 188.732C208.08 188.732 205.708 191.03 205.708 194.513V206H203.559V194.439C203.559 190.993 201.299 188.732 197.89 188.732C194.333 188.732 191.924 191.03 191.924 194.513V206H189.775V187.102H191.924V190.215C193.258 187.954 195.555 186.657 198.52 186.657C201.707 186.657 204.115 188.214 205.153 190.808C206.412 188.177 208.932 186.657 212.23 186.657ZM241.1 187.102H243.25V206H241.1V201.628C239.544 204.555 236.58 206.445 232.948 206.445C227.464 206.445 223.351 202.183 223.351 196.551C223.351 190.919 227.464 186.657 232.948 186.657C236.58 186.657 239.544 188.547 241.1 191.475V187.102ZM233.319 204.37C237.765 204.37 241.1 200.998 241.1 196.551C241.1 192.104 237.765 188.732 233.319 188.732C228.909 188.732 225.574 192.104 225.574 196.551C225.574 200.998 228.909 204.37 233.319 204.37ZM265.292 180.877C263.217 180.877 261.957 181.766 261.957 184.064V187.102H267.885V189.066H261.957V206H259.808V189.066H256.102V187.102H259.808V183.915C259.808 180.58 261.623 178.876 264.847 178.876C266.144 178.876 267.033 179.135 267.997 179.617V181.544C267.181 181.099 266.403 180.877 265.292 180.877ZM288.292 196.551C288.292 196.847 288.255 197.181 288.218 197.477H270.877C271.321 201.553 274.582 204.444 278.918 204.444C281.993 204.444 284.624 202.962 285.995 200.849L287.514 202.109C285.699 204.777 282.549 206.445 278.844 206.445C272.989 206.445 268.616 202.146 268.616 196.514C268.616 190.882 272.841 186.657 278.473 186.657C284.068 186.657 288.292 190.882 288.292 196.551ZM278.436 188.658C274.397 188.658 271.321 191.512 270.877 195.551H286.032C285.587 191.512 282.475 188.658 278.436 188.658ZM301.525 186.806H302.081V189.029H301.525C297.19 189.029 294.411 191.845 294.411 196.255V206H292.262V187.102H294.411V191.067C295.782 188.399 298.302 186.806 301.525 186.806ZM314.539 186.806H315.095V189.029H314.539C310.204 189.029 307.425 191.845 307.425 196.255V206H305.276V187.102H307.425V191.067C308.796 188.399 311.316 186.806 314.539 186.806ZM333.731 187.102H335.881V206H333.731V201.628C332.175 204.555 329.211 206.445 325.579 206.445C320.095 206.445 315.982 202.183 315.982 196.551C315.982 190.919 320.095 186.657 325.579 186.657C329.211 186.657 332.175 188.547 333.731 191.475V187.102ZM325.95 204.37C330.397 204.37 333.731 200.998 333.731 196.551C333.731 192.104 330.397 188.732 325.95 188.732C321.54 188.732 318.206 192.104 318.206 196.551C318.206 200.998 321.54 204.37 325.95 204.37ZM363.638 186.657C368.01 186.657 370.863 189.511 370.863 193.846V206H368.714V194.439C368.714 190.993 366.491 188.732 363.045 188.732C359.488 188.732 357.116 191.03 357.116 194.513V206H354.967V194.439C354.967 190.993 352.707 188.732 349.298 188.732C345.74 188.732 343.332 191.03 343.332 194.513V206H341.183V187.102H343.332V190.215C344.666 187.954 346.963 186.657 349.928 186.657C353.114 186.657 355.523 188.214 356.56 190.808C357.82 188.177 360.34 186.657 363.638 186.657ZM394.398 196.551C394.398 196.847 394.361 197.181 394.324 197.477H376.982C377.427 201.553 380.688 204.444 385.023 204.444C388.099 204.444 390.729 202.962 392.1 200.849L393.62 202.109C391.804 204.777 388.654 206.445 384.949 206.445C379.094 206.445 374.722 202.146 374.722 196.514C374.722 190.882 378.946 186.657 384.578 186.657C390.174 186.657 394.398 190.882 394.398 196.551ZM384.541 188.658C380.502 188.658 377.427 191.512 376.982 195.551H392.138C391.693 191.512 388.58 188.658 384.541 188.658ZM407.853 186.657C412.596 186.657 415.783 189.77 415.783 194.55V206H413.634V195.18C413.634 191.289 411.077 188.732 407.223 188.732C403.221 188.732 400.516 191.326 400.516 195.254V206H398.367V187.102H400.516V190.659C401.924 188.103 404.518 186.657 407.853 186.657ZM430.117 189.066H424.077V201.146C424.077 203.48 425.337 204.37 427.412 204.37C428.524 204.37 429.339 204.073 430.117 203.666V205.704C429.191 206.185 428.302 206.445 427.005 206.445C423.744 206.445 421.928 204.777 421.928 201.479V189.066H418.26V187.102H421.928V181.84H424.077V187.102H430.117V189.066ZM449.607 187.102H451.756V206H449.607V201.628C448.051 204.555 445.086 206.445 441.455 206.445C435.971 206.445 431.858 202.183 431.858 196.551C431.858 190.919 435.971 186.657 441.455 186.657C445.086 186.657 448.051 188.547 449.607 191.475V187.102ZM441.826 204.37C446.272 204.37 449.607 200.998 449.607 196.551C449.607 192.104 446.272 188.732 441.826 188.732C437.416 188.732 434.081 192.104 434.081 196.551C434.081 200.998 437.416 204.37 441.826 204.37ZM482.692 187.102H484.841V213.04H482.692V201.628C481.135 204.555 478.171 206.445 474.539 206.445C469.055 206.445 464.942 202.183 464.942 196.551C464.942 190.919 469.055 186.657 474.539 186.657C478.171 186.657 481.135 188.547 482.692 191.475V187.102ZM474.91 204.37C479.357 204.37 482.692 200.998 482.692 196.551C482.692 192.104 479.357 188.732 474.91 188.732C470.501 188.732 467.166 192.104 467.166 196.551C467.166 200.998 470.501 204.37 474.91 204.37ZM498.295 206.445C493.255 206.445 489.92 203.295 489.92 198.552V187.102H492.07V198.256C492.07 201.924 494.552 204.37 498.295 204.37C502.037 204.37 504.483 201.924 504.483 198.256V187.102H506.632V198.552C506.632 203.295 503.334 206.445 498.295 206.445ZM530.186 196.551C530.186 196.847 530.149 197.181 530.112 197.477H512.77C513.215 201.553 516.476 204.444 520.811 204.444C523.887 204.444 526.518 202.962 527.889 200.849L529.408 202.109C527.592 204.777 524.443 206.445 520.737 206.445C514.883 206.445 510.51 202.146 510.51 196.514C510.51 190.882 514.734 186.657 520.367 186.657C525.962 186.657 530.186 190.882 530.186 196.551ZM520.33 188.658C516.291 188.658 513.215 191.512 512.77 195.551H527.926C527.481 191.512 524.369 188.658 520.33 188.658ZM553.526 186.657C559.047 186.657 563.161 190.919 563.161 196.551C563.161 202.183 559.047 206.445 553.526 206.445C549.932 206.445 546.931 204.555 545.374 201.628V213.04H543.225V187.102H545.374V191.475C546.931 188.547 549.932 186.657 553.526 186.657ZM553.156 204.37C557.602 204.37 560.937 200.998 560.937 196.551C560.937 192.104 557.602 188.732 553.156 188.732C548.709 188.732 545.374 192.104 545.374 196.551C545.374 200.998 548.709 204.37 553.156 204.37ZM576.503 186.806H577.059V189.029H576.503C572.168 189.029 569.389 191.845 569.389 196.255V206H567.24V187.102H569.389V191.067C570.76 188.399 573.28 186.806 576.503 186.806ZM587.914 206.445C582.208 206.445 577.909 202.183 577.909 196.551C577.909 190.919 582.208 186.657 587.914 186.657C593.583 186.657 597.882 190.919 597.882 196.551C597.882 202.183 593.583 206.445 587.914 206.445ZM587.914 204.37C592.361 204.37 595.658 200.998 595.658 196.551C595.658 192.104 592.361 188.732 587.914 188.732C583.467 188.732 580.133 192.104 580.133 196.551C580.133 200.998 583.467 204.37 587.914 204.37ZM624.408 186.657C628.78 186.657 631.633 189.511 631.633 193.846V206H629.484V194.439C629.484 190.993 627.261 188.732 623.815 188.732C620.258 188.732 617.886 191.03 617.886 194.513V206H615.737V194.439C615.737 190.993 613.477 188.732 610.068 188.732C606.51 188.732 604.102 191.03 604.102 194.513V206H601.953V187.102H604.102V190.215C605.436 187.954 607.733 186.657 610.697 186.657C613.884 186.657 616.293 188.214 617.33 190.808C618.59 188.177 621.11 186.657 624.408 186.657ZM655.168 196.551C655.168 196.847 655.131 197.181 655.094 197.477H637.752C638.197 201.553 641.458 204.444 645.793 204.444C648.869 204.444 651.499 202.962 652.87 200.849L654.39 202.109C652.574 204.777 649.424 206.445 645.719 206.445C639.864 206.445 635.492 202.146 635.492 196.514C635.492 190.882 639.716 186.657 645.348 186.657C650.944 186.657 655.168 190.882 655.168 196.551ZM645.311 188.658C641.272 188.658 638.197 191.512 637.752 195.551H652.907C652.463 191.512 649.35 188.658 645.311 188.658ZM668.248 189.066H662.208V201.146C662.208 203.48 663.467 204.37 665.543 204.37C666.654 204.37 667.469 204.073 668.248 203.666V205.704C667.321 206.185 666.432 206.445 665.135 206.445C661.874 206.445 660.058 204.777 660.058 201.479V189.066H656.39V187.102H660.058V181.84H662.208V187.102H668.248V189.066ZM689.627 196.551C689.627 196.847 689.59 197.181 689.553 197.477H672.212C672.656 201.553 675.917 204.444 680.252 204.444C683.328 204.444 685.959 202.962 687.33 200.849L688.849 202.109C687.033 204.777 683.884 206.445 680.178 206.445C674.324 206.445 669.951 202.146 669.951 196.514C669.951 190.882 674.175 186.657 679.808 186.657C685.403 186.657 689.627 190.882 689.627 196.551ZM679.771 188.658C675.732 188.658 672.656 191.512 672.212 195.551H687.367C686.922 191.512 683.81 188.658 679.771 188.658ZM713.116 189.066H707.076V201.146C707.076 203.48 708.336 204.37 710.411 204.37C711.522 204.37 712.338 204.073 713.116 203.666V205.704C712.189 206.185 711.3 206.445 710.003 206.445C706.742 206.445 704.927 204.777 704.927 201.479V189.066H701.258V187.102H704.927V181.84H707.076V187.102H713.116V189.066ZM734.495 196.551C734.495 196.847 734.458 197.181 734.421 197.477H717.08C717.524 201.553 720.785 204.444 725.12 204.444C728.196 204.444 730.827 202.962 732.198 200.849L733.717 202.109C731.902 204.777 728.752 206.445 725.046 206.445C719.192 206.445 714.819 202.146 714.819 196.514C714.819 190.882 719.044 186.657 724.676 186.657C730.271 186.657 734.495 190.882 734.495 196.551ZM724.639 188.658C720.6 188.658 717.524 191.512 717.08 195.551H732.235C731.79 191.512 728.678 188.658 724.639 188.658ZM764.098 179.321H766.247V206H764.098V201.628C762.541 204.555 759.577 206.445 755.946 206.445C750.462 206.445 746.349 202.183 746.349 196.551C746.349 190.919 750.462 186.657 755.946 186.657C759.577 186.657 762.541 188.547 764.098 191.475V179.321ZM756.316 204.37C760.763 204.37 764.098 200.998 764.098 196.551C764.098 192.104 760.763 188.732 756.316 188.732C751.907 188.732 748.572 192.104 748.572 196.551C748.572 200.998 751.907 204.37 756.316 204.37ZM790.002 196.551C790.002 196.847 789.965 197.181 789.928 197.477H772.587C773.031 201.553 776.292 204.444 780.627 204.444C783.703 204.444 786.334 202.962 787.705 200.849L789.224 202.109C787.408 204.777 784.259 206.445 780.553 206.445C774.699 206.445 770.326 202.146 770.326 196.514C770.326 190.882 774.55 186.657 780.183 186.657C785.778 186.657 790.002 190.882 790.002 196.551ZM780.146 188.658C776.107 188.658 773.031 191.512 772.587 195.551H787.742C787.297 191.512 784.185 188.658 780.146 188.658ZM795.046 182.656C794.194 182.656 793.49 181.989 793.49 181.099C793.49 180.247 794.194 179.58 795.046 179.58C795.935 179.58 796.639 180.247 796.639 181.099C796.639 181.989 795.935 182.656 795.046 182.656ZM793.971 206V187.102H796.121V206H793.971ZM818.161 206H815.493L809.045 197.885L802.598 206H799.967L807.563 196.514L800.078 187.102H802.709L809.082 195.106L815.419 187.102H818.049L810.564 196.514L818.161 206ZM836.925 187.102H839.074V206H836.925V201.628C835.369 204.555 832.404 206.445 828.773 206.445C823.289 206.445 819.176 202.183 819.176 196.551C819.176 190.919 823.289 186.657 828.773 186.657C832.404 186.657 835.369 188.547 836.925 191.475V187.102ZM829.143 204.37C833.59 204.37 836.925 200.998 836.925 196.551C836.925 192.104 833.59 188.732 829.143 188.732C824.734 188.732 821.399 192.104 821.399 196.551C821.399 200.998 824.734 204.37 829.143 204.37ZM853.64 186.806H854.196V189.029H853.64C849.304 189.029 846.525 191.845 846.525 196.255V206H844.376V187.102H846.525V191.067C847.896 188.399 850.416 186.806 853.64 186.806ZM875.723 186.806H876.279V189.029H875.723C871.388 189.029 868.609 191.845 868.609 196.255V206H866.46V187.102H868.609V191.067C869.98 188.399 872.5 186.806 875.723 186.806ZM880.548 182.656C879.696 182.656 878.992 181.989 878.992 181.099C878.992 180.247 879.696 179.58 880.548 179.58C881.438 179.58 882.142 180.247 882.142 181.099C882.142 181.989 881.438 182.656 880.548 182.656ZM879.474 206V187.102H881.623V206H879.474ZM895.733 206.445C890.027 206.445 885.729 202.183 885.729 196.551C885.729 190.919 890.027 186.657 895.733 186.657C899.476 186.657 902.626 188.51 904.33 191.4L902.44 192.549C901.143 190.252 898.661 188.732 895.733 188.732C891.287 188.732 887.952 192.104 887.952 196.551C887.952 200.998 891.287 204.37 895.733 204.37C898.661 204.37 901.143 202.85 902.44 200.553L904.33 201.702C902.626 204.592 899.476 206.445 895.733 206.445ZM916.853 206.445C911.147 206.445 906.848 202.183 906.848 196.551C906.848 190.919 911.147 186.657 916.853 186.657C922.522 186.657 926.821 190.919 926.821 196.551C926.821 202.183 922.522 206.445 916.853 206.445ZM916.853 204.37C921.3 204.37 924.598 200.998 924.598 196.551C924.598 192.104 921.3 188.732 916.853 188.732C912.407 188.732 909.072 192.104 909.072 196.551C909.072 200.998 912.407 204.37 916.853 204.37ZM931.354 206.185C930.353 206.185 929.612 205.444 929.612 204.444C929.612 203.443 930.353 202.702 931.354 202.702C932.354 202.702 933.132 203.443 933.132 204.444C933.132 205.444 932.354 206.185 931.354 206.185Z" fill="black"/>
</svg>
